<?xml version="1.0" encoding="UTF-8"?><svg id="Layer_1" xmlns="http://www.w3.org/2000/svg" viewBox="0 0 141.19 143.5"><defs><style>.cls-1{fill:#91cae1;}.cls-2{fill:#b3d9e9;}.cls-3{fill:#cfe5ef;}.cls-4{fill:#d2debb;}</style></defs><path class="cls-1" d="m5.44,56.21c.15-1.09.43-2.19.4-3.28-.02-.94-.39-1.88-.68-3.16-1.41.45-2.77.89-4.39,1.41.11-.51.06-1.07.29-1.22,1.39-.91,3.03-1.42,4.1-2.83.09-.12,1.03.41,1.59.64,1.21-.84-1.31-2.62.94-3.37.4.34.83.75,1.31,1.11.64.49,1.26.57,1.82-.17,1.61-2.12,3.72-2.48,6.16-1.73.58.18,1.23.16,1.84.23.79.75,1.58,1.5,2.3,2.18,1.68-1.11,1.42-2.51,1.49-3.81.19-.18.39-.36.58-.54.86-.08,1.82-.02,1.86-1.73-.94.25-1.71.45-2.49.65-.53-.03-1.07-.06-1.6-.08-.03-.19-.05-.38-.08-.56.01-.31.02-.62.03-.92,1.29-1.29,2.57-2.57,3.86-3.86.8.1,1.59.21,2.43.32-.16-1.49-.29-2.75-.43-4.01.16-.6.44-1.2.44-1.8,0-.66-.26-1.33-.41-1.99.03-.15.07-.31.12-.46.16-.33.33-.67.49-1,.54-.2,1.09-.41,1.63-.61.33-.19.67-.38,1-.56.33-.34.67-.69,1-1.03.03-.2.06-.39.09-.59.72-.54,1.44-1.08,2.16-1.62,0,0-.03.03-.03.03,1.47-.65,3.25-.68,4.3-2.16,1.26-.2,2.52-.39,3.78-.59.69,0,1.39,0,2.08,0,2.05-.01,4.1-.01,5.96,1.06,1.42.56,2.83,1.11,4.25,1.67.38.13.76.27,1.15.4.5.06,1,.13,1.5.19.02.35.04.7.06,1.05q1.24,1.7,3.34.84c-.3.75-.46,1.29-.72,1.79-.65,1.26-.39,2.19.91,2.71.73.29,1.55.52,2.32.5,2.18-.06,4.35-.22,6.52-.43,1.59-.15,2.64.31,3.05,1.5.44,1.28-.19,2.84-1.36,3.41-1.18.58-2.5.11-3.36-1.28-.67-1.08-.99-2.64-3.04-1.82.19.92.27,1.87.59,2.74.4,1.09.88,2.05.46,3.31-.15.45.52,1.18.82,1.78.1,1.25,1.46,2.21.82,3.69-.06.14.79.89,1.29,1,1.98.43,4.51-1.1,5.47-3.18.8-1.44,1.9-2.04,3.66-1.29-.38,1.05-.58,2.14-1.14,2.99-.44.67-1.26,1.27-2.03,1.5-2.4.73-2.81,1.3-2.2,3.74.04.17.04.35.07.53-.63.39-1.22.84-1.89,1.14-.58.27-1.24.37-1.86.55-.04-.14-.08-.28-.11-.42.31-.37.62-.75.96-1.15-.83-.76-1.91-.95-2.37-.15-.48.84-.33,2.05-.44,2.97,1.44.32,2.55.56,3.65.81,4.03,2.32,4.99,6.46,6.19,10.87,1.26-.53,2.41-1.02,3.84-1.63-.19.56-.2,1.03-.44,1.24-.88.79-2.17,1.1-2.6,2.44-.05.16-1,.02-1.67.02.17.74.33,1.48.48,2.15-1.23,1.12-1.77-.62-2.72-.41-.87.82-1.76,1.65-2.65,2.48-.32.16-.65.31-.98.47-.56,0-1.11,0-1.67,0-1.06-.59-2.08-.98-2.66.59-.2.36-.4.72-.6,1.09-1.31-.24-.89-1.3-.99-2.11-.1-.82.33-1.85-.92-2.18q.4-2.64-1.75-3.81c-.43-1.61-.86-3.22-1.36-5.13-2.15,1.47-4.18,2.76-5,5.28-.36.2-.72.4-1.08.59h-2.74c.49,1.34,1.05,1.98,2.18,1.98.23.82.44,1.64.7,2.45.24.74.55,1.46,1.53,1.45.7.3,1.4.61,2.1.91h.99c.42,1.05.83,2.11,1.25,3.17.85-.21,1.45-.35,2.04-.5.66-.16,1.32-.32,1.97-.47.53.35,1.05.7,1.58,1.05-.07.34-.04.77-.24,1-1.63,1.95-1.51,4.16-1.06,6.44.3,2.23-.36,4.26-1.29,6.24-.37.79-.71,1.6-1.06,2.39h0c-1.4.35-2.9.55-3.63,2.09,1.42,1.12,2.75,2.17,4.08,3.22,0,2.2-.65,4.43.47,6.59.17.32-.39,1.32-.85,1.62-1.72,1.12-4.17.47-4.81-1.45-.42-1.26-1.03-1.71-2.18-1.8-.53-.56-1.06-1.12-1.59-1.68.19-1.24.39-2.49.58-3.73.5-.34,1.01-.67,1.68-1.12-1.27-.67-1.64-.35-1.77.42-.52.09-1.03.18-1.55.26-.36-.05-.73-.1-1.09-.16-1-.33-1.98-.86-2.99-.93-2.47-.17-4.35-1.06-5.51-3.36-.52-1.02-1.53-1.14-2.57-.85-.86.24-1.68.6-2.55.77-1.07.21-2.09.04-2.98-1.03.83-.67,1.51-.32,2.27-.15,1.47.34,1.99-.25,1.56-1.7-.66-2.23-1.95-3.95-4.96-3.94-.31-.84-.62-1.69-.94-2.58-1.72.68-2.35,1.89-2.4,3.49-.67.4-1.34.8-2.01,1.21-.04-.73-.08-1.47-.13-2.2.39-.66.64-1.69,1.19-1.9,1.66-.63,1.86-1.6,1.27-3.06-.08-.2.25-.56.38-.85.79-.07,1.86.99,2.31-.22.28-.77-.08-1.8-.22-2.7-.03-.22-.39-.36-.5-.59-.24-.46-.42-.94-.63-1.42.14-1.41-.77-2.14-1.91-3.19-.08.81-.12,1.23-.17,1.66-.21.02-.42.03-.63.05-.34-.18-.67-.37-1.01-.55.05-.82.08-1.62-1.09-1.62-.33-.21-.67-.41-1-.62-.21-1.63-.34-1.71-1.62-1.09-.56.24-1.12.47-1.68.71,0,.09,0,.18-.01.27-.07.4-.21.81-.19,1.21.24,4.11-2.92,7.4-7.05,7.57-1.17.05-1.75-.64-2.54-1.1-.6-.34-1.24-1.17-1.73-1.07-2.37.46-4.05-1.1-5.98-1.84-3.33-1.29-6.17-7.25-3.31-10.71,1.11-1.34,2.17-2.72,3.26-4.08.34-.32.68-.65,1.02-.97Z"/><path class="cls-1" d="m96.54,30.94c-.48-1.5-.95-3-1.47-4.62-.88.07-1.62.13-2.37.19.57-2.53.47-2.91-1.55-5.54.73-.82,1.04-1.64.71-2.95-.54-2.19-.43-4.46,1.4-6.33.89-.92,1.45-2.16,2.16-3.26.95-.01,1.52-.47,1.67-1.42,1.38-.32,2.89-.34,3.77-1.74.34-.2.68-.39,1.01-.59.32.14.7.46.97.39,2.27-.6,4.53-1.28,6.78-1.93,1.3,2.27,4.01,2.2,6.18,3.13,1.26,1.09,2.53,2.18,3.79,3.27.37,2.21.65,2.52,2.53,2.66.62.05,1.31.17,1.86-.05,2.07-.81,3.79-.04,5.52.99-.03.99-.64,1.2-1.43,1.06-.34-.06-.67-.24-.98-.4-.88-.45-1.75-1.01-2.64-.05-.84.91-.34,1.93.04,2.75.63,1.36,1.54,2.59,2.29,3.9.61,1.05,1.15,2.14,1.88,3.52,2.03.5,3.57-.67,4.76-2.49.77-1.18,1.51-2.2,3.23-1.44-.24,2.04-.8,3.74-2.96,4.34-1.53.43-1.97,1.32-1.43,2.82.11.3-.23.75-.37,1.14-.68-.14-1.36-.41-2.03-.4-.82.02-1.88,0-2.38.48-.67.65-.7,1.74.08,2.58.47.24.97.42,1.39.73.87.64,1.11,2.04.49,2.86-.72.95-1.49.65-2.31.07-.78-.55-1.64-.99-2.48-1.49-1.27.3-1.82,1.24-2.27,2.38-1.32,3.32-3.22,6.02-7.23,6.3-.88.06-1.74.41-2.62.46-1.38.08-2.78.03-4.17.03-.61,0-1.22,0-1.89,0-.27-.44-.53-1-.91-1.47-.32-.41-.77-.72-1.14-1.06-.42.24-.76.44-.91.52-.47-1.06-.96-1.92-1.22-2.84-.27-.92-.38-1.9-.43-2.87-.05-1.12-.34-1.93-1.61-2.02-.35-.18-.71-.36-1.06-.54-.56-.23-1.11-.45-1.67-.68-.34-.13-.67-.26-1.01-.39Z"/><path class="cls-1" d="m94.4,123.62c-2.25.17-2.93.8-3.24,3.25-.24,1.91-.87,3.55-2.74,4.76-.71-1.17-.4-1.95.51-2.55.72-.47,1.48-1.07.93-1.88-.35-.52-1.31-.86-2.01-.88-1.13-.05-2.28.2-3.41.37-1.3.2-2.59.58-3.9.67-1.31.09-1.88.79-1.59,1.89.36,1.34.95,2.66,1.69,3.83.6.95,1.22,1.7.3,2.92-1.79-.71-3.24-1.57-3.16-3.74.05-1.42-.49-2.23-1.98-2.2-.76.01-1.18-.29-1.2-1.07.33-.55.65-1.11.98-1.66-.16-.51-.31-1.02-.47-1.53-.34-.2-.69-.4-1.03-.59-.36.08-.79.06-1.07.26-1.83,1.28-2.03,1.26-3.79-.88.99-.92,2-1.86,3.05-2.83.44-.73-1.56-.77-.6-1.75.02-.02-.45-.74-.79-.84-2.22-.68-2.33-2.97-3.35-4.51-.55-.83-.43-2.23-.32-3.34.16-1.67.5-3.33.88-4.97.41-1.77,1.14-3.36,3.18-3.82.25-.06.51-.2.71-.37,1.63-1.32,3.39-1.84,5.44-1.04.39.15.88.02,1.47.02,1.62-2.9,3.99-4.56,7.64-3.63.21-.92.36-1.58.56-2.47,1.59,1.54,3.27,1.56,5.12.22.6,1.05,1.31,1.78,2.66,1.66.77-.07,1.66.38,2.39.79,3.64,2.01,5.68,5.03,5.72,9.28,0,.58.3,1.15.46,1.73.04.35.09.71.13,1.06-.07,1.06-.14,2.11-.2,3.17-.14,1.25-.27,2.51-.41,3.76-.52.22-1.2.3-1.54.68-.86.97-1.57,2.07-2.34,3.12-1.29-.22-1.54.53-1.46,1.58-1.08.52-2.15,1.03-3.23,1.55Z"/><path class="cls-1" d="m19.36,30.37c-1.03.39-2.24.32-2.9,1.59-.22.42-1.23.46-1.89.61-2.94.64-5.6.39-8.06-1.73-1.64-1.42-1.96-3.32-2.64-5.09-.78-2.06-.82-4.15.52-6.12.37-.55.38-1.35.55-2.03.78-.49,1.51-1.19,2.37-1.42,1.39-.38,1.36-1.33,1.34-2.38.03-.16.05-.32.06-.48.35-.05.71-.1,1.06-.14.94-.19,1.94-.23,2.8-.6,1.2-.51,2.31-1.26,3.42-1.89.69-2.24-2.54-2.54-2.34-4.85.73.27,1.43.32,1.78.7.89.94,1.56,1.94,3.04,2.28,1.01.23.89,1.49.11,2.24,1.72,1.57,1.97-1.15,3.27-.81,1.07.28,2.21.27,3.41.56-1.38.2-2.65.52-3.28,1.88-.72.95-.71,1.64.51,2.24,1.64.82,3.08,1.93,3.87,3.68.15,1.43.3,2.86.45,4.29-.7.85-1.42,1.68-2.09,2.55-.26.33-.39.76-.58,1.14v.02c-.35.2-.68.41-1.02.61q-2.49.01-2.71,2.09h.02c-.21.19-.42.37-.63.56-.15.17-.29.33-.44.5Z"/><path class="cls-1" d="m99.72,53.41c.47-.23.94-.46,1.4-.69-.14-.21-.28-.41-.42-.62-.63-.25-1.25-.56-1.91-.75-2.42-.67-3.02-2.6-3.13-4.72-.14-2.68,3.19-4.62,5.82-3.56,2.05.82,2.84,2.52,3.58,4.82-1.14,1.13-2.41,2.4-3.85,3.83.5.22.98.63,1.32.54,1.08-.3,2.19-.67,3.15-1.24,1.57-.94,2.4-1.02,3.58,0,1.19,1.03,1.42,2.64.58,4.04-.27.45-.45,1.19-.83,1.3-1.84.58-1.6,2.13-1.81,3.48-.34.34-.68.68-1.03,1.01-2.31.98-4.61.43-6.92,0-.18-.33-.36-.66-.54-.98.15-1.78.3-3.56.45-5.35.19-.37.38-.75.57-1.12Z"/><path class="cls-1" d="m20.41,86.63c-.72.33-1.44.66-2.37,1.08-.5-.65-.89-1.35-1.46-1.84-.46-.4-1.15-.53-1.75-.79.39-.55.82-1.13,1.31-1.81-1.07-.11-2.02.02-2.72-.33-1.05-.54-1.81-1.47-1.44-2.85.37-1.4,1.29-2.05,2.76-1.96,1.48.09,2.11.68,2.39,2.3.05.26,0,.53-.01.8-.09.27-.18.53-.27.79.16-.2.33-.4.49-.61.29-.18.75-.3.83-.55.32-.91.87-1.29,1.82-1.14,1.07.16,1.5.84,1.52,1.86,0,.27,0,.53.01.8-.13.3-.44.7-.35.88.77,1.39,0,2.37-.77,3.37Z"/><path class="cls-3" d="m61.15,89.32c.35-.8.69-1.6,1.06-2.39.93-1.98,1.58-4.01,1.29-6.24,2.33.98,3.48,3.58,6.28,3.9-.09.24-.18.49-.27.73-.63.08-1.26.17-1.89.25q-.76-.96-2.26-.25c.97.13,1.59.21,2.21.3-.09.24-.12.65-.28.7-1.77.59-1.77.58-2.61,1.95.56.33,1.11.66,2.09,1.24-.86.13-1.25.2-1.84.29.17.75.35,1.5.52,2.24-.88.89-1.75,1.77-2.63,2.66-.41-.02-.81-.04-1.22-.07-1.33-1.05-2.66-2.1-4.09-3.22.73-1.54,2.23-1.74,3.63-2.08-.08.81-.16,1.62-.23,2.42.65-.8,2.09-1.58.24-2.43Z"/><path class="cls-1" d="m62.81,94.69c.88-.89,1.75-1.77,2.63-2.66.35-.02.69-.05,1.04-.07.35.04.71.07,1.06.11,2.18.58,3.25,1.94,3.22,4.12-.02,1.85-1.43,3.51-3.33,3.88-.69.13-1.39.21-2.19.33-2.09-1.3-2.56-3.37-2.43-5.7Z"/><path class="cls-1" d="m67.58,21.85c.26.43.53.86.65,1.06.61-.19,1.16-.54,1.69-.5,1.2.07,2.38.33,3.57.51l-.02-.02c.26.72.52,1.45.75,2.1-1.06,2.71-2.77,4.05-5.73,2.73-.3-.13-.71,0-1.06-.03-1.61-.17-2.15-1.12-1.46-2.57.53-1.11,1.08-2.2,1.62-3.3l-.02.02Z"/><path class="cls-2" d="m64.79,73.24c-.53-.35-1.05-.7-1.58-1.05-.8-.43-1.68-1.2-1.97.47-.6.15-1.2.29-2.04.5-.42-1.07-.84-2.12-1.25-3.17.08-.98.96-2.49,1.74-3.28.4-.41.63-.98.94-1.48h0c.77.04.48,1.86,1.76,1.04,1.24.33.82,1.37.92,2.18.1.81-.32,1.87.99,2.11.65,1.06,1.33,2.05,2.77,1.1h-.01c-.21,1.29-1.25,1.41-2.26,1.58Z"/><path class="cls-3" d="m73.48,40.05c-.96,2.08-3.49,3.61-5.47,3.18-.5-.11-1.35-.87-1.29-1,.63-1.47-.72-2.44-.82-3.69.86.25,1.73.51,2.81.82.3-.47.69-1.08,1.16-1.82,1.41.63,2.9.98,3.62,2.51Z"/><path class="cls-2" d="m31.09,71.59c.21.47.39.96.63,1.42.12.23.47.37.5.59.14.9.51,1.93.22,2.7-.44,1.2-1.52.15-2.31.22-1.06-.67-2.01-1.41-1.69-3.03-1.6-.14-3.04-.27-4.86-.43,1.85-1.13,3.33-2.04,4.81-2.95.21-.02.42-.03.63-.05-.12,1.61.83,1.78,2.08,1.53Z"/><path class="cls-2" d="m24.79,35.18c-1.29,1.29-2.57,2.57-3.86,3.86-2.4-.24-4.62.31-6.65,1.47-.06-1.15-.11-2.33-.19-4,.81.88,1.37,1.49,1.93,2.11.72-.05,1.5-.11,2.29-.17.19-.02.39-.03.58-.05.15-.16.29-.32.44-.48.37-.37.73-.73,1.1-1.1.64-.88.61-1.63-.46-2.14.15-.18.3-.36.45-.54.54,0,1.08.01,1.62.02,1.12-.22,2.44-.96,2.75,1.02Z"/><path class="cls-3" d="m102.96,116.69c.14-1.25.27-2.51.41-3.76.3.18.64.32.91.54,1.36,1.07,2.72,1.95,4.57,1.1.33-.15.84.08,1.81.19-1.59.99-2.67,1.82-4.19,1.61q.33,1.47,1.82,1.44c-.81,2.43-2.72-.7-3.67.82-.56-.66-1.11-1.3-1.65-1.94Z"/><path class="cls-3" d="m49.41,20.16c-1.86-1.07-3.91-1.07-5.96-1.06,1.11-2.13,1.04-4.76,3.09-6.57-.36,1.73-.73,3.46-1.12,5.33.38.04.86.1,1.33.15.2-.84.14-1.8.59-2.19.47-.42,1.42-.31,2.38-.25-1.57,1.57-.41,3.09-.3,4.59Z"/><path class="cls-3" d="m41.37,19.1c-1.26.2-2.52.39-3.78.59.03-1.85-.34-3.75.82-5.55h3.38c-.14,1.67-.28,3.31-.42,4.95Z"/><path class="cls-3" d="m69.77,51.26c-1.11-.24-2.21-.49-3.65-.81.11-.92-.04-2.12.44-2.97.46-.79,1.54-.61,2.37.15-.34.41-.65.78-.96,1.15.04.14.08.28.11.42.62-.18,1.28-.28,1.86-.55.66-.3,1.26-.75,1.89-1.14.57,1.11.74,2.7,2.66,2.12.03.37.06.74.09,1.1-1.45-.31-2.9-.63-4.52-.98-.1.53-.2,1.02-.29,1.5Z"/><path class="cls-3" d="m20.41,86.63c.77-1,1.54-1.99.77-3.37-.1-.17.22-.58.35-.88.77.05,1.64-.13,2.29.18,1.27.6,2.34.15,3.47-.24.04.73.08,1.47.13,2.2-.35-.02-.73.04-1.03-.09-1.35-.6-2.06.03-2.69,1.16-.94,1.7-1.28,1.75-3.28,1.04Z"/><path class="cls-3" d="m119.61,9.53c-1.26-1.09-2.53-2.18-3.79-3.27,1.44-.7,2.88-1.39,4.8-2.32-.46,1.19-.74,1.93-1.13,2.95.81.52,1.63,1.05,2.77,1.79-.98.31-1.82.58-2.65.84Z"/><path class="cls-2" d="m75.71,89.8c1.57-.07,2.81-.13,4.51-.21.12.15.63.74,1.23,1.47-1.29,1.19.61,3.54-1.68,4.55-.9-1.45-.16-2.6.42-3.71-1.26-1.23-3.98.8-4.48-2.09Z"/><path class="cls-2" d="m96.54,30.94c.34.13.68.26,1.01.39,0,1.36,0,2.73,0,4.54-.91-.62-1.43-.98-2.01-1.37-1.29.19-2.8,1.69-4.09-.44,1.25-.94,2.57-1.08,3.97-.93.21.13.41.26.63.38.01,0,.1-.13.16-.2-.24-.09-.48-.18-.71-.26.01-.51.03-1.03.04-1.54.16-.18.31-.36.47-.53.18,0,.36-.01.54-.02Z"/><path class="cls-2" d="m60.99,118.61c.69.73,2.3.95,1.38,2.79-1.42-1.21-4.23.88-4.85-2.55,1.73-.63,3.4-1.23,5.07-1.83.07.16.15.31.22.47-.6.37-1.2.74-1.81,1.12Z"/><path class="cls-3" d="m26.36,18.62c-.79-1.75-2.23-2.86-3.87-3.68-1.22-.61-1.23-1.3-.51-2.24.32.51.63,1.01.98,1.56.58-.24,1.05-.44,1.63-.68.18,1.51.92,2.13,2.38,1.4.49.94.92,1.77,1.33,2.55-.69.39-1.31.74-1.94,1.1Z"/><path class="cls-2" d="m74.58,50.74c-.03-.37-.06-.74-.09-1.1.38-.05.96-.28,1.12-.11,1.19,1.19,2.5,1.9,4.25,1.86,1.1-.03,1.41.79,1.45,1.9-2.11-.35-4.09-.61-6.02-1.07-.34-.08-.48-.96-.72-1.48Z"/><path class="cls-3" d="m97.62,122.07c.25.56.49,1.13.73,1.69-.45.33-.86.62-1.26.91-.52.31-1.04.62-1.57.94.4,1.37.76,2.64,1.13,3.91-2.45-1.43-2.02-3.77-2.26-5.89,1.08-.52,2.15-1.03,3.23-1.55Z"/><path class="cls-3" d="m22.04,34.16c-.54,0-1.08-.01-1.62-.02-.56-.53-1.13-1.05-1.84-1.72.51-.24,1.06-.5,1.74-.82-.36-.47-.66-.85-.96-1.24.15-.17.29-.33.44-.5.21-.19.42-.37.63-.56,0,0-.02,0-.02,0,1.05-.11,2.1-.23,3.55-.38-2.09,1.4-2.03,3.31-1.92,5.23Z"/><path class="cls-3" d="m127.58,30.95c-.78-.84-.74-1.94-.08-2.58.49-.48,1.56-.47,2.38-.48.67-.01,1.35.26,2.03.4.55.57,1.09,1.14,1.84,1.93-1.36-.12-2.55-.25-3.75-.33-.98-.07-1.94-.03-2.43,1.07Z"/><path class="cls-2" d="m127.22,44.02c.42,1.23.83,2.45,1.31,3.87-.45.33-1.1.8-1.74,1.27-2-2.25-1.88-3.73.43-5.14Z"/><path class="cls-4" d="m72.66,143.5c-2.08-1.44-4.02-2.76-5.91-4.13-.18-.13-.1-.62-.17-1.24,2.9.89,5.89,3.5,6.08,5.37"/><path class="cls-3" d="m8.65,13.8c.02,1.05.05,2-1.34,2.38-.85.23-1.58.93-2.37,1.42-.18-.65-.36-1.3-.57-2.07,2.05.18,1.54-1.3,1.14-2.91,1.31.49,2.22.84,3.14,1.19Z"/><path class="cls-2" d="m68.08,136.61c.78-1.59,1.4-3.18,2.33-4.57.28-.42,1.41-.28,2.41.05-.74.86-1.56,1.66-2.18,2.6-.59.88-.57,2.33-2.56,1.92Z"/><path class="cls-3" d="m22.62,42.23c-.07,1.3.19,2.7-1.49,3.81-.73-.69-1.51-1.44-2.3-2.18.43-.54.86-1.09,1.38-1.76.68.04,1.55.08,2.41.13Z"/><path class="cls-3" d="m31.69,21.84c-.61.12-1.22.36-1.82.32-.79-.05-1.57-.32-2.58-.55q1.07-1.02,3.77-1.05c-.71-.54-1.21-.91-2.06-1.56.77-.35,1.37-.88,1.87-.8,1.1.17.71,1.23.82,1.97,0,.56,0,1.11-.01,1.67Z"/><path class="cls-2" d="m141.19,32.56c-1.91-.24-3.72-.47-5.87-.75-.05-.7-.11-1.48-.19-2.67,1.37.75,2.25,1.44,3.26,1.74,1.04.31,2.37-.1,2.81,1.68Z"/><path class="cls-2" d="m114.94,84.32c-.84,2-.99,4.51-3.98,5.52.7-2.59,1.97-4.31,3.98-5.52Z"/><path class="cls-2" d="m78.75,3.96c-2.19-1.05-4.75-.73-6.44-3.02,1.72.21,3.19.32,4.62.59,1.1.21,1.91.83,1.81,2.43Z"/><path class="cls-3" d="m29.42,83.31c.05-1.6.68-2.81,2.4-3.49.32.89.63,1.73.94,2.58-.41.35-.78.9-1.24,1-.66.14-1.4-.04-2.1-.08Z"/><path class="cls-3" d="m18.88,38.4c-.19.02-.39.03-.58.05-.14-1.01.55-2.69-1.64-2.05-.18-.79-.37-1.59-.59-2.53,1.61-.05,2.03,1.1,2.8,1.7.53.4,1.03.83,1.55,1.25-.37.37-.73.73-1.1,1.1-.15.16-.29.32-.44.48Z"/><path class="cls-3" d="m101.89,4.67c-.34.2-.68.39-1.01.59-.48-1.6-.96-3.2-1.47-4.9.67-.06,1.38-.12,2.36-.21,0,.65.28,1.55-.05,1.93-.9,1.04,0,1.75.18,2.59Z"/><path class="cls-2" d="m3.15,46c-.8-.61-1.6-1.23-2.52-1.93.46-1.34-.02-2.99,1.96-4.09-.43,2.2-1.64,4.35,1.75,5.46-.4.19-.79.38-1.19.57Z"/><path class="cls-2" d="m97.11,7.01c-.16.94-.73,1.4-1.67,1.42-.52-1.5-1.05-3.01-1.61-4.62,1.96.02,2.23,2.06,3.28,3.2Z"/><path class="cls-3" d="m24.14,26.6c.19-.38.33-.81.58-1.14.67-.87,1.39-1.7,2.09-2.55.72.4,1.38.73.56,1.73-.25.31.02,1.06.06,1.6-.16.33-.33.67-.49,1-.93-.21-1.87-.43-2.8-.64Z"/><path class="cls-3" d="m52.64,97.91c.53.56,1.06,1.12,1.59,1.68-.19.25-.4.74-.56.72-.97-.12-1.93-.34-2.9-.53q-.14-1.68,1.86-1.87Z"/><path class="cls-3" d="m103.57,109.75c-.04-.35-.09-.71-.13-1.06,1.66-1.17,3.14-.1,4.78.26-.27,1.85-1.66,1.51-2.25.94-.93-.89-1.61-.21-2.4-.14Z"/><path class="cls-3" d="m106.16,60.88c.34-.34.68-.68,1.03-1.01,1.19.58,1.84,1.53,2.04,2.84q-1.94.31-3.07-1.82Z"/><path class="cls-2" d="m95.25,61.55c-.97,1.92-2.97,1.42-4.18,2.36-.06.04-.72-.43-.69-.61.05-.37.31-.96.58-1.02,1.34-.31,2.71-.48,4.29-.73Z"/><path class="cls-2" d="m27.17,76.22c-1.74-.48-3.25-.89-4.77-1.31.02-.19.05-.38.07-.57,1.27,0,2.54-.06,3.81.02,1.11.07,1.17.84.9,1.86Z"/><path class="cls-2" d="m74.97,36.39c-.98.84-1.88,1.43-2.79.25-.19-.25-.03-1.09.24-1.31,1.14-.89,1.93-.35,2.55,1.05Z"/><path class="cls-2" d="m11.87,39.5c-.52.3-1.04.6-1.65.96-.18-1.1-.34-2.1-.5-3.1q1.92.06,2.13,2.16l.02-.02Z"/><path class="cls-1" d="m109.41,57.22c1.81.43,2.61,1.21,2.5,2.99-1.58-.34-2.27-1.2-2.5-2.99Z"/><path class="cls-2" d="m56.37,23.48c-.02-.35-.04-.7-.06-1.05.92-.71,1.85-1.42,2.92-2.24-.55,2.7-.82,3-2.87,3.29Z"/><path class="cls-3" d="m74.07,125.2c.34.2.69.4,1.03.59.16.51.31,1.02.47,1.53-.33.55-.66,1.11-.98,1.66-.98-.04-1.18-.64-1.03-1.46.15-.78.34-1.55.51-2.33Z"/><path class="cls-2" d="m55.72,101.35c-1.13,1.37-1.95,2.34-3.72,1.54.93-1.41,1.97-1.88,3.72-1.54Z"/><path class="cls-2" d="m91.65,0c1.76-.05,1.89,1.55,2.58,2.59-.13.14-.26.27-.38.41-.86-.81-1.72-1.62-2.58-2.44.13-.19.26-.38.38-.56Z"/><path class="cls-2" d="m99.72,53.41c-.19.37-.38.75-.57,1.12-.5.14-.99.37-1.49.41-.48.03-.98-.1-1.44-.26-.11-.04-.18-.63-.11-.67.42-.23.87-.45,1.34-.51.75-.1,1.51-.07,2.27-.09Z"/><path class="cls-2" d="m64.89,69.47c.58-1.58,1.6-1.19,2.66-.59.13.48.25.96.41,1.43.28.85-.06,1.27-.91,1.35,0,0,.01.01.01.01-.22-2.24-.31-2.33-2.17-2.19Z"/><path class="cls-2" d="m73.61,73.25c-1.49-.26-1.48-1.36-1.9-2.18,1.89-.4,2.11-.16,1.9,2.18Z"/><path class="cls-2" d="m131.32,45.78c-.42-.51-.97-.97-1.21-1.55-.13-.32.27-.85.43-1.29.36.17.96.27,1.04.52.21.68.19,1.43.26,2.15-.18.06-.35.11-.53.17Z"/><path class="cls-2" d="m83.48,131.98c.55.63,1.13,1.01,1.1,1.32-.06.49-.52.93-.82,1.39-.36-.3-.98-.59-1.01-.91-.03-.48.37-.99.72-1.79Z"/><path class="cls-2" d="m131.94,17.48c.86-.68,1.58-1.33,2.34-.27.17.24.09,1-.12,1.13-.88.55-1.64.32-2.23-.86Z"/><path class="cls-3" d="m9.77,13.18c-.35.05-.71.1-1.06.14-.09-1.29-.31-2.61,1.04-3.66,1.13,1.27-.35,2.41.02,3.52Z"/><path class="cls-2" d="m5.44,56.21c-.34.32-.68.65-1.02.97-.85-.72-1.7-1.44-2.83-2.4,1.96-.38,2.65,1.15,3.85,1.43Z"/><path class="cls-2" d="m85.74,31.09c-.92,1.02-1.71,1.31-2.68.11.91-1.01,1.71-1.05,2.68-.11Z"/><path class="cls-3" d="m29.04,13.3c0,.16,0,.32-.01.47-.38,0-.76.02-1.13.02-.42-.05-.83-.11-1.49-.19.68-1.19,1.23-2.09,2.62-1.86-.26.52-.82,1.05.01,1.56Z"/><path class="cls-2" d="m22.57,40.61c.77-.2,1.55-.41,2.49-.65-.04,1.71-1,1.66-1.86,1.73-.21-.36-.42-.72-.63-1.08Z"/><path class="cls-2" d="m31.46,85.09c-.59.5-.92.98-1.16.94-.42-.07-.78-.46-1.17-.71.22-.24.43-.67.65-.68.44-.01.88.22,1.68.45Z"/><path class="cls-2" d="m62.2,124.23c-.96,1.36-1.69.75-2.72-.13,1.11-.56,1.89-.77,2.72.13Z"/><path class="cls-2" d="m29.04,13.3c-.83-.51-.28-1.04-.01-1.56.51.2,1.42.34,1.46.62.17,1.1-.81.84-1.45.94Z"/><path class="cls-2" d="m98.7,59.88c.18.33.36.66.54.98-.76.12-1.52.25-2.53.41.42-1.08,1.16-1.3,1.99-1.4Z"/><path class="cls-3" d="m124.21,8.4c-.55-.51-.88-.82-1.22-1.13.4-.36.8-.72,1.19-1.07.14.09.28.18.42.28-.11.54-.22,1.09-.4,1.93Z"/><path class="cls-3" d="m30.07,25.07c-.34.19-.67.37-1,.56q.01-2.08,2.09-2.18c-.03.2-.06.39-.09.59-.33.34-.67.69-1,1.03Z"/><path class="cls-2" d="m31.69,21.84c0-.56,0-1.11.01-1.67,1.2-.07,1.74.48,1.59,1.69,0,0,.03-.03.03-.03-.54,0-1.09,0-1.63.01Z"/><path class="cls-1" d="m84.84,3.41c-.36.23-.67.5-.73.45-.31-.23-.55-.55-.81-.83.28-.13.58-.39.82-.34.24.05.43.41.72.73Z"/><path class="cls-2" d="m23.67,66.23c1.28-.62,1.4-.53,1.62,1.09-.54-.36-1.08-.73-1.62-1.09Z"/><path class="cls-3" d="m50.49,93.58c.36.05.73.1,1.09.16-.09.58-.18,1.16-.29,1.88-1.23-.48-.7-1.37-.8-2.04Z"/><path class="cls-2" d="m27.9,13.8c.38,0,.76-.02,1.13-.02.19.53.38,1.05.57,1.58l-.13.11c-.52-.56-1.05-1.11-1.57-1.67Z"/><path class="cls-2" d="m26.28,67.94c1.17,0,1.14.8,1.09,1.62-1.11-.04-1.07-.85-1.09-1.62Z"/><path class="cls-3" d="m67.54,92.07c-.35-.04-.71-.07-1.06-.11.11-.45.22-.89.33-1.34.14,0,.28-.01.41-.02.11.49.21.98.32,1.47Z"/><path class="cls-3" d="m54.8,22.24c-.38-.13-.76-.27-1.15-.4.16-.28.32-.55.48-.83.22.41.44.82.66,1.23Z"/><path class="cls-3" d="m108.26,119.21c.12.23.36.54.3.63-.15.22-.43.38-.69.45-.08.02-.26-.32-.39-.5.18-.14.36-.27.78-.59Z"/><path class="cls-2" d="m53.13,93.48c.13-.77.49-1.09,1.77-.42-.67.45-1.18.79-1.68,1.12-.03-.23-.06-.47-.09-.7Z"/><path class="cls-2" d="m29.6,15.36c.33.4.65.79,1.22,1.49-1.45-.04-1.27-.81-1.35-1.38,0,0,.13-.11.13-.11Z"/><path class="cls-3" d="m35.4,17.03c.23.3.45.47.47.66.02.17-.18.36-.28.55-.17-.16-.42-.3-.48-.5-.05-.15.14-.37.29-.71Z"/><path class="cls-1" d="m77.09,56.46c-.13.28-.2.42-.26.56-.27-.14-.54-.28-.79-.44-.01,0,.13-.34.18-.34.29.04.57.14.88.22Z"/><path class="cls-2" d="m69.22,68.88c.33-.16.65-.31.97-.47-.13.29-.26.58-.39.87-.19-.14-.39-.27-.58-.41Z"/><path class="cls-2" d="m20.89,39.96c.03.19.05.38.08.56-.26.08-.51.15-.77.23.23-.26.46-.53.69-.79Z"/><path class="cls-2" d="m99.22,32c.35.18.71.36,1.06.54-.86.81-.95.1-1.06-.54Z"/><path class="cls-1" d="m67.6,21.83c-.12-.17-.24-.34-.04-.06-.1-.33-.04-.13.02.07,0,0,.02-.02.02-.02Z"/><path class="cls-2" d="m13.34,35.78c-.05.06-.1.12-.15.19-.04-.07-.11-.15-.1-.22,0-.07.09-.13.14-.19.04.07.07.15.11.22Z"/><path class="cls-2" d="m11.85,39.52c.13.18.26.36.39.54-.12-.19-.25-.37-.37-.56,0,0-.02.02-.02.02Z"/><path class="cls-2" d="m21.98,67.21c.01-.09.02-.18.01-.27.07.08.15.17.22.25l-.24.02Z"/><path class="cls-3" d="m96,30.96c-.16.18-.31.36-.47.53.16-.18.31-.36.47-.53Z"/><path class="cls-3" d="m72.95,130.06c-.04.08-.08.15-.12.23.04-.07.09-.15.13-.22,0,0,0,0,0,0Z"/><path class="cls-3" d="m72.95,130.07c.07-.08.14-.15.21-.23-.01.05,0,.11-.04.13-.05.04-.12.06-.18.09,0,0,0,0,0,0Z"/><path class="cls-1" d="m73.49,22.92c.03-.06.07-.12.1-.18-.04.05-.08.11-.12.16,0,0,.02.02.02.02Z"/><path class="cls-3" d="m60.63,62.46c-.04.43-.07.86-.12,1.4-2.19.41-2.63-1.3-3.49-2.99-.43.83-.71,1.37-1.04,2.01-.54-.09-1.13-.18-1.72-.28.83-2.51,2.85-3.81,5-5.28.51,1.91.94,3.52,1.36,5.13Z"/><path class="cls-2" d="m54.85,69.08c.21-1.67,1.1-2.41,2.89-2.38-.26,1.1-.53,2.2-.79,3.29-.7-.3-1.4-.61-2.1-.91Z"/><path class="cls-3" d="m26.79,31.49c-1-.42-1.84-.84-1.62-2.26.17-1.08.56-1.59,1.65-1.53.15.66.41,1.33.41,1.99,0,.6-.28,1.2-.44,1.8Z"/><path class="cls-3" d="m53.19,63.2c-.02.13-.03.27-.05.4-.18.4-.37.8-.55,1.2.03.13.04.25.04.38-1.13,0-1.69-.64-2.18-1.98h2.74Z"/><path class="cls-3" d="m24.14,26.61c-.03.71-.11,1.35-1.02.61.34-.2.68-.41,1.02-.61Z"/><path class="cls-2" d="m61.15,89.32c1.85.85.41,1.63-.24,2.43.08-.81.16-1.62.23-2.42,0,0,0,0,0,0Z"/><path class="cls-1" d="m52.59,64.8c.18-.4.37-.8.55-1.2-.18.4-.37.8-.55,1.2Z"/><path class="cls-2" d="m60.62,65.23c-.07-.07-.15-.15-.22-.22.05.01.11,0,.14.03.04.05.06.12.09.18h0Z"/></svg>