<?xml version="1.0" encoding="utf-8"?>
<!-- Generator: Adobe Illustrator 27.1.1, SVG Export Plug-In . SVG Version: 6.00 Build 0)  -->
<svg version="1.1" id="Layer_1" xmlns="http://www.w3.org/2000/svg" xmlns:xlink="http://www.w3.org/1999/xlink" x="0px" y="0px"
	 viewBox="0 0 199.81 192.39" style="enable-background:new 0 0 199.81 192.39;" xml:space="preserve">
<style type="text/css">
	.st0{fill:#C82430;}
	.st1{fill:#CC353B;}
	.st2{fill:#D24D4F;}
	.st3{fill:#CF4146;}
	.st4{fill:#E8A09F;}
	.st5{fill:#F1C4C5;}
	.st6{fill:#EDB1B1;}
	.st7{fill:#E07A7A;}
	.st8{fill:#DA6D6B;}
	.st9{fill:#D65D5E;}
	.st10{fill:#E18686;}
	.st11{fill:#E59292;}
</style>
<path class="st0" d="M66.31,59.7c0.57-1.71,2.29-2.86,2.35-4.82c-0.38-1.38,0.78-1.08,1.45-1.33c0.37-1.36,1.2-0.24,1.8-0.33
	c0.73,0.57,1.46,1.14,2.19,1.72c0.78,1.17,1.82,0.85,2.86,0.47c0.15,0.02,0.29,0.04,0.44,0.06c0.23,0.1,0.46,0.21,0.69,0.31
	c0.67-0.14,1.33-0.27,2-0.41c0.67-0.45,1.93,0.9,2.22-0.72c0.49-0.12,0.98-0.24,1.47-0.37c0.19-0.05,0.38-0.09,0.57-0.14
	c0,0-0.04-0.04-0.04-0.04c0.31-0.02,0.63-0.04,0.94-0.06c0.41,0.03,0.81,0.06,1.22,0.09c0.54-0.02,1.1,0,1.63-0.09
	c0.47-0.07,0.91-0.37,1.37-0.38c1.74-0.02,3.48,0.04,5.21,0.08c0.3-0.08,0.6-0.15,0.89-0.23c2.08-0.76,1.81-2.38,1.47-4.03
	c0,0,0,0.01,0,0.01c0.46-2.44-0.01-4.69-1.29-6.8l0,0.01c-0.23-0.34-0.46-0.67-0.68-1.01c-0.24-0.31-0.49-0.62-0.73-0.93
	c-0.27-0.3-0.53-0.6-0.8-0.9c-0.14-0.02-0.27-0.08-0.38-0.17c-0.31-0.42-0.61-0.83-0.92-1.25c0,0,0,0.01,0,0.01
	c-0.12-1.48-0.24-2.97-0.36-4.45c0-0.14,0.05-0.26,0.15-0.36c0.88-0.01,1.75-0.03,2.63-0.04c0.58,0.55,1.06,1.34,1.75,1.6
	c2.3,0.86,2.69,3.11,3.74,4.86c0.18,0.31,0.17,0.96-0.04,1.23c-1.49,2-0.51,3.43,0.99,4.77c0.13,0.12,0.21,0.28,0.32,0.42
	c0.19,0.16,0.39,0.32,0.58,0.48c0,0,0.02,0.03,0.02,0.03c1.14,1.57,1.18,1.57,2.76-0.02c0.35-0.04,0.7-0.07,1.05-0.11
	c0.19,0.11,0.38,0.22,0.57,0.33c0.1,0.35,0.21,0.71,0.31,1.06l-0.12-0.03c-0.1,0.22-0.2,0.44-0.29,0.66
	c-0.11,1.47-0.23,2.94-0.34,4.41c0,0,0.01-0.03,0.01-0.03c-0.15,0.19-0.3,0.38-0.44,0.56c-0.25,0.23-0.51,0.47-0.76,0.7
	c-1.51,1.43-1.46,1.92,0.32,3.39c0.39,0.12,2.35,1.06,2.42,1.15c0,0,0.02,0.02,0.02,0.02c1.02,1.18,1.61,0.25,2.26-0.45
	c0,0,0.01-0.01,0.01-0.01c0.1-0.24,0.19-0.48,0.29-0.72c0.11-0.28,0.22-0.55,0.33-0.83c0.15-0.15,0.31-0.29,0.46-0.44
	c0.18-0.08,0.36-0.17,0.53-0.25c0.54-0.21,1.08-0.41,1.61-0.62c1.46-0.3,2.78-0.03,3.91,0.97c0.23,0.3,0.47,0.6,0.7,0.9
	c0,0,0.02,0.03,0.02,0.03c-0.1,0.75-0.17,1.5-0.31,2.25c-0.11,0.58-0.31,1.14-0.48,1.71c-0.82,0.54-1.64,1.08-2.46,1.62
	c0.04,0.12,0.09,0.24,0.13,0.36c0.5-0.01,1-0.01,1.51-0.02c0.2-0.06,0.41-0.12,0.61-0.18c0.67-0.35,1.34-0.7,2.01-1.04
	c0.79-0.26,1.5-0.35,1.69,0.74c1.12,1.18,1.71,1.12,2.69-0.24c0.16-0.05,0.3-0.14,0.4-0.28c0,0,0.04,0.02,0.04,0.02
	c0.59,1.12,1.58,1.63,2.78,1.76c0.82,0.09,1.63,0.06,1.86-1c1.66-0.81,1.11-2.22,0.95-3.52c0.03-0.75,0.06-1.49,0.09-2.24
	c-0.08-1.27-0.15-2.54-0.23-3.81c0,0,0,0,0,0c1.09-0.7,0.14-1.1-0.23-1.58c-0.25-0.31-0.51-0.61-0.76-0.92
	c-0.56-0.96-1.12-1.92-1.69-2.89c0,0-0.01-0.01-0.01-0.01c-0.2-0.14-0.4-0.28-0.6-0.42c0,0,0.01-0.04,0.01-0.04
	c-0.23-0.33-0.47-0.66-0.7-1c0,0,0,0.01,0,0.01c-0.24-1.24-0.48-2.48-0.73-3.71c0,0,0,0.01,0,0.01c0.09-0.4,0.17-0.81,0.26-1.21
	c0.02-0.14,0.05-0.28,0.11-0.41c0.12-0.22,0.23-0.44,0.35-0.65c0.47-0.43,0.93-0.87,1.4-1.3c0.13,0,0.26-0.03,0.37-0.1
	c1.62,1.68,3.25,3.36,4.87,5.04c0.28,0.49,0.56,0.98,0.85,1.47c0,0,0-0.01,0-0.01c0.27,1.42,0.55,2.83,0.82,4.25c0,0,0-0.01,0-0.01
	c-0.12,0.38-0.24,0.77-0.36,1.15c-0.94,2.63,0.36,4.72,3.7,5.94c0.94,0.01,1.88,0.01,2.81,0.02c0.28,0.46,0.57,0.92,0.85,1.38
	c0.07,0.33,0.15,0.67,0.22,1c0.17,0.17,0.34,0.35,0.5,0.52c0.11,0.14,0.22,0.28,0.33,0.42c-0.21,0.22-0.42,0.44-0.63,0.66
	c-0.74,0.16-1.5,0.29-1.31,1.36c-1.51,0.57-2.99,1.15-2.65,3.24c-0.12,0.23-0.24,0.46-0.36,0.68l-0.01,0.01
	c-1.15-0.05-1.52,0.5-0.92,1.45c0.3,0.47,0.94,0.72,1.42,1.06c0.51,0.04,1.01,0.07,1.52,0.11c1.11,0.08,2.36-0.52,3.25,0.7
	c0.06,0.08,0.47-0.1,0.72-0.16c0.17,0.34,0.25,0.82,0.52,0.98c0.63,0.39,1.35,0.63,2.19,1c0.92-1.15,1.88-2.34,2.85-3.54
	c0.3,0.26,0.61,0.52,0.91,0.77c0.23,1.41,1.21,1.49,2.34,1.32c0.21,0.15,0.42,0.29,0.63,0.44c0,0-0.03,0.15-0.03,0.15
	c-0.04,0.12,0,0.22,0.09,0.3c0.08,0.18,0.16,0.36,0.24,0.54c-0.45,1.29-2.13,2.06-1.56,3.77c-0.2,0.13-0.4,0.26-0.59,0.4
	c-1.58,0.27-3.19,0.44-4.75,0.84c-1.32,0.33-1.72,1.39-1.52,2.69c0.06,1.9,0.03,3.81,0.25,5.69c0.06,0.55,0.75,1.35,1.28,1.48
	c1.73,0.41,2.91,1.51,4.08,2.71c0.34,0.63,0.68,1.25,1.02,1.88c0.15,0.19,0.3,0.37,0.45,0.56c-0.2,0.49-0.68,1.08-0.54,1.45
	c0.28,0.77,0.88,1.43,1.35,2.14c0.18,0.17,0.36,0.35,0.55,0.52c0.65,1.29,1.3,2.57,1.95,3.86c0.03,0.19,0.05,0.39,0.08,0.58
	c0.1,0.33,0.2,0.67,0.3,1c-1.24,0.65-2.24,0.08-3.14-0.89c-1.3,2.35,1.1,3.65,1.08,5.47c1.76,0.25,1.33,1.46,1.22,2.61
	c-0.08,0.79,0.41,1.11,1.19,0.93c0.17-0.08,0.34-0.07,0.5,0.03c0.23,0.09,0.46,0.18,0.69,0.27c0.19,0.15,0.37,0.3,0.56,0.45
	c0.03,0.19,0.07,0.37,0.1,0.56c-0.44,0.62-0.84,1.74-1.31,1.78c-2.24,0.16-2.88,1.64-3.33,3.42c-0.23,0.2-0.47,0.39-0.7,0.59
	c1.39,0.73,1.11,2.06,1.18,3.27c0,1.18,0.7,1.41,1.69,1.23c0.29,0.5,0.58,0.99,0.86,1.49c-0.42,0.99-0.84,1.98-1.35,3.18
	c0.14,0.39,0.41,1.1,0.67,1.82c-0.26,0.43-0.51,0.86-0.77,1.29c0,0-0.02,0.06-0.02,0.06c-0.14,0.19-0.27,0.38-0.41,0.57
	c0,0-0.05,0.03-0.05,0.03c-0.12,0.19-0.25,0.38-0.37,0.57c0.05,0.53,0.1,1.05,0.15,1.58c0,0,0.02-0.02,0.02-0.02
	c-1.07,0.74-2.56,1.09-2.63,2.79c-1.33,2.08-1.33,2.08-3.45,1.55c-0.12-0.06-0.21-0.16-0.26-0.29c-0.59-0.29-1.17-0.58-1.76-0.87
	c-2.08-0.71-4.15-1.42-6.23-2.12c-0.9-0.89-1.94-0.83-3.02-0.43l0,0c-0.36,0.04-0.71,0.07-1.07,0.11c-0.29,0.27-0.57,0.54-0.86,0.81
	c-0.99,0.28-1.86,0.52-2.99,0.01c-0.99-0.44-2.34-0.27-3.49-0.11c-1.62,0.23-3.21,0.71-4.82,1.08c-1.11-0.31-2.23-0.62-3.34-0.92
	c-0.3,0.6-0.6,1.19-0.9,1.79c0,0-0.02,0.02-0.02,0.02c-0.13-0.52-0.25-1.03-0.5-2.05c-0.3,1.1-0.43,1.6-0.57,2.1
	c-0.15,0.06-0.3,0.11-0.46,0.16c-1.02,0.38-2.04,0.77-3.06,1.15c0,0-0.14-0.11-0.14-0.11l0.15,0.09c0.02,0.31,0.04,0.61,0.06,0.92
	c-0.12,0.07-0.24,0.15-0.33,0.25c-0.18,0.46-0.37,0.91-0.55,1.37c-0.26,0.17-0.52,0.34-0.78,0.5c-1.08,0-2.15,0.01-3.23,0.01
	c0,0-0.01,0.01-0.01,0.01c-0.05-0.06-0.1-0.18-0.14-0.18c-0.13,0-0.27,0.06-0.4,0.09c-1.55-0.39-2.96,0.1-4.37,0.65
	c-0.14-0.02-0.27-0.07-0.39-0.13c-0.26-0.31-0.53-0.61-0.79-0.92c-0.54-0.05-1.08-0.1-1.62-0.14c-0.72,0.24-1.44,0.48-2.17,0.71
	c-0.29,0.14-0.58,0.28-0.87,0.43c-2.02,0.66-4.03,1.21-6.21,0.65c-0.62-0.16-1.38,0.24-2.07,0.39c-0.13,0.06-0.23,0.03-0.31-0.08
	c-0.29-0.26-0.57-0.53-0.86-0.79c-0.26,0.36-0.52,0.72-0.78,1.09c0,0,0.08,0.13,0.08,0.13c-0.36,0-0.73,0-1.09,0
	c-1.24-2.03-3.33-2.91-5.32-3.86c-2.18-1.04-4.86-0.77-6.82-2.55c-0.24-0.22-1.08,0.22-1.64,0.36c-0.39-1.15-1.21-1.73-2.4-1.83
	c-0.9,0.03-1.79,0.06-2.69,0.09c-0.14-1.28-0.22-2.57-0.45-3.84c-0.12-0.65-0.51-1.26-0.77-1.88c-0.93-0.96-1.87-1.93-3.07-3.17
	c0.22-1.34-0.42-2.6-2.34-2.98c-1.05-1.7-2.58-1.08-4.03-0.83c-0.18,0.07-0.36,0.14-0.54,0.22c-0.16-0.03-0.33-0.08-0.49-0.13
	c-0.23-1.13-0.48-2.23-2.06-1.64c-0.17-0.03-0.34,0-0.49,0.09c-0.13-0.1-0.27-0.14-0.43-0.12c-0.24-0.06-0.49-0.12-0.73-0.18
	l-0.02-0.01c-0.12-0.34-0.25-0.68-0.37-1.02c-0.24,0.35-0.48,0.71-0.72,1.06c-0.6,0.54-1.19,1.09-1.79,1.63
	c0.04-0.59,0.08-1.18,0.12-1.78c0.03-0.17,0.05-0.34,0.05-0.52c0.21-0.15,0.62-0.36,0.6-0.44c-0.55-1.71-0.65-3.61-2.16-4.93
	c-0.85-0.75-1.55-1.67-2.37-2.46c-0.55-0.53-1.19-0.96-1.78-1.43c-0.36-0.15-0.71-0.29-1.07-0.44c-0.15-0.15-0.29-0.3-0.44-0.46
	c-0.19-0.15-0.38-0.3-0.57-0.45c-0.18-0.07-0.3-0.2-0.36-0.38c0.09-0.57,0.18-1.13,0.27-1.7l0.06-0.02
	c-0.08-0.36-0.15-0.72-0.23-1.07c-0.1-0.11-0.18-0.23-0.22-0.37c0.19-1.35-0.05-2.76,0.6-4.07c0.34-0.66-0.16-0.95-0.79-0.98
	c-0.24-1.03-0.49-2.07-0.73-3.1c0,0,0.09,0.01,0.09,0.01c1.01-2.39-0.45-4.28-1.26-6.31c1.78-0.52,1.78-0.52,1.17-2.89
	c0,0-0.01,0.01-0.01,0.01c0.11-0.23,0.22-0.46,0.33-0.69l0.09,0.02c1.63-1.3,0.99-2.94,0.69-4.54l-0.01,0.01
	c1.41-0.56,0.96-1.36,0.28-2.19c-0.04-0.34-0.09-0.67-0.13-1.01c0.11-0.05,0.23-0.1,0.34-0.16c0.14-0.21,0.27-0.41,0.41-0.62
	c0.74-0.17,1.59-0.25,1.35-1.38c0.16-0.18,0.31-0.37,0.47-0.55c0.92,0.62,1.48,0.06,1.95-0.63c1.51-2.22,3.03-4.44,4.47-6.71
	c0.24-0.38,0.08-1.01,0.1-1.53c0,0,0.02-0.03,0.02-0.03c0.13-0.21,0.26-0.42,0.39-0.63c0.14-0.21,0.28-0.42,0.43-0.62
	c0.16-0.16,0.32-0.32,0.48-0.48c0.46-0.49,0.91-0.97,1.37-1.46c0.69-0.11,1.41-0.13,2.05-0.36c0.68-0.25,1.28-0.7,1.91-1.06
	c0,0,0.01-0.02,0.01-0.02c0.13-0.2,0.26-0.4,0.39-0.61c0,0,0.03-0.03,0.03-0.03c0.14-0.21,0.27-0.41,0.41-0.62
	c0.14-0.22,0.28-0.45,0.43-0.67c0.3-0.14,0.61-0.29,0.91-0.43c0.65,0.41,1.3,0.82,1.95,1.23c0,0,0.07-0.03,0.07-0.03
	c1.3-0.08,2.6-0.09,3.88-0.3C65.81,60.82,66.04,60.11,66.31,59.7z"/>
<path class="st0" d="M166.19,143.95c0.09-0.4,0.18-0.8,0.27-1.2c-0.03-1.31-0.52-2.86,0.02-3.86c0.82-1.53,0.9-2.97,0.64-4.53
	c1.49-0.26,1.73-1.22,1.66-2.38c0.54-0.14,1.08-0.29,1.62-0.43c0.16,0,0.31,0.04,0.46,0.11c0.49,1.27,1.48,0.6,2.3,0.58
	c0.19-0.05,0.38-0.09,0.56-0.14c0.16-0.02,0.32-0.03,0.48-0.04c0.23,0.11,0.46,0.23,0.69,0.34c0,0,0,0,0,0
	c0.35,0.21,0.71,0.42,1.06,0.62c0.62,1.07,1.24,2.14,1.85,3.22c0.88-0.23,1.66-0.06,2.27,0.65c0.1,0.57,0.2,1.14,0.3,1.71
	c-0.85,0.24-1.55,0.69-1.28,1.68c0.2,0.73,0.47,1.5,1.58,1.48c0.48-0.01,0.97,0.52,1.46,0.81c0.24,0.09,0.47,0.19,0.71,0.28
	c0,0,0.04,0.02,0.04,0.02c0.88,0.24,1.77,0.48,2.77,0.76c-0.02,0.75-0.05,1.42-0.07,2.09c0.06,0.8,0.03,1.7,1.28,1.47
	c0.23,1.04,0.46,2.08,0.7,3.13c0,0,0,0,0,0c-0.14,0.21-0.29,0.43-0.43,0.64c-1.44,0.89-0.77,2.11-0.49,3.26
	c-0.26,0.44-0.52,0.88-0.78,1.31c0,0-0.05,0.07-0.05,0.07c-0.09,0.18-0.18,0.35-0.27,0.53c0,0-0.13,0.19-0.13,0.19
	c-0.17,0.14-0.34,0.28-0.52,0.43c-0.06,0.72-0.11,1.45-0.17,2.17l0,0c-0.34,0.25-0.68,0.69-1.04,0.71
	c-1.75,0.11-2.33,1.27-2.66,2.72c-0.78,1.59-2.22,1.29-3.56,1.23l0,0c-0.63-1.82-2.05-1.77-3.56-1.51c-0.11-1.53-1.18-1.41-2.24-1.3
	c-0.8-0.2-1.6-0.4-2.4-0.6c0,0-0.03-0.02-0.03-0.02c0,0-0.01-0.24-0.01-0.24s-0.11-0.21-0.11-0.21c-0.4-0.29-0.8-0.58-1.21-0.87
	c0,0-0.03-0.05-0.03-0.05c-0.42-1.65-1.35-2.92-2.44-4c-0.35-0.77-0.69-1.54-1.04-2.32c0,0,0.02,0.01,0.02,0.01
	c-0.11-0.66-0.21-1.32-0.32-1.98c0.14-0.26,0.28-0.52,0.43-0.77c0.71-0.84,1.74-1.59,0.9-2.91c-0.16-0.16-0.32-0.33-0.48-0.49
	c0,0,0,0.01,0,0.01C164.31,144.97,165.75,144.72,166.19,143.95z"/>
<path class="st0" d="M158.57,156.2c-0.94,0.18-1.81,0.36-2.43,1.3c-0.39,0.59-1.23,0.89-1.87,1.32c-0.38-0.11-0.75-0.23-1.13-0.34
	c-1.21,0.15-2.43,0.31-3.64,0.46l-0.1-0.02c-0.48-1.19-1.39-1.31-2.47-1c0,0,0.01,0,0.01,0c-0.22-0.14-0.45-0.28-0.67-0.41
	c-0.32,0.05-0.64,0.1-0.97,0.15c-0.21-0.19-0.42-0.39-0.63-0.58c-0.01-1.04-0.03-2.08-0.04-3.06c-3.04-0.8-3.15-1-3.04-4.1
	c0.04-1.23-0.12-2.46-0.19-3.69c0.02-0.3,0.04-0.6,0.06-0.9c0.74-0.22,1.49-0.44,2.39-0.71c-0.34-0.88-0.62-1.6-0.9-2.31
	c0.87-0.85,1.75-1.7,2.62-2.55c0.37-0.26,0.74-0.53,1.12-0.79c0.19-0.05,0.37-0.11,0.56-0.16c0.78-0.05,1.26-1.38,2.28-0.54
	c0.04,0.03,0.47-0.41,0.71-0.64c0.93,0.21,1.86,0.41,2.79,0.62c0.58,0.06,1.16,0.11,1.74,0.17c0.68,0.07,1.35,0.15,2.03,0.22
	c0.7,0.88,1.41,1.75,2.11,2.63c1.14,1.44,1.64,3.03,1.13,4.85c0.17,0.89,0.33,1.78,0.5,2.67c0.03,1.24,0.07,2.47,0.1,3.71
	C159.94,153.75,159.25,154.97,158.57,156.2z"/>
<path class="st1" d="M177.58,92.18c-0.51,0.02-1.01,0.03-1.52,0.05c0.17-0.59,0.13-1.02-0.67-0.84c-2.95-0.41-4.3-1.71-4.64-4.45
	c1.05-0.06,2.1-0.12,3.15-0.17c0.18-0.02,0.36-0.05,0.54-0.07c0.49-0.14,0.98-0.27,1.48-0.41c0.62,0.3,1.24,0.61,1.86,0.91
	c0.85-0.16,1.69-0.32,2.54-0.48c0.07,0.14,0.14,0.27,0.22,0.41c-0.48,0.46-0.95,0.93-1.62,1.58c0.75,0.18,1.29,0.31,2,0.47
	c0.13,0.71,0.28,1.48,0.42,2.25C180.08,91.69,178.83,91.93,177.58,92.18z"/>
<path class="st2" d="M72.84,135.3c0.56-0.14,1.4-0.58,1.64-0.36c1.96,1.77,4.64,1.51,6.82,2.55c2,0.95,4.09,1.84,5.32,3.86
	c-0.12,0.26-0.24,0.52-0.37,0.77c-0.49,0.34-0.99,0.68-1.48,1.03c-0.52,0-1.04-0.01-1.56-0.01c0.01-0.7,0.18-1.44,0-2.09
	c-0.25-0.9-0.54-1.99-1.2-2.52c-0.82-0.65-1.99-0.63-2.8,0.45c-0.12,0.16-0.5,0.11-0.97,0.2c-1-1.51-2.46-2.34-4.66-1.76
	c0.09,1.01,0.26,2.03,0.24,3.05c-0.01,0.85-0.4,1.21-1.09,0.38c-0.2-1.42-0.41-2.83-0.61-4.25C72.36,136.17,72.6,135.73,72.84,135.3
	z"/>
<path class="st3" d="M71.91,53.21c-0.6,0.1-1.43-1.03-1.8,0.33c-0.27-1.24-0.54-2.48-0.82-3.72c0,0,0,0,0,0
	c0.13-0.21,0.26-0.43,0.39-0.64c0,0,0.01-0.01,0.01-0.01c0.11-0.22,0.23-0.44,0.34-0.65c1.07-2.62,1.07-2.62,5.1-5.87
	c0.44,0.54,1.11,1.03,1.27,1.64c0.31,1.24-1.47,4.47-2.68,4.68c-1.89,0.33-2.26,1.35-1.93,2.99C71.87,52.36,71.87,52.79,71.91,53.21
	z"/>
<path class="st1" d="M24.79,160.3c0.61-1.45,1.19-2.91,1.83-4.36c0.92-2.09,2.48-3.33,4.8-3.53c0.39,0.11,0.78,0.21,1.16,0.32
	c0.99,0.24,0.99,0.24,1.68,1.22c-2.12,0.75-3.66,2.14-4.75,4.1c-0.35,0.63-1.05,1.07-1.59,1.6c-0.57,0.22-1.12,0.5-1.7,0.63
	C25.76,160.38,25.27,160.3,24.79,160.3z"/>
<path class="st1" d="M14.15,144.74c0.31-1.02,0.59-2.05,0.95-3.05c1.22-3.33,2.43-4.08,6.49-3.95c-0.17,0.5-0.2,1.17-0.49,1.33
	c-1.99,1.06-2.76,3.07-3.9,4.79c-0.17,0.25-0.55,0.36-0.84,0.53C15.57,144.17,15.05,145.66,14.15,144.74z"/>
<path class="st1" d="M117.49,145.78c0.52,2.56-0.75,4.86-1.07,7.3c-0.05,0.36-0.65,0.78-1.07,0.91c-0.19,0.06-0.7-0.47-0.85-0.82
	c-0.59-1.34-1.1-2.72-1.72-4.27c1.25-0.27,1.56-1.32,1.94-2.33C116.2,147.88,115.99,144.57,117.49,145.78z"/>
<path class="st1" d="M181.97,137.25c1.07-0.89,2.03-2.01,3.25-2.59c1.14-0.54,2.55-0.63,3.85-0.67c0.7-0.02,1.42,0.47,2.02,0.69
	c0.23,1.62-0.78,2.12-1.64,2.72c-0.88,0.19-1.77,0.37-2.65,0.56c-0.49,0.08-0.98,0.16-1.47,0.24c-0.38,0.03-0.75,0.05-1.13,0.08
	c0,0-0.02-0.01-0.02-0.01c-0.7-0.07-1.4-0.14-2.1-0.21C182.04,137.79,182,137.52,181.97,137.25z"/>
<path class="st3" d="M156.86,45.83c-1.34,1.7-2.68,3.39-4.02,5.09c-0.71,0.29-1.42,0.58-2.22,0.9c-0.01-0.43-0.02-0.76-0.02-1.1
	c1.31-2.01,2.62-4.02,3.93-6.03c0.48-0.28,0.96-0.57,1.44-0.85c0.81-0.71,1.63-1.41,2.44-2.12c0.18,0.12,0.36,0.23,0.54,0.35
	c-0.25,0.64-0.5,1.29-0.75,1.93C157.76,44.6,157.31,45.22,156.86,45.83z"/>
<path class="st2" d="M154.76,109.51c-0.78,0.18-1.27-0.14-1.19-0.93c0.11-1.15,0.54-2.36-1.22-2.61c0.02-1.83-2.38-3.12-1.08-5.47
	c0.9,0.97,1.9,1.54,3.14,0.89c0.13-0.03,0.26-0.05,0.39-0.05c0.33,1.24,0.51,2.6,2.41,2.79
	C154.89,105.52,154.02,107.66,154.76,109.51z"/>
<path class="st3" d="M178.58,175.35c0.35,0.66,0.71,1.31,1.06,1.97c-0.27,0.46-0.53,0.91-0.8,1.37c0.02,1.22,0.13,2.45,0.03,3.66
	c-0.11,1.28-0.38,2.55-0.68,3.8c-0.04,0.19-0.6,0.25-0.94,0.38c-1.21-1.48-2.14-2.72-0.57-4.65c0.72-0.89,0.52-2.53,0.74-3.84
	c0.17-1.02,0.35-2.03,0.53-3.05C178.7,174.21,178.32,175.31,178.58,175.35z"/>
<path class="st3" d="M129.2,138.86c1.35,2.14,1.31,4.03,0.08,6.35c-0.34,0.64-0.23,1.52-0.33,2.36c-0.44-0.12-0.91-0.25-1.5-0.42
	c0.2-1.02,0.4-2.02,0.66-3.35c-0.77,0.19-1.27,0.31-1.91,0.46c-0.66-0.69-0.96-1.64,0.09-2.09c1.51-0.65,1.82-2.02,2.48-3.21
	C128.93,138.98,129.07,138.95,129.2,138.86z"/>
<path class="st1" d="M116.67,43.68c0.33-0.16,0.67-0.32,1-0.48c0.37-0.05,0.73-0.1,1.1-0.15c1.83,0.1,1.15,1.94,2.2,2.97
	c-1.17,1.07-2.27,2.08-3.24,2.97c-2.7-0.7-1.46-2.64-1.81-3.99c0.26-0.46,0.51-0.92,0.77-1.38L116.67,43.68z"/>
<path class="st4" d="M141.45,145.34c-0.02,0.3-0.04,0.6-0.06,0.9c-0.15,0.06-0.27,0.15-0.37,0.28c-0.07-0.2-0.14-0.4-0.21-0.6
	c0.12-1.46-1.41-0.11-1.65-1c1.81-2.27,2.01-4.93,1.73-7.7l-0.01,0.02c1.15,0.67,2.28,0.92,3.36-0.14c0,0-0.09,0.01-0.09,0.01
	c0.03,0.19,0.06,0.38,0.1,0.57c-0.15,0.21-0.29,0.43-0.44,0.64c-0.67,1.05-0.14,1.14,0.75,0.93l-0.03-0.02
	c0.21,0.15,0.41,0.3,0.62,0.45c0.14,0.04,0.28,0.07,0.42,0.09c-0.87,0.85-1.75,1.7-2.62,2.55C141.2,142.71,141.27,144,141.45,145.34
	z M142.06,139.5l0.07-0.14l-0.12,0L142.06,139.5z"/>
<path class="st1" d="M173.98,78.8c-2.3-0.43-2.3-0.43-2.73-3.72c2.19,0.3,4.3,0.52,6.37,0.93c0.38,0.07,0.85,0.87,0.87,1.34
	c0.04,1.06-0.89,1.1-1.68,1.19C175.87,78.63,174.92,78.71,173.98,78.8z"/>
<path class="st3" d="M114.96,40.18c0.82-1.36,1.68-2.7,2.45-4.09c0.31-0.57,0.44-1.24,0.65-1.87c0.05-0.17,0.07-0.35,0.1-0.52
	c0.21,0.16,0.41,0.33,0.55,0.43c0.83-0.84,1.62-1.63,2.4-2.41c0.14,0.1,0.28,0.2,0.42,0.3c-0.09,0.48-0.18,0.96-0.27,1.43
	c-0.39,0.65-0.77,1.29-1.16,1.94c-1.05,1.44-2.09,2.89-3.14,4.33c-0.35,0.45-0.7,0.9-1.05,1.34c-0.18,0.03-0.35,0.06-0.53,0.1
	C115.24,40.84,115.1,40.51,114.96,40.18z"/>
<path class="st5" d="M150.73,91.82c-0.15-0.19-0.3-0.37-0.45-0.56c-0.05-0.42-0.28-1.12-0.13-1.22c1.72-1.1,2.88-2.99,4.98-3.54
	c0.33,0.05,0.67,0.11,0.99,0.16c0.26,1.54-1.25,1.26-1.65,1.77c-0.1,1.32-0.18,2.44-0.26,3.57c-1.01,0.3-2.03,0.6-3.01,0.89
	C151,92.43,150.87,92.13,150.73,91.82z"/>
<path class="st6" d="M72.12,136.6c0.2,1.42,0.41,2.83,0.61,4.25c-0.39-0.94-0.77-1.87-1.25-3.04c-0.43,0.38-0.91,0.62-1.07,1
	c-0.46,1.07-0.96,2.05-2.19,2.39c-0.14-0.34-0.27-0.67-0.41-1.01c-0.14-0.96-0.27-1.93-0.46-3.26c-0.54,0.26-1.13,0.45-1.61,0.8
	c-0.62,0.45-1.15,1.02-1.71,1.53c0-0.58-0.01-1.16-0.01-1.75c0.32-0.09,0.91-0.13,0.93-0.26c0.2-1.38,1.21-1.75,2.33-2.02
	c0.29,0.18,0.58,0.35,0.87,0.53c0.19,0.64,0.38,1.27,0.6,2.03c0.72-0.24,1.2-0.4,1.68-0.57C70.99,137.01,71.55,136.8,72.12,136.6z"
	/>
<path class="st1" d="M165.39,160.46c1,2.72,0.57,3.44-2.93,4.9c-1.66-2.56-1.1-4.19,2.14-6.28
	C164.87,159.54,165.13,160,165.39,160.46z"/>
<path class="st2" d="M155.16,168.39c0.41-0.19,1.4-0.65,2.83-1.32c-0.74,1.91-0.56,3.61-1.69,5.09c-0.47,0.62-0.26,1.76-0.37,2.74
	c-0.53-0.2-1.23-0.47-1.89-0.72C154.39,172.4,154.72,170.69,155.16,168.39z"/>
<path class="st3" d="M168.79,131.97c0.07,1.16-0.17,2.12-1.66,2.38c0.26,1.56,0.18,3-0.64,4.53c-0.54,1-0.05,2.56-0.02,3.86
	c-0.3-0.48-0.66-0.94-0.88-1.46c-0.2-0.47-0.25-1.01-0.36-1.51c-0.54-0.74,0.58-1.87-0.58-2.46c-0.11-0.33-0.21-0.66-0.32-0.99
	c0.15-0.28,0.3-0.56,0.44-0.83c0.01-0.56,0.01-1.12,0.02-1.67c0.35-0.08,0.69-0.16,1.04-0.24c1.01,0.06,1.59-0.5,1.96-1.36
	C168.13,132.13,168.46,132.05,168.79,131.97z"/>
<path class="st7" d="M122.31,134.17c1.6-0.37,3.19-0.84,4.82-1.08c1.15-0.16,2.5-0.34,3.49,0.11c1.13,0.51,2,0.27,2.99-0.01
	c-0.12,0.38-0.25,0.76-0.37,1.14c-2.61,1.35-2.9,2.1-1.6,4.48c-1.32-0.7-1.75-1.59-1.83-2.97c-0.14-2.48-0.79-2.79-3.16-1.92
	c-0.42,0.12-0.83,0.23-1.25,0.35c-0.98,0.11-1.97,0.23-2.95,0.34C122.4,134.47,122.36,134.32,122.31,134.17z"/>
<path class="st8" d="M187.59,150.3c-0.23-1.04-0.46-2.08-0.69-3.13c0.62-0.49,1.78-0.68,1.06-1.91c0.11,0.17,0.26,0.24,0.46,0.21
	l0.12,0.18c-0.12,0.89,0.5,1.07,1.1,0.92c0.66-0.16,1.64-0.2,1.33-1.38c0.48-0.09,0.96-0.19,1.44-0.28c0.2,0.28,0.45,0.53,0.6,0.83
	c0.63,1.28,0.49,1.87-0.86,2.1c-1.25,0.22-2.57,0.01-3.82-0.01C188.11,148.58,187.85,149.44,187.59,150.3z"/>
<path class="st9" d="M24.79,160.3c0.48,0,0.98,0.08,1.43-0.02c0.59-0.13,1.14-0.42,1.7-0.63c-0.7,2.13-0.71,2.05-2.75,2.27
	c-0.54,0.06-1.07,0.74-1.49,1.24c-0.7,0.82-1.3,1.73-1.9,2.54c-1.42-0.65-1.17-1.53-0.63-2.1C22.28,162.4,23.57,161.38,24.79,160.3z
	"/>
<path class="st2" d="M50.77,67.01c-0.02,0.52,0.14,1.15-0.1,1.53c-1.44,2.27-2.96,4.49-4.47,6.71c-0.47,0.69-1.03,1.25-1.95,0.63
	c-0.01-0.16-0.03-0.32-0.05-0.48c0.09-0.11,0.21-0.18,0.35-0.22c0.16-0.23,0.32-0.46,0.48-0.69c0.15-1.1,0.04-2.37,1.71-2.45
	c0.24-0.01,0.49-0.43,0.69-0.7C48.54,69.9,49.65,68.45,50.77,67.01z"/>
<path class="st1" d="M85.84,41.27c-0.46-0.48-1.15-0.86-1.19-1.3c-0.09-0.99-0.03-2.07,0.31-3c0.3-0.85,2.09-1.03,2.76-0.46
	c0.75,0.64,0.97,2.33,0.27,3.07C87.41,40.19,86.65,40.64,85.84,41.27z"/>
<path class="st3" d="M53.48,61.62c-0.3-0.18-0.74-0.29-0.88-0.56c-0.8-1.53-1.58-3.08-2.27-4.66c-0.18-0.41-0.06-0.96-0.09-1.75
	c1.47,0.72,2.19,1.68,2.42,2.88c0.3,1.59,1.13,2.04,2.86,1.3c-0.44,1.05-0.74,1.76-1.04,2.47C54.15,61.4,53.82,61.51,53.48,61.62z"
	/>
<path class="st3" d="M141.02,146.51c0.1-0.13,0.22-0.22,0.37-0.28c0.07,1.23,0.23,2.46,0.19,3.69c-0.1,3.09,0,3.3,3.04,4.1
	c0.01,0.98,0.03,2.02,0.04,3.06c-0.14,0.08-0.29,0.12-0.45,0.13c-0.46-0.48-0.92-0.96-1.37-1.44c-0.76-1.13-1.67-2.2-2.23-3.42
	c-0.31-0.68-0.05-1.62-0.04-2.44c0.09-0.24,0.18-0.47,0.27-0.71c-0.11-0.3-0.23-0.61-0.34-0.92
	C140.67,147.69,140.85,147.1,141.02,146.51z"/>
<path class="st6" d="M41.34,104.32c0.04,0.14,0.12,0.27,0.22,0.37c0.08,0.36,0.15,0.72,0.23,1.07c0,0-0.06,0.02-0.06,0.02
	c-0.37,0.26-0.73,0.53-1.1,0.79c-2.27,0.39-4.53,0.77-6.8,1.16c-0.11-0.46-0.22-0.92-0.33-1.38c1.12-0.08,2.24-0.15,3.36-0.23
	c2.02,0.62,2.02,0.62,2.94-1.55c0.1-1.62,0.32-3.29-1.7-4.28c0.81-0.11,1.61-0.22,2.42-0.34c0,0,0.26,0.03,0.26,0.03
	C40.19,101.53,40.14,103.01,41.34,104.32z"/>
<path class="st8" d="M32.58,152.73c-0.39-0.11-0.78-0.21-1.16-0.32c1.21-2.4,2.09-4.96,4.1-6.91c0.69-0.67,0.86-1.68,0.07-2.55
	c0.91-0.01,1.81-0.03,2.72-0.04c-0.11,0.32-0.13,0.78-0.35,0.95c-2.46,1.83-3.02,5.01-5.12,7.08
	C32.33,151.42,31.84,152.02,32.58,152.73z"/>
<path class="st2" d="M64.01,137.5c0,0.58,0.01,1.16,0.01,1.75c-0.05,0.66-0.08,1.32-0.15,1.97c-0.1,0.85-0.24,1.7-0.36,2.54
	c-0.22,0-0.43,0-0.65,0c-0.27-0.94-0.55-1.89-0.82-2.83c0,0,0.03,0.08,0.03,0.08c1.27-0.85,0.34-2.11,0.58-3.16
	c0.01-0.73,0.01-1.45,0.02-2.18c-0.38,0.02-0.75,0.04-1.13,0.06c0,0,0-0.23,0-0.23s-0.07-0.22-0.07-0.22
	c0.12-0.17,0.25-0.33,0.37-0.5c0,0,0.25,0.01,0.25,0.01c0.49,0.06,0.97,0.11,1.68,0.2C63.85,135.77,63.93,136.64,64.01,137.5z"/>
<path class="st10" d="M99.16,141.83c0.74,1.95-0.08,3.6-1.06,5.38c-0.99-0.28-2-0.39-1.92-1.88c0.02-0.49-0.29-0.99-0.44-1.49
	c0.42-0.34,0.82-0.7,1.25-1.02c0.38-0.29,0.78-0.54,1.17-0.81C98.49,141.95,98.83,141.89,99.16,141.83z"/>
<path class="st2" d="M39.25,89.88c0.81,2.03,2.27,3.92,1.26,6.31c-0.3-0.72-0.61-1.44-0.92-2.16c-0.34-0.77-0.68-1.55-1.02-2.32
	c0.06-1.38-1.06-1.6-1.98-2.06c-0.72-0.37-1.38-0.86-2.44-1.53c2.45-0.9,3.36,1.29,4.95,1.3C39.14,89.57,39.18,89.73,39.25,89.88z"
	/>
<path class="st6" d="M179.54,165.9c0.23,1.22,0.35,2.37-0.18,3.63c-0.46,1.1-0.41,2.41-0.59,3.62c-0.34,0.08-0.69,0.16-1.03,0.24
	c-0.48-1.26,0.7-2.88-0.87-3.9c1.12-1.15,0.66-2.58,0.67-3.92C178.21,165.69,178.87,165.8,179.54,165.9z"/>
<path class="st3" d="M43.9,109.2c0.6,0.47,1.24,0.91,1.78,1.43c0.82,0.79,1.52,1.71,2.37,2.46c1.51,1.32,1.61,3.22,2.16,4.93
	c0.02,0.07-0.39,0.29-0.6,0.44c-0.22-0.15-0.45-0.3-0.67-0.45c-0.33-0.82-0.65-1.64-0.98-2.46c0,0,0.05-0.03,0.05-0.03
	c0.61-0.44,0.54-0.82-0.11-1.13c-0.47-0.27-0.94-0.53-1.41-0.8c-0.21-0.16-0.42-0.32-0.63-0.47c0,0,0.01,0.01,0.01,0.01
	c-0.5-0.54-0.99-1.07-1.49-1.61C44.21,110.75,44.05,109.97,43.9,109.2z"/>
<path class="st1" d="M44.86,125.36c-0.44,0.95,0,2.73-2.1,2.17c-0.24-0.06-0.71,0.66-1.03,1.05c-0.56,0.69-1.09,1.41-1.9,1.97
	c0.62-1.54-0.67-3.54,1.26-4.65C42.34,125.72,43.6,125.54,44.86,125.36z"/>
<path class="st3" d="M138.56,132.71c2.08,0.71,4.15,1.42,6.23,2.12c-0.52,0.3-1.03,0.6-1.55,0.89c-1.8-0.43-3.54-1.47-5.49-0.62
	c-0.44-0.49-0.87-0.97-1.31-1.46c0.38-0.18,0.76-0.36,1.14-0.53C137.91,132.97,138.24,132.84,138.56,132.71z"/>
<path class="st9" d="M98.16,142.01c-0.39,0.27-0.8,0.52-1.17,0.81c-0.43,0.33-0.84,0.68-1.25,1.02c-0.45-0.63-0.91-1.27-1.6-2.23
	c-0.7,0.02-1.89,0.13-3.07,0.07c-0.5-0.03-0.99-0.43-1.48-0.67c0.69-0.15,1.45-0.55,2.07-0.39c2.18,0.56,4.19,0.01,6.21-0.65
	C97.69,140.68,97.06,141.47,98.16,142.01z"/>
<path class="st1" d="M136.84,135.82c0,1.93-1.55,2.45-2.89,3.38c-0.88-1.34-0.94-2.6-0.58-3.93c0.63-0.48,1.26-0.96,1.9-1.44
	c0.2-0.01,0.4-0.01,0.59-0.02C136.19,134.48,136.52,135.15,136.84,135.82z"/>
<path class="st3" d="M58.88,143.16c-0.98,1.17-1.96,2.34-2.93,3.51c-0.15-0.09-0.31-0.18-0.46-0.27c0.14-1.25,0.28-2.49,0.44-3.92
	c1.07-0.43,2.21-0.89,3.36-1.35c0.06,0.36,0.11,0.73,0.17,1.09l0.02-0.03C59.28,142.51,59.08,142.84,58.88,143.16z"/>
<path class="st1" d="M151.87,181.37c-0.61,0.3-1.22,0.61-1.67,0.83c-1.28-0.46-2.46-0.88-3.99-1.43c0.24-0.34,0.45-0.98,0.8-1.06
	c1.45-0.36,2.94-0.54,4.42-0.79C151.58,179.73,151.72,180.55,151.87,181.37z"/>
<path class="st1" d="M47.31,118.29c-1.13,1.52-2.79,1.8-4.51,1.96c-1.05,0.21-2.11,0.43-3.16,0.64c-0.35,0.13-0.7,0.27-1.05,0.4
	c0.28-0.62,0.56-1.23,0.84-1.85c0.26-0.15,0.51-0.31,0.77-0.46c0.46-0.07,0.92-0.14,1.38-0.21c0.27-0.04,0.55-0.09,0.83-0.13
	c0.53-0.25,1.07-0.5,1.6-0.75c0,0,0,0,0,0c0.66-0.11,1.32-0.21,1.98-0.32C46.62,117.46,47.18,117.47,47.31,118.29z"/>
<path class="st3" d="M126.45,29.27c-0.06-3.04,0.69-7.05,1.51-8.49c0.35,0.39,0.99,0.86,0.91,1.07
	C128.06,24.13,128.21,26.76,126.45,29.27z"/>
<path class="st6" d="M53.51,119.39c0.15-0.09,0.32-0.11,0.49-0.09c0.33,0.64,0.67,1.29,1,1.93c-0.43,1.29-1.38,1.44-2.22,1.11
	c-1.25,1.38-2.34,2.57-3.42,3.77l0.02,0.01c0.06-0.33,0-0.77,0.19-0.98c1.03-1.14,0.75-2.27,0.08-3.43c0,0-0.01,0.01-0.01,0.01
	C51.33,121.62,52.89,121.28,53.51,119.39z"/>
<path class="st1" d="M115.05,20.99c0.75-2.93,0.75-2.93,2.57-3.98c0.2,1.04,0.38,2.03,0.61,3.22c-0.65,0.73-1.39,1.56-2.14,2.4
	C115.74,22.09,115.4,21.54,115.05,20.99z"/>
<path class="st9" d="M94.67,53.75c-1.74-0.03-3.48-0.09-5.21-0.08c-0.46,0-0.91,0.31-1.37,0.38c-0.54,0.08-1.09,0.06-1.63,0.09
	c0.6-0.4,1.17-0.89,1.82-1.18c0.89-0.4,1.84-0.66,3.1-1.09C92.15,52.5,93.95,52.12,94.67,53.75z"/>
<path class="st3" d="M124.99,154.35c-1.22-0.24-2.44-0.48-3.66-0.73c0.32-1.25,0.32-1.25,4.56-2.28c0.17,0.71,0.35,1.43,0.52,2.15
	C125.94,153.79,125.47,154.07,124.99,154.35z"/>
<path class="st1" d="M116.5,143.45c1.27-0.39,1.96-0.61,2.87-0.89c0.02-0.14,0.1-0.63,0.32-2.03c0.82,0.9,1.38,1.45,1.86,2.07
	c0.67,0.87,0.3,1.63-0.37,2.32c-0.64,0.66-1.19,0.84-1.97,0.09C118.64,144.47,117.82,144.19,116.5,143.45z"/>
<path class="st2" d="M14.15,144.74c0.9,0.92,1.42-0.57,2.21-0.35c0.61,1.29-0.36,2.15-1.2,2.07c-1.38-0.12-1.6,0.63-2.05,1.51
	c-0.37,0.72-0.98,1.32-1.65,2.19C11.05,148.24,11.05,148.24,14.15,144.74z"/>
<path class="st3" d="M147.26,55.15c-0.03-0.17,0-0.43-0.09-0.49c-0.78-0.49-1.91-0.75-1.4-2.06c0.47-1.21,2.44-1.92,3.88-1.5
	c-0.43,0.76-0.86,1.53-1.29,2.29c-0.07,0.22-0.15,0.43-0.22,0.65c0,0-0.02-0.02-0.02-0.02c-0.29,0.36-0.58,0.71-0.87,1.07
	C147.25,55.09,147.26,55.15,147.26,55.15z"/>
<path class="st2" d="M135.84,145.22c0.42-0.06,0.84-0.12,1.35-0.19c-0.03-1.01-0.18-1.97-0.02-2.88c0.08-0.41,0.79-0.71,1.22-1.06
	c0.13,0.52,0.42,1.06,0.36,1.54c-0.13,0.93-0.47,1.82-0.72,2.73c-0.1,0.56-0.2,1.12-0.3,1.68c-0.15,0.05-0.28,0.12-0.4,0.22
	c-0.12,0.18-0.24,0.36-0.37,0.54c0.1,0.7,0.21,1.41,0.31,2.11c-0.35,0.05-0.7,0.1-1.04,0.15c-0.08-0.14-0.1-0.3-0.08-0.46
	C137.11,148.06,135.52,146.71,135.84,145.22z"/>
<path class="st2" d="M143.66,79.52c-0.19-1.3,0.21-2.36,1.52-2.69c1.55-0.39,3.16-0.57,4.75-0.84c-1,0.79-2.01,1.59-2.77,2.19
	C145.83,78.69,144.75,79.1,143.66,79.52z"/>
<path class="st1" d="M38.31,142.9c-0.91,0.01-1.81,0.03-2.72,0.04c0,0,0,0,0,0c-0.08-0.39-0.16-0.78-0.24-1.16
	c0.22-1.74,1.12-2.73,3.01-2.74C39.45,140.37,39.22,141.64,38.31,142.9z"/>
<path class="st5" d="M53.45,63.78c-0.46,0.49-0.91,0.97-1.37,1.46c-0.19-0.01-0.38-0.02-0.58-0.03c-1.15-2.42-2.31-4.84-3.45-7.26
	c-0.05-0.11,0.1-0.32,0.21-0.64c1.16,0.37,1.45,1.28,1.65,2.31c0.37,1.92,1.37,3.19,3.49,3.26C53.42,63.18,53.43,63.48,53.45,63.78z
	"/>
<path class="st1" d="M139.37,62.79c-0.2-1.06,0.57-1.19,1.31-1.36c0.33,0.67,0.67,1.35,1,2.02c-0.33,1.15,0.3,2.57-0.98,3.45
	c-0.36,0.07-0.72,0.14-1.09,0.2c-0.81-1.13-1.02-2.28-0.26-3.54C139.47,63.38,139.37,63.06,139.37,62.79z"/>
<path class="st3" d="M147.9,68.31c-0.96,1.2-1.93,2.4-2.85,3.54c-0.84-0.37-1.56-0.61-2.19-1c-0.27-0.17-0.36-0.65-0.52-0.98
	c0,0-0.01-0.22-0.01-0.22l-0.05-0.22c0.49-0.17,0.99-0.33,1.48-0.5c0.2,0,0.41,0,0.61,0c1.16-0.37,2.32-0.74,3.48-1.11
	C147.87,67.99,147.89,68.15,147.9,68.31z"/>
<path class="st1" d="M25.04,127.85c-0.74,0.59-1.49,1.18-2.25,1.78c-1.36-0.91-1.14-1.95-0.61-2.9c0.55-1,1.39-1.64,2.62-0.91
	c0.13,0.21,0.26,0.41,0.39,0.62c0.01,0.28,0.01,0.56,0.02,0.84C25.15,127.47,25.09,127.66,25.04,127.85z"/>
<path class="st3" d="M52.67,127.69c0.03-4,0.7-4.7,3.51-3.64C55.63,125.86,54.47,127.02,52.67,127.69z"/>
<path class="st6" d="M107.37,144.63c0.1,0.77,0.2,1.53,0.3,2.3c0.25,0.67,0.5,1.33,0.76,2c-0.92,0.6-1.82,0.48-2.72-0.05
	c-1.39-0.83-1.51-1.41-0.17-2.44c0.7-0.54,0.58-1.9,1.85-1.79L107.37,144.63z"/>
<path class="st1" d="M35.02,93.85c-1.17,0.04-2.34,0.08-3.7,0.12c-0.15-0.81-0.31-1.64-0.47-2.48l-0.02,0.02
	c0.74-0.2,1.47-0.4,2.54-0.7c0.44,0.76,1,1.72,1.56,2.69C34.9,93.64,34.93,93.75,35.02,93.85z"/>
<path class="st3" d="M115.2,163.21c-1.97-2.75-2.14-3.27-1.9-5.96c0.81-0.37,1.36-0.13,1.54,0.75c0.34,1.68,0.64,3.37,0.96,5.05
	C115.6,163.11,115.4,163.16,115.2,163.21z"/>
<path class="st2" d="M164.41,152.44c0.35,0.77,0.69,1.54,1.04,2.32c1.08,1.08,2.02,2.35,2.44,4c-0.37-0.1-0.75-0.2-1.13-0.3
	c-0.75-0.26-1.51-0.52-2.26-0.79C163.4,155.95,164.16,154.19,164.41,152.44z"/>
<path class="st2" d="M155.14,86.5c-2.1,0.55-3.26,2.45-4.98,3.54c-0.15,0.1,0.08,0.8,0.13,1.22c-0.34-0.63-0.68-1.25-1.02-1.88
	c1.51-1.46,3.02-2.93,4.53-4.39c0.46,0.32,0.92,0.65,1.37,0.97C155.15,86.15,155.15,86.33,155.14,86.5z"/>
<path class="st9" d="M141.68,63.45c-0.33-0.67-0.67-1.35-1-2.02c0.21-0.22,0.42-0.44,0.62-0.66c0.42-0.12,0.95-0.13,1.24-0.39
	c1.17-1.05,2.26-2.19,3.38-3.3c0,0,0.12,0.14,0.12,0.14l0.16-0.09C144.7,59.25,143.19,61.35,141.68,63.45z"/>
<path class="st6" d="M188.42,145.47c-0.2,0.04-0.35-0.03-0.46-0.21c-0.78,0.15-1.56,0.3-2.34,0.45c0.02-0.67,0.04-1.34,0.07-2.09
	c-1-0.27-1.89-0.52-2.77-0.76c0.61-0.33,1.21-0.7,1.84-0.99c0.72-0.33,1.46-0.61,2.77-1.14c-0.41,1.53-0.66,2.42-0.9,3.33
	c0.48,0.23,1,0.48,1.51,0.73C188.23,145.02,188.32,145.24,188.42,145.47z"/>
<path class="st2" d="M79.29,154.22c0.17-2.09-0.42-4.32,1.04-6.48c0.78,0.84,0.66,1.56,0.57,2.34c-0.14,1.13-0.15,2.28-0.21,3.42
	C80.21,153.73,79.75,153.98,79.29,154.22z"/>
<path class="st1" d="M29.95,106.91c-0.26,0.94-0.85,1.37-1.86,1.5c-1.01,0.13-1.99,0.55-2.99,0.84c-0.65,0.18-1.3,0.36-1.93,0.54
	c0.33-0.64,0.64-1.23,0.95-1.82c0.27-0.17,0.61-0.54,0.81-0.48c1.5,0.51,2.57-0.3,3.67-1.08C29.05,106.58,29.5,106.75,29.95,106.91z
	"/>
<path class="st3" d="M123.04,62.9c-0.98,1.36-1.57,1.42-2.69,0.24c0.55-0.57,1.09-1.13,1.54-1.6c-0.16-0.84-0.56-1.71-0.37-2.42
	c0.12-0.48,1.08-0.74,1.66-1.1c0.12,0.26,0.25,0.52,0.37,0.78c-0.44,0.59-0.92,1.16-1.3,1.8c-0.17,0.28-0.13,0.69-0.18,1.04
	c0.29,0.14,0.57,0.28,0.86,0.41c0,0,0,0,0,0C122.96,62.33,123,62.61,123.04,62.9z"/>
<path class="st9" d="M30.4,79.1c-0.82,0.59-1.31,0.94-1.93,1.39c-1.11-0.58-2.24-1.73-3.71-0.62c-0.04,0.03-0.61-0.48-0.74-0.82
	c-0.06-0.15,0.36-0.69,0.57-0.69c1.44-0.02,2.87,0.03,4.31,0.13C29.29,78.51,29.67,78.79,30.4,79.1z"/>
<path class="st1" d="M169.47,103.41c1.3,0.2,2.52,0.52,3.18,2.08c-2.01,0.87-3.32-0.31-4.68-1.26
	C168.47,103.96,168.97,103.69,169.47,103.41z"/>
<path class="st5" d="M105.06,57.92c-1.78-1.47-1.82-1.96-0.32-3.39c0.25-0.24,0.51-0.47,0.76-0.7c0.22,0.16,0.43,0.32,0.65,0.48
	c0.4,0.92,1.05,0.75,1.75,0.41c-0.23,0.56-0.46,1.12-0.68,1.67C105.75,55.84,105.84,57.49,105.06,57.92z"/>
<path class="st2" d="M190.96,72.49c0.91,0.1,1.83,0.2,2.74,0.31c-0.01,0.2-0.01,0.39-0.02,0.59c-1.87,0.58-3.8,0.6-6.17,0.29
	c0.74-0.48,1.2-0.78,1.66-1.07C189.77,72.56,190.37,72.53,190.96,72.49z"/>
<path class="st1" d="M82.76,18.48c-0.99-2.71-0.82-3.67,0.96-5.16C84.39,15.27,84.51,16.97,82.76,18.48z"/>
<path class="st1" d="M123.03,54.48c0.12,0.44,0.23,0.88,0.35,1.31c-0.17,0.1-0.35,0.21-0.52,0.31c-1.13-0.11-2.26-0.21-3.39-0.32
	c-0.08-0.21-0.15-0.41-0.23-0.62c0.46-0.53,0.93-1.07,1.39-1.6C121.43,53.87,122.23,54.18,123.03,54.48z"/>
<path class="st2" d="M148.34,64.58c-1.91,2.24-2.5,2.55-5.33,2.81c0.44-0.5,0.68-0.86,1-1.12c0.57-0.47,1.31-0.77,1.75-1.33
	C146.49,64,147.19,63.78,148.34,64.58z"/>
<path class="st9" d="M61.11,121.69c1.92,0.38,2.56,1.64,2.34,2.98c1.2,1.24,2.14,2.2,3.07,3.17c-0.19,0.05-0.39,0.1-0.58,0.15
	c-0.27-0.02-0.55-0.05-0.82-0.07c-0.56-0.31-1.12-0.62-1.68-0.92c-0.04-0.13-0.13-0.22-0.25-0.27c-0.15-0.51-0.29-1.01-0.44-1.52
	c0.49-1.93-0.83-2.66-2.21-3.36C60.73,121.79,60.92,121.74,61.11,121.69z"/>
<path class="st8" d="M111.42,46.84c-1.15,2.16-3.12,3.91-3.25,6.57c-0.31-0.68-0.62-1.36-0.93-2.04l-0.04-0.18l-0.02-0.18
	c-0.05-0.23-0.11-0.45-0.16-0.68l-0.01,0.03c0.51-0.34,1.1-0.6,1.5-1.03c0.93-1.02,1.77-2.12,2.64-3.18
	C111.24,46.38,111.33,46.61,111.42,46.84z"/>
<path class="st7" d="M60.4,129.52c-0.43,0.5-0.88,0.98-1.29,1.49c-0.47,0.57-0.92,1.16-1.38,1.75c-0.28-0.34-0.55-0.67-0.83-1.01
	c0.05-0.33,0.27-0.8,0.13-0.98c-0.63-0.77-0.24-1.29,0.31-1.81c0.69-0.16,1.38-0.32,2.07-0.48
	C59.74,128.82,60.07,129.17,60.4,129.52z"/>
<path class="st9" d="M184.7,82.44c-0.81,1.99-2.02,2.51-4.82,2.25C180.78,82.29,183.34,83.68,184.7,82.44z"/>
<path class="st5" d="M83.21,143.14c0.52,0,1.04,0.01,1.56,0.01c-0.18,1.21-0.32,2.43-0.55,3.63c-0.15,0.77,0,1.86-1.74,1.76
	C82.74,146.68,82.97,144.91,83.21,143.14z"/>
<path class="st2" d="M188.42,145.47c-0.09-0.23-0.19-0.45-0.28-0.68c1.37-1.51,3.24-1.37,5.01-1.44c0.26-0.01,0.54,0.54,0.82,0.84
	c-0.31,0.21-0.63,0.41-0.94,0.62c-0.07-0.05-0.16-0.16-0.19-0.15c-0.13,0.06-0.24,0.16-0.36,0.24c0,0-0.05,0.02-0.05,0.02
	c-0.48,0.09-0.96,0.19-1.44,0.28c-0.81,0.15-1.62,0.3-2.43,0.46C188.54,145.65,188.42,145.47,188.42,145.47z"/>
<path class="st11" d="M35.02,93.85c-0.09-0.1-0.12-0.22-0.08-0.35c0.68-0.35,1.35-0.7,2.03-1.04c0.53-0.26,1.07-0.51,1.6-0.76
	c0.34,0.77,0.68,1.55,1.02,2.32c-0.8,0.29-1.61,0.57-2.53,0.9C36.47,94.61,35.74,94.23,35.02,93.85z"/>
<path class="st5" d="M153.56,128.88c0.26-0.43,0.51-0.86,0.77-1.29c1.56-0.96,3.18-1.18,4.82-0.27c0.3,0.17,0.45,0.6,1.04,1.46
	C157.57,127.91,155.56,128.34,153.56,128.88z"/>
<path class="st1" d="M38.95,111.18c-1.07,1.37-1.87,2.41-2.89,3.71C35.6,111.17,35.94,110.69,38.95,111.18z"/>
<path class="st7" d="M150.73,91.82c0.13,0.3,0.27,0.61,0.47,1.06c0.98-0.29,2-0.59,3.01-0.89c0.23,0.22,0.45,0.44,0.83,0.81
	c-1.71,0.4-2.93,1.12-3.51,2.61c-0.47-0.71-1.07-1.36-1.35-2.14C150.05,92.91,150.53,92.32,150.73,91.82z"/>
<path class="st4" d="M111.86,139.43c0.26-0.17,0.52-0.34,0.78-0.5c0.21,0.04,0.42,0.09,0.63,0.13c0.17,0.4,0.34,0.81,0.51,1.21
	c0,0-0.01-0.09-0.01-0.09c-0.59,1.11-1.17,2.22-1.92,3.62c-0.7-0.86-1.29-1.58-1.88-2.29C110.94,141.13,112.15,140.96,111.86,139.43
	z"/>
<path class="st2" d="M32.68,78.08c2.06-0.51,3.16,1.2,4.83,2.01c-1.15,1.35-1.99,0.19-2.72-0.23c-0.78-0.45-1.39-1.21-2.08-1.84
	C32.71,78.02,32.68,78.08,32.68,78.08z"/>
<path class="st3" d="M163.43,113.53c1.71-0.35,2.9,0.04,4.17,1.38C165.19,116.06,164.96,115.98,163.43,113.53z"/>
<path class="st8" d="M28.67,125.84c0.24-0.53,0.5-1.06,0.73-1.59c0.25-0.59,0.47-1.19,0.71-1.78c0.21,0.03,0.42,0.07,0.62,0.1
	c0.03,0.67,0.05,1.33,0.08,2c0.34,0.08,0.72,0.17,1.09,0.26c0.04,0.17,0.08,0.34,0.12,0.51c-0.91,0.41-1.82,0.82-2.74,1.23
	C29.08,126.33,28.88,126.08,28.67,125.84z"/>
<path class="st3" d="M149.95,55.37c-0.98-0.29-0.57-0.94-0.39-1.52c1.18-0.82,2.37-1.64,3.55-2.46c0.16,0.23,0.51,0.62,0.46,0.68
	c-0.83,1.04-1.71,2.05-2.58,3.06C150.65,55.21,150.3,55.29,149.95,55.37z"/>
<path class="st2" d="M168.26,94.89c-0.56-0.01-1.12-0.03-1.68-0.04c0-0.2,0-0.4,0-0.61c1.71-0.48,3.41-0.95,5.12-1.43
	c0.8,0.19,1.6,0.38,2.4,0.56c-0.51,0.27-1.03,0.53-1.54,0.8c-0.92,0.04-1.85,0.09-2.77,0.13c-0.32,0.02-0.65,0.05-0.97,0.07
	C168.63,94.55,168.44,94.72,168.26,94.89z"/>
<path class="st2" d="M75.88,149.03c0.7,2.15-1.1,3.12-1.92,4.77C73.52,151.71,74.08,150.38,75.88,149.03z"/>
<path class="st1" d="M40.37,149.74c-0.53-2.39-0.45-2.47,2.47-2.47C42.91,148.89,42.05,149.55,40.37,149.74z"/>
<path class="st8" d="M61.54,61.21c-0.65-0.41-1.3-0.82-1.94-1.23c0.84-1.56,0.13-3.02-0.3-4.5c-0.15-0.85-0.3-1.7-0.45-2.55
	c0.23-0.05,0.46-0.09,0.69-0.14c0.16,0.46,0.32,0.91,0.48,1.37c0.13,0.22,0.26,0.43,0.4,0.65c0.12,1.04,0.19,2.09,0.37,3.12
	C60.98,59.04,61.28,60.12,61.54,61.21z"/>
<path class="st3" d="M81.02,158.3c0.03-0.9,0.06-1.8,0.09-2.7c0.09-0.52,0.18-1.04,0.27-1.56c0.31-0.09,0.63-0.18,1.04-0.3
	c0.54,2.18-0.17,4.09-0.59,6.03C81.56,159.28,81.29,158.79,81.02,158.3z"/>
<path class="st4" d="M163.04,158.1c-1.99,0.56-2.27,3.5-5,3.55C158.84,158.9,161.01,158.6,163.04,158.1z"/>
<path class="st7" d="M65.94,127.99c0.19-0.05,0.39-0.1,0.58-0.15c0.27,0.63,0.65,1.23,0.77,1.88c0.23,1.26,0.31,2.56,0.45,3.84
	c-0.14,0.05-0.28,0.1-0.43,0.13c-1.55-0.96-1.86-2.34-1.1-3.88C66.61,129.02,66.44,128.54,65.94,127.99z"/>
<path class="st4" d="M15.79,115.21c-0.08,1.05-0.13,2.11-1.5,2.57c-0.12-0.4-0.23-0.77-0.38-1.25c-0.63,0.15-1.26,0.3-2.35,0.57
	c1.1-1.44,2.19-2.05,3.4-2.51C15.24,114.79,15.52,115,15.79,115.21z"/>
<path class="st6" d="M142.28,69.43l0.05,0.22c0,0,0.01,0.22,0.01,0.22c-0.25,0.06-0.66,0.24-0.72,0.16
	c-0.89-1.22-2.14-0.62-3.25-0.7c0.41-0.74,0.83-1.48,1.24-2.22c0.36-0.07,0.72-0.14,1.09-0.2
	C141.23,67.75,141.75,68.59,142.28,69.43z"/>
<path class="st8" d="M47.31,118.29c-0.13-0.82-0.69-0.83-1.32-0.72c-0.66,0.11-1.32,0.21-1.98,0.32c0.55-0.66,1.09-1.32,1.77-2.13
	c0.21,0.18,0.62,0.52,1.14,0.95c0.3-0.33,0.67-0.74,1.04-1.16c0.33,0.82,0.65,1.64,0.98,2.46C48.39,118.1,47.85,118.2,47.31,118.29z
	"/>
<path class="st9" d="M108.43,148.93c-0.25-0.67-0.5-1.33-0.76-2c1.64,1.07,3.18,2.22,3.14,4.61
	C110.02,150.67,109.22,149.8,108.43,148.93z"/>
<path class="st3" d="M112.77,43.24c-0.55-0.02-1.1-0.03-1.64-0.05c0.13-0.6,0.15-1.27,0.44-1.79c0.22-0.4,0.78-0.62,1.19-0.92
	c1.34-0.21,1.24,0.84,1.44,1.64C113.72,42.49,113.24,42.86,112.77,43.24z"/>
<path class="st5" d="M60.4,129.52c-0.33-0.35-0.66-0.69-0.98-1.04c0.05-0.14,0.1-0.29,0.15-0.43c0.3-0.32,0.59-0.65,0.89-0.97
	c0.27-0.72,0.54-1.43,0.81-2.15c0.5,0.09,0.99,0.19,1.49,0.28c0.15,0.51,0.29,1.01,0.44,1.52C62.26,127.65,61.33,128.59,60.4,129.52
	z"/>
<path class="st3" d="M184.74,158.91c0.1,0.13,0.21,0.36,0.31,0.36c0.7,0.03,1.57-0.91,2.05,0.26c0.4,0.97,0.27,1.9-0.93,2.51
	c-0.89-0.48-1.09-1.22-1.01-2.18C185.2,159.56,184.89,159.23,184.74,158.91C184.74,158.91,184.74,158.91,184.74,158.91z"/>
<path class="st8" d="M44.19,75.4c0.03,0.16,0.04,0.32,0.05,0.48c-0.16,0.18-0.31,0.37-0.47,0.55c-0.77,0.15-1.59,0.24-1.35,1.38
	c-0.14,0.21-0.27,0.41-0.41,0.62c-0.11-0.07-0.22-0.15-0.32-0.22c0,0.13-0.01,0.25-0.01,0.38c0.04,0.34,0.09,0.67,0.13,1.01
	c-0.19,0.04-0.37,0.08-0.56,0.12c-0.26-1.03-0.52-2.06-0.77-3.09c0.34-0.49,0.68-0.97,1.01-1.46C42.38,75.24,43.29,75.32,44.19,75.4
	z"/>
<path class="st5" d="M98.16,142.01c-1.1-0.54-0.46-1.33-0.29-2.05c0.29-0.14,0.58-0.28,0.87-0.43c0.72-0.09,1.43-0.18,2.15-0.27
	l0.13,0.19c-0.57,0.83-0.17,2.42-1.86,2.37C98.83,141.89,98.49,141.95,98.16,142.01z"/>
<path class="st3" d="M91.44,45.66c0.01,0.3,0.16,0.79,0.02,0.89c-1.11,0.81-2.23,0.96-3.18-0.28c0.1-0.23,0.2-0.46,0.3-0.7
	c0,0,0.02-0.03,0.02-0.03c0.16-0.19,0.32-0.39,0.48-0.58c0,0,0,0,0,0C89.86,45.19,90.65,45.43,91.44,45.66z"/>
<path class="st6" d="M38.59,121.29c0.35-0.13,0.7-0.27,1.05-0.4c0.12,0.62,0.25,1.24,0.37,1.86c-0.9,0.8-1.79,1.61-2.69,2.41
	c-0.14-0.04-0.21-0.13-0.2-0.28c0.52-0.92,1.26-1.81,0.47-2.94C37.92,121.72,38.26,121.5,38.59,121.29z"/>
<path class="st5" d="M164.64,137.31c1.16,0.6,0.04,1.72,0.58,2.46c-0.85,0.1-1.71,0.2-2.72,0.32c0.09-0.95,0.18-1.82,0.27-2.68
	C163.39,137.37,164.02,137.34,164.64,137.31z"/>
<path class="st7" d="M24.12,107.98c-0.31,0.59-0.62,1.19-0.95,1.82c0.64-0.18,1.29-0.36,1.93-0.54c-0.16,0.42-0.23,1.14-0.5,1.22
	c-0.81,0.24-1.7,0.25-2.75,0.36C22.09,109.36,22.7,108.36,24.12,107.98z"/>
<path class="st9" d="M86.6,160.08c0.78,1.89-0.73,2.96-1.62,4.25c-0.31-1.65,0.42-2.96,1.47-4.16
	C86.45,160.17,86.6,160.08,86.6,160.08z"/>
<path class="st11" d="M152.46,119.87c-0.07-1.21,0.2-2.54-1.18-3.27c0.23-0.2,0.47-0.39,0.7-0.59c2.28,0.25,2.59,0.83,1.42,2.66
	C153.12,119.1,152.77,119.47,152.46,119.87z"/>
<path class="st2" d="M92.41,19.26c-0.22-1.2-0.36-2.37,0.78-3.53c1.09,1.8,0.26,3.43,0.03,5.04C92.96,20.26,92.69,19.76,92.41,19.26
	z"/>
<path class="st2" d="M161.9,95.36c-0.54,0.4-1.08,0.79-1.61,1.19c-0.46,0.34-0.92,0.67-1.44,1.05
	C158.78,94.96,158.86,94.89,161.9,95.36z"/>
<path class="st2" d="M20.96,82.4c1.24,0.51,2.49,1.03,3.73,1.54c-0.07,0.18-0.15,0.36-0.22,0.55c-1.82,0.06-3.37-0.7-4.84-1.75
	C20.08,82.63,20.52,82.51,20.96,82.4z"/>
<path class="st5" d="M142.84,155.78c0.46,0.48,0.92,0.96,1.37,1.44c-0.11,0.38-0.21,0.76-0.32,1.14c-0.8,1.01-1.6,2.01-2.53,3.18
	c-0.39-1.07,0.2-1.76,0.5-2.53C142.27,157.96,142.52,156.86,142.84,155.78z"/>
<path class="st8" d="M111.86,139.43c0.29,1.52-0.92,1.7-1.89,2.08c-0.4-0.29-0.81-0.58-1.21-0.87c-0.04-0.4-0.09-0.8-0.13-1.21
	C109.71,139.44,110.78,139.44,111.86,139.43z"/>
<path class="st11" d="M163.8,49.63c0.35,0.96,0.52,1.42,0.8,2.18c-2.03-0.43-1.27,2.54-3.58,2.26
	C161.92,52.63,162.7,51.39,163.8,49.63z"/>
<path class="st2" d="M104.77,46.98c-1.58,1.59-1.62,1.59-2.76,0.02c0.44-0.22,1.12-0.34,1.27-0.69c0.21-0.48,0.02-1.13,0.46-1.91
	c0.29,0.5,0.58,0.99,0.87,1.49C104.66,46.25,104.72,46.62,104.77,46.98z"/>
<path class="st9" d="M42.2,159.85c0.53-1.08,1.07-2.16,1.63-3.3C45.22,157.86,44.78,158.85,42.2,159.85z"/>
<path class="st9" d="M132.85,164.12c1.74-0.56,2.46,0.66,3.93,1.37c-1.06,0.36-1.66,0.57-2.36,0.81
	C133.89,165.55,133.41,164.89,132.85,164.12z"/>
<path class="st8" d="M15.79,115.21c-0.27-0.21-0.55-0.42-0.82-0.63c0.26-0.89,0.52-1.77,0.79-2.66c0.02-0.05,0.14-0.07,0.35-0.17
	c0.43,0.73,0.86,1.48,1.41,2.41C16.94,114.51,16.37,114.86,15.79,115.21z"/>
<path class="st4" d="M93.8,40.82c0.21,2.09,0.21,2.09-2.27,2.6c0,0-0.01-0.19-0.01-0.19c-0.09-0.18-0.18-0.36-0.27-0.54
	c-0.09,0.1-0.18,0.2-0.27,0.3c-0.22,0.03-0.43,0.06-0.65,0.09c0.11-0.57,0.22-1.15,0.37-1.91c1.29,1.24,2.08-0.27,3.13-0.34
	C93.82,40.84,93.8,40.82,93.8,40.82z"/>
<path class="st8" d="M179.54,165.9c-0.66-0.11-1.33-0.21-1.99-0.32c-0.02-0.67-0.04-1.34-0.07-2.01c1.35,0.05,2.78,0.36,3.56-1.23
	c0.23,1.03-0.11,1.75-1.12,2.13c-0.12,0.15-0.25,0.3-0.37,0.46C179.54,165.25,179.54,165.58,179.54,165.9z"/>
<path class="st4" d="M158.57,156.2c0.68-1.23,1.37-2.45,2.05-3.68c0.02,0.09,0.06,0.18,0.04,0.26c-0.23,1.02,1.59,1.83,0.47,2.78
	C160.53,156.07,159.44,156.01,158.57,156.2z"/>
<path class="st3" d="M95.04,26.14c-0.17,1.24-0.35,2.48-0.57,4.07c-1.66-1.72-0.75-2.92-0.02-4.13
	C94.65,26.1,94.84,26.12,95.04,26.14z"/>
<path class="st10" d="M42.5,115.46c-1.1,2.32-1.64,2.45-3.32,0.53c1.11-0.41,2.13-0.79,3.14-1.17
	C42.38,115.04,42.44,115.25,42.5,115.46z"/>
<path class="st10" d="M153.12,51.39c-1.18,0.82-2.37,1.64-3.55,2.46c-0.4-0.15-0.81-0.3-1.21-0.46c0.43-0.76,0.86-1.53,1.29-2.29
	c0.32-0.13,0.63-0.25,0.95-0.38c0.01,0.34,0.01,0.67,0.02,1.1c0.79-0.32,1.51-0.61,2.22-0.9C152.93,51.08,153.03,51.23,153.12,51.39
	z"/>
<path class="st9" d="M93.43,152.71c0.51-1.69,0.61-3.05,2.24-3.67C96.06,150.84,95.18,151.76,93.43,152.71z"/>
<path class="st8" d="M49.83,163.16c0.04-0.42-0.09-0.98,0.14-1.22c0.81-0.87,1.74-1.63,3.03-2.8c-0.4,2.4-1.62,3.35-3.2,3.99
	C49.8,163.13,49.83,163.16,49.83,163.16z"/>
<path class="st7" d="M128.11,63.4c-0.23,1.06-1.04,1.09-1.86,1c-1.2-0.13-2.19-0.64-2.78-1.76c0.98,0.24,1.95,0.47,3.44,0.84
	c-0.01,0,0.55-0.24,1.1-0.48C128.04,63.13,128.07,63.27,128.11,63.4z"/>
<path class="st2" d="M150.52,75.6c-0.56-1.71,1.11-2.48,1.56-3.77c0.96,0.81,1.08,1.67,0.1,2.53
	C151.66,74.81,151.07,75.19,150.52,75.6z"/>
<path class="st5" d="M38.03,74.85c-0.93,0.05-1.23-0.49-1.27-1.31c-0.04-0.83-0.11-1.66-0.17-2.48c1.55,0.48,1.92,1.05,1.95,2.99
	C38.37,74.31,38.2,74.58,38.03,74.85z"/>
<path class="st3" d="M158.78,73.17c-0.84,0.61-1.71,1.25-2.89,2.11c-0.11-1.55-0.14-2.4,1.24-2.87
	C158.01,72.11,158.4,72.16,158.78,73.17z"/>
<path class="st11" d="M126.24,48.44c0.56,0.96,1.12,1.92,1.69,2.89c-0.34-0.4-0.67-0.79-1.16-1.37c-0.28,0.59-0.51,1.07-1,2.11
	c-0.51-0.33-0.95-0.62-1.4-0.91c0.15-0.17,0.3-0.34,0.44-0.52C125.29,49.92,125.76,49.18,126.24,48.44z"/>
<path class="st3" d="M55.23,156.39c0.5-1.15,0.88-2.02,1.49-3.42c0.76,1.02,1.2,1.61,1.81,2.42
	C57.31,155.77,56.5,156.01,55.23,156.39z"/>
<path class="st10" d="M53.45,63.78c-0.02-0.3-0.03-0.6-0.05-0.9c0.03-0.42,0.05-0.84,0.08-1.26c0.33-0.11,0.67-0.21,1-0.32
	c0.1,0.24,0.15,0.66,0.29,0.69c0.87,0.17,1.76,0.26,2.64,0.37c-0.63,0.36-1.24,0.82-1.91,1.06C54.86,63.66,54.14,63.67,53.45,63.78z
	"/>
<path class="st2" d="M163.34,89.44c-0.55-2.27-0.55-2.27,1.3-3.09c-0.49,0.94-0.81,1.46-1.04,2.02
	C163.43,88.81,163.38,89.29,163.34,89.44z"/>
<path class="st1" d="M107.24,51.38c0.31,0.68,0.62,1.36,0.93,2.04c-0.09,0.44-0.17,0.87-0.26,1.31c-0.7,0.34-1.35,0.52-1.75-0.41
	c-0.07-0.35-0.14-0.7-0.2-1.05c0,0-0.01,0.03-0.01,0.03C106.38,52.66,106.81,52.02,107.24,51.38z"/>
<path class="st4" d="M92.35,156.89c0.15-1.98,0.15-1.98,1.4-3.93c-0.19,1.76-0.39,2.9-0.42,4.05c-0.03,1.12,0.11,2.24,0.18,3.36
	C93.13,159.21,92.74,158.05,92.35,156.89z"/>
<path class="st3" d="M152.87,131.68c0.12,0.11,0.26,0.32,0.35,0.3c2.21-0.55,2.33-0.42,1.71,1.99c-0.18,0.01-0.34,0.07-0.48,0.19
	c-0.32-0.54-0.64-1.08-0.98-1.62c-0.18-0.3-0.39-0.58-0.59-0.87C152.88,131.66,152.87,131.68,152.87,131.68z"/>
<path class="st2" d="M159.63,101.05c-0.68,2.06-1.83,1.29-3.2,0.93C157.27,100.62,158.18,100.45,159.63,101.05z"/>
<path class="st9" d="M41.3,136.07c0.78,0.98,1.16,1.45,1.68,2.11c-1.01,0.41-1.76,0.71-3.05,1.23
	C40.42,138.22,40.74,137.44,41.3,136.07z"/>
<path class="st1" d="M28.82,132.56c-0.15,1.29-0.75,2.04-2.11,2.07C26.09,132.59,26.28,132.39,28.82,132.56z"/>
<path class="st1" d="M115.38,41.16c0.18-0.03,0.35-0.06,0.53-0.1c0.6-0.1,1.2-0.2,1.8-0.29c-0.26,0.41-0.51,0.82-0.77,1.23
	c-0.08,0.19-0.17,0.38-0.25,0.57c-0.01,0.37-0.01,0.74-0.02,1.11c0,0,0.03-0.06,0.03-0.06c-0.36,0.1-0.73,0.2-1.09,0.31
	c-0.43-0.12-0.85-0.23-1.28-0.35c0.03-0.19,0.06-0.38,0.09-0.56C114.74,42.4,115.06,41.78,115.38,41.16z"/>
<path class="st2" d="M151.76,55.88c0.78,0.1,1.71-0.39,2.62,0.79c-1.68,0.32-3.08,0.69-4.49,0.81c-0.78,0.07-0.69-0.54-0.3-1.04
	C150.31,56.25,151.04,56.06,151.76,55.88z"/>
<path class="st5" d="M185.88,155.52c0.26-0.44,0.52-0.88,0.78-1.31c0.51-0.09,1.02-0.18,1.53-0.27l-0.01-0.01
	c0.18-0.04,0.37-0.07,0.55-0.11l-0.02,0.02c1,0.49,1,0.49,1.04,1.75C188.46,155.57,187.17,155.54,185.88,155.52z"/>
<path class="st4" d="M27.88,113.29c1.1-1.86,2.09-2.41,3.82-1.97c-1.09,1.21-2.51,1.51-3.85,1.94
	C27.84,113.27,27.88,113.29,27.88,113.29z"/>
<path class="st8" d="M129.74,33.44c-0.6,1.07-1.19,2.14-1.97,3.52C127.62,34.69,127.64,34.66,129.74,33.44z"/>
<path class="st2" d="M77.69,146.31c-0.11,0.13-0.24,0.24-0.38,0.34c-0.39,0.01-0.77,0.02-1.16,0.03c0.15-0.95,0.29-1.89,0.48-3.12
	c0.64,0.47,1.02,0.74,1.39,1.02c0.07,0.42,0.14,0.85,0.22,1.27c0,0,0.01-0.01,0.01-0.01C78.06,146,77.87,146.15,77.69,146.31z"/>
<path class="st7" d="M108.63,139.44c0.04,0.4,0.09,0.8,0.13,1.21c-0.67-0.01-1.54,0.26-1.96-0.07c-1.06-0.82-1.96-0.34-2.94-0.05
	c-0.05-0.17-0.11-0.34-0.16-0.52c1.41-0.55,2.83-1.04,4.37-0.65c0.18,0.03,0.36,0.06,0.54,0.09L108.63,139.44z"/>
<path class="st2" d="M56.9,131.75c0.28,0.34,0.55,0.67,0.83,1.01c-0.45,0.89-0.89,1.78-1.34,2.66
	C55.88,133.99,56.05,132.8,56.9,131.75z"/>
<path class="st9" d="M64.88,22.63c-0.06,1.23-0.11,2.46-0.19,4.06c-1.93-1.61-0.71-2.83-0.47-4.04
	C64.44,22.65,64.66,22.64,64.88,22.63z"/>
<path class="st3" d="M41.53,81.78c0.3,1.59,0.94,3.24-0.69,4.54C40.45,84.71,39.87,83.08,41.53,81.78z"/>
<path class="st6" d="M86.6,160.08c0,0-0.15,0.09-0.15,0.09c0.21-1.73,0.41-3.45,0.62-5.18c0.12-0.04,0.25-0.08,0.37-0.12
	C87.63,156.68,88.21,158.56,86.6,160.08z"/>
<path class="st2" d="M157.45,119.19c-0.77,0.04-1.54,0.07-2.47,0.12c0.16-0.46,0.27-0.77,0.38-1.07c0.67-0.24,1.35-0.49,2.02-0.73
	c0.61-0.04,1.23-0.14,1.84-0.1c0.25,0.02,0.48,0.35,0.72,0.54c-0.25,0.2-0.5,0.4-0.76,0.59
	C158.61,118.75,158.03,118.97,157.45,119.19z"/>
<path class="st1" d="M92.35,156.89c0.39,1.16,0.78,2.33,1.16,3.49c-0.11,0.5-0.21,0.99-0.45,2.12
	C92.3,160.27,91.55,158.7,92.35,156.89z"/>
<path class="st2" d="M170.06,168.19c0.75-0.61,1.51-1.23,2.21-1.79c0.15,1.41-0.46,2.45-2.05,2.82
	C170.17,168.87,170.12,168.53,170.06,168.19z"/>
<path class="st8" d="M173.37,164.89c1.86,0.43,2.3,1.78,2.79,3.09C175.01,167.27,173.92,166.5,173.37,164.89z"/>
<path class="st10" d="M154.79,101.34c-0.13,0-0.26,0.02-0.39,0.05c-0.1-0.33-0.2-0.67-0.3-1c-0.03-0.19-0.05-0.39-0.08-0.58
	c-0.65-1.29-1.3-2.57-1.95-3.86C154.07,97.19,155.08,98.94,154.79,101.34z"/>
<path class="st6" d="M103.7,140.01c0.05,0.17,0.11,0.34,0.16,0.52c-0.66,0.5-1.32,1-2.43,1.84c0.16-1.07,0.31-1.75,0.32-2.43
	c0-0.16-0.47-0.32-0.73-0.48c0,0-0.13-0.19-0.13-0.19c0.03-0.15,0.03-0.29,0.01-0.44c0.54,0.05,1.08,0.1,1.62,0.14
	c0.26,0.31,0.53,0.61,0.79,0.92C103.43,139.95,103.56,139.99,103.7,140.01z"/>
<path class="st2" d="M61.11,121.69c-0.19,0.05-0.38,0.1-0.57,0.15c-1.25,0.8-2.28,0.15-3.3-0.51c-0.06-0.15-0.12-0.31-0.16-0.47
	C58.54,120.61,60.06,119.99,61.11,121.69z"/>
<path class="st5" d="M42.5,115.46c-0.06-0.21-0.12-0.42-0.18-0.63c0.19-0.64,0.38-1.28,0.57-1.91c0,0,0.06,0.02,0.06,0.02
	c0.47-0.47,0.95-0.94,1.42-1.42c0.5,0.53,0.99,1.07,1.49,1.6C44.29,113.25,43.44,114.42,42.5,115.46z"/>
<path class="st2" d="M33.5,106.36c0.11,0.46,0.22,0.92,0.33,1.38c-0.54,0.39-1.09,0.78-1.72,1.23c-0.64-1.18,0.21-1.77,0.53-2.49
	c0.17,0,0.32-0.06,0.44-0.18C33.22,106.32,33.36,106.34,33.5,106.36z"/>
<path class="st8" d="M62.08,141.02c0,0-0.03-0.08-0.03-0.08c-0.27,0.83-0.54,1.65-0.86,2.63c-0.47-0.14-0.95-0.28-1.43-0.42
	c-0.1-0.32-0.19-0.64-0.29-0.96c0,0-0.02,0.03-0.02,0.03c0.31-0.25,0.62-0.51,0.94-0.76C60.86,140.94,61.32,140.38,62.08,141.02z"/>
<path class="st9" d="M67.32,133.69c0.15-0.03,0.29-0.08,0.43-0.13c0.9-0.03,1.79-0.06,2.69-0.09c-0.77,0.76-1.53,1.52-2.3,2.28
	c-0.29-0.18-0.58-0.35-0.87-0.53C67.29,134.71,67.3,134.2,67.32,133.69z"/>
<path class="st1" d="M61.85,134.77c-0.12,0.17-0.25,0.33-0.37,0.5c-0.14,0.08-0.29,0.09-0.44,0.02c-0.17-0.67-0.34-1.34-0.51-2
	c0.17-0.96,0.33-1.93,0.5-2.89c1.28,0.48,0.63,1.8,1.15,2.61c0,0.16-0.02,0.32-0.08,0.48C62.03,133.92,61.94,134.35,61.85,134.77z"
	/>
<path class="st3" d="M145.85,81.34c0.62,0.48,1.04,0.81,1.47,1.13c-0.25,0.31-0.5,0.88-0.74,0.88c-0.52-0.01-1.04-0.31-1.56-0.49
	C145.24,82.45,145.46,82.04,145.85,81.34z"/>
<path class="st4" d="M38.03,74.85c0.17-0.27,0.34-0.54,0.5-0.81c0.57,0.13,1.16,0.22,1.7,0.42c0.44,0.16,0.83,0.47,1.24,0.71
	c-0.34,0.49-0.68,0.97-1.01,1.46C39.66,76.03,38.84,75.44,38.03,74.85z"/>
<path class="st5" d="M116.03,63.62c-0.5,0.01-1,0.01-1.51,0.02c-0.04-0.12-0.09-0.24-0.13-0.36c0.82-0.54,1.64-1.08,2.46-1.62
	c0.28-0.13,0.56-0.26,0.85-0.38c0.32,0.37,0.64,0.75,0.96,1.12c-0.67,0.35-1.34,0.7-2.01,1.04
	C116.44,63.5,116.24,63.56,116.03,63.62z"/>
<path class="st2" d="M27.56,114.45c-0.67,0.5-1.35,1.01-2.08,1.56c-0.5-2.06-0.5-2.06,1.83-2.6
	C27.39,113.75,27.48,114.1,27.56,114.45z"/>
<path class="st9" d="M31.17,140.16c0.1,1.84-0.47,2.72-2.04,3.63C29.58,142.28,29.56,141.12,31.17,140.16z"/>
<path class="st8" d="M165.32,47.49c0.16-1.5,1.04-2.43,2.61-3.35c-0.18,1.83-1.32,2.64-2.17,3.62
	C165.61,47.66,165.47,47.57,165.32,47.49z"/>
<path class="st4" d="M42.07,172.38c0.86-0.97,1.51-1.71,2.25-2.55C44.33,172.79,44.09,173.08,42.07,172.38z"/>
<path class="st6" d="M122.31,134.17c0.05,0.15,0.1,0.3,0.15,0.45c-1,0.24-2,0.49-3,0.73c-0.16-0.7-0.33-1.4-0.49-2.1
	C120.08,133.56,121.19,133.86,122.31,134.17z"/>
<path class="st9" d="M156.89,120.23c0.26-0.15,0.52-0.29,0.78-0.44c0.33-0.18,0.65-0.36,0.98-0.55c1.18,1.45,1.19,1.55-0.16,2.1
	c-0.45,0.19-0.97,0.2-1.46,0.29C156.98,121.17,156.94,120.7,156.89,120.23z"/>
<path class="st5" d="M49.56,118.98c-0.04,0.59-0.08,1.18-0.12,1.78c0.06,0.33,0.13,0.65,0.19,0.98c0,0,0.01-0.01,0.01-0.01
	c-0.72,0.02-1.43,0.04-2.15,0.06c-0.09-0.22-0.19-0.44-0.28-0.65C47.99,120.42,48.77,119.7,49.56,118.98z"/>
<path class="st5" d="M40.27,63.23c1,0.87,1.52,1.32,2.19,1.9c-0.5,0.51-1,1.01-1.56,1.58C39.75,65.73,40.61,64.66,40.27,63.23z"/>
<path class="st8" d="M113.77,140.19c0,0,0.01,0.09,0.01,0.09c1.86-0.49,1.93-0.45,2.78,1.8c-0.5-0.01-1-0.01-1.5-0.02l0.04,0.03
	C114.79,141.36,115.18,140.14,113.77,140.19z"/>
<path class="st9" d="M67.81,140.18c0.14,0.34,0.27,0.67,0.41,1.01c-0.61,0.99-1.23,1.98-1.84,2.96c0,0,0.04,0.03,0.04,0.03
	C66.2,142.61,66.71,141.29,67.81,140.18z"/>
<path class="st1" d="M171.24,84.51c-0.84,0.64-1.67,1.27-2.99,2.28c0.99-2.74,1.07-2.79,3-2.32
	C171.26,84.48,171.24,84.51,171.24,84.51z"/>
<path class="st10" d="M60.54,133.29c0.17,0.67,0.34,1.34,0.51,2c0,0-0.24,0.07-0.24,0.07c-0.77,0.01-1.54,0.02-2.4,0.03
	C58.78,134.42,59.2,133.44,60.54,133.29z"/>
<path class="st3" d="M171.08,175.67c-0.35-1.17-0.31-2,0.81-2.25c0.26-0.06,0.87,0.41,0.92,0.7
	C172.98,175.24,172.29,175.63,171.08,175.67z"/>
<path class="st8" d="M78.23,145.85c-0.07-0.42-0.14-0.85-0.22-1.27c0.32-0.08,0.73-0.07,0.93-0.27c0.41-0.43,0.69-0.99,1.07-1.46
	c0.07-0.09,0.32-0.05,0.49-0.06C80.28,144.59,79.85,145.18,78.23,145.85z"/>
<path class="st6" d="M154.88,161.09c0.62,0.87,1.23,1.74,1.88,2.66C155.36,164.26,155.07,163.91,154.88,161.09z"/>
<path class="st7" d="M122.51,51.52c-0.45-0.99-0.94-2.01,0.95-2.02c-0.1,1.11-0.19,2.14-0.28,3.17
	C122.95,52.28,122.73,51.9,122.51,51.52z"/>
<path class="st8" d="M173.92,162.06c1.51-0.26,2.93-0.31,3.56,1.51c-0.91-0.36-1.58-1.34-2.87-0.66c-0.5,0.26-1.46-0.36-2.21-0.58
	C172.9,162.24,173.41,162.15,173.92,162.06z"/>
<path class="st7" d="M131.52,143.85c-0.6-1.64,0.39-2.34,1.39-3.04C132.75,141.88,132.9,143.08,131.52,143.85z"/>
<path class="st6" d="M58.42,51.37c-1.54-0.57-1.54-0.57-0.63-2.1c0.29-0.08,0.58-0.17,0.87-0.25c0.3,0.2,0.61,0.4,0.91,0.59
	c0.03,0.31,0.07,0.62,0.1,0.93c-0.14,0.2-0.28,0.4-0.42,0.61C58.98,51.22,58.7,51.3,58.42,51.37z"/>
<path class="st6" d="M59.3,55.48c0.43,1.48,1.14,2.94,0.3,4.5c-0.3,0.14-0.61,0.29-0.91,0.43c-0.07-0.42-0.13-0.84-0.2-1.25
	c0.1-0.43,0.2-0.86,0.3-1.29C58.95,57.07,59.13,56.28,59.3,55.48z"/>
<path class="st11" d="M69.29,49.82c0.27,1.24,0.54,2.48,0.82,3.72c-0.66,0.25-1.83-0.05-1.45,1.33c-0.22-0.42-0.67-1.19-0.62-1.22
	C69.45,52.68,68.61,51,69.29,49.82z"/>
<path class="st8" d="M130.36,159.34c0.65,0.96,1.31,1.92,1.96,2.88c-0.18,0.12-0.36,0.24-0.54,0.36c-0.7-1.03-1.41-2.06-2.11-3.08
	C129.9,159.45,130.13,159.39,130.36,159.34z"/>
<path class="st9" d="M62.17,56.18c0.65,0.28,1.3,0.57,2.24,0.98c-1.43,1.17-1.91,0.22-2.54-0.16
	C61.97,56.72,62.07,56.45,62.17,56.18z"/>
<path class="st8" d="M20.96,82.4c-0.44,0.11-0.88,0.23-1.32,0.34c-0.87-0.34-2.1,0-2.81-1.83C18.51,81.52,19.74,81.96,20.96,82.4z"
	/>
<path class="st10" d="M173.9,86.77c-1.05,0.06-2.1,0.12-3.15,0.17c0.27-0.79,1.61-1.36,0.49-2.43c0,0,0.02-0.04,0.02-0.04
	c0.84,0.64,1.68,1.28,2.53,1.92C173.82,86.52,173.86,86.65,173.9,86.77z"/>
<path class="st10" d="M60.46,127.07c-0.3,0.32-0.59,0.65-0.89,0.97c-0.58-0.24-1.17-0.49-1.75-0.73c-0.02-1.29,1.26-0.96,1.84-1.49
	C59.93,126.23,60.19,126.65,60.46,127.07z"/>
<path class="st2" d="M81.88,162.54c-0.29,0.45-0.59,0.9-0.98,1.5c-1.16-1.4-0.39-2.46,0.02-3.52
	C81.24,161.19,81.56,161.87,81.88,162.54z"/>
<path class="st7" d="M42.95,112.93c0,0-0.06-0.02-0.06-0.02c-0.49,0.14-0.97,0.29-1.69,0.5c0.27-1.26,0.8-1.88,2.12-2.12
	C43.16,111.97,43.06,112.45,42.95,112.93z"/>
<path class="st9" d="M143.24,135.73c0.52-0.3,1.03-0.6,1.55-0.89c0.59,0.29,1.17,0.58,1.76,0.87c-1.1-0.05-1.58,0.98-2.41,1.4
	c0,0,0.09-0.01,0.09-0.01C144.81,135.98,143.49,136.24,143.24,135.73z"/>
<path class="st8" d="M140.41,56.57c0.67-0.65,1.34-1.3,2.18-2.12c0.51,1.22,0.38,1.68-0.59,1.77c-0.54,0.05-1.06,0.22-1.59,0.34
	C140.4,56.56,140.41,56.57,140.41,56.57z"/>
<path class="st9" d="M166.04,103.23c-0.46,0.57-0.98,1.06-1.62,0.27c-0.13-0.16-0.02-0.76,0.17-0.9c0.68-0.52,1.24-0.43,1.44,0.53
	C166.02,103.13,166.04,103.23,166.04,103.23z"/>
<path class="st8" d="M87.43,154.87c-0.12,0.04-0.25,0.08-0.37,0.12c-0.53-1.67-0.5-1.67,0.09-3.42
	C88.44,152.68,87.4,153.84,87.43,154.87z"/>
<path class="st1" d="M39.8,104.58c-0.92,2.17-0.92,2.17-2.94,1.55c0,0,0.06,0.02,0.06,0.02c0.32-0.91,0.89-1.52,1.92-1.55
	C39.16,104.59,39.48,104.58,39.8,104.58z"/>
<path class="st11" d="M124.99,154.35c0.47-0.28,0.95-0.56,1.42-0.85c0.5,0.85,0.99,1.7,1.49,2.56c-0.1,0.09-0.21,0.18-0.31,0.26
	C126.73,155.67,125.86,155.01,124.99,154.35z"/>
<path class="st7" d="M40.01,122.75c-0.12-0.62-0.25-1.24-0.37-1.86c1.05-0.21,2.11-0.43,3.16-0.64
	C41.87,121.08,40.94,121.91,40.01,122.75z"/>
<path class="st10" d="M28.67,125.84c0.2,0.24,0.41,0.48,0.61,0.72c-0.32,0.27-0.64,0.54-0.96,0.81l0.03-0.04
	c-1.1,0.17-2.21,0.34-3.31,0.52c0.06-0.19,0.11-0.38,0.17-0.56C26.36,126.81,27.52,126.32,28.67,125.84z"/>
<path class="st8" d="M58.66,49.02c-0.29,0.08-0.58,0.17-0.87,0.25c-0.11-1.09-0.22-2.18-0.32-3.28c0.08-0.03,0.16-0.05,0.25-0.08
	C58.03,46.95,58.35,47.98,58.66,49.02z"/>
<path class="st11" d="M54.71,138.22c0.84-0.74,1.69-1.47,2.53-2.21C56.89,137.67,56.89,137.67,54.71,138.22z"/>
<path class="st7" d="M183.79,90c1.38-0.47,2.28-0.78,3.17-1.09C186.1,90.17,186.1,90.17,183.79,90z"/>
<path class="st5" d="M135.27,133.83c-0.63,0.48-1.26,0.96-1.9,1.44c-0.05-0.31-0.09-0.63-0.14-0.94c0.12-0.38,0.25-0.76,0.37-1.14
	c0.29-0.27,0.57-0.54,0.86-0.81c0.36-0.04,0.71-0.07,1.07-0.11c0,0,0,0,0,0C135.45,132.8,135.36,133.31,135.27,133.83z"/>
<path class="st5" d="M63.44,126.99c0.56,0.31,1.12,0.62,1.68,0.92c-0.19,1.01-0.39,2.01-0.58,3.02c-0.3-0.38-0.61-0.77-0.91-1.15
	C63.57,128.86,63.51,127.92,63.44,126.99z"/>
<path class="st6" d="M147.9,68.31c-0.01-0.16-0.03-0.32-0.06-0.48c0.56-0.21,1.12-0.42,1.89-0.7c0.19,0.64,0.38,1.26,0.57,1.88
	c-0.49,0.03-0.99,0.05-1.48,0.08C148.51,68.83,148.21,68.57,147.9,68.31z"/>
<path class="st7" d="M97.03,49.49c0.34,1.65,0.61,3.27-1.47,4.03C96.05,52.18,96.54,50.83,97.03,49.49z"/>
<path class="st2" d="M48.11,165.64c-0.12,1.09-0.65,1.81-1.78,2c-0.11-0.1-0.22-0.2-0.33-0.29c0.61-0.89,1.22-1.78,1.84-2.67
	C47.92,165,48.02,165.32,48.11,165.64z"/>
<path class="st6" d="M103.2,144.04c0.28,0.41,0.57,0.83,0.87,1.27c-0.58,0.66-1.22,1-1.75,0.28c-0.21-0.29,0.13-0.99,0.22-1.5
	C102.76,144.07,102.98,144.05,103.2,144.04z"/>
<path class="st6" d="M154.45,134.15c0.14-0.12,0.3-0.18,0.48-0.19c0.51,1.06,1.03,2.12,1.54,3.19c-0.33-0.02-0.66-0.04-0.99-0.06
	C155.13,136.11,154.79,135.13,154.45,134.15z"/>
<path class="st9" d="M49.38,128.89c0.76-0.14,1.52-0.29,2.99-0.56c-0.97,1.01-1.51,1.59-2.27,2.38
	C49.74,129.81,49.55,129.35,49.38,128.89L49.38,128.89z"/>
<path class="st10" d="M175.96,133.02c-0.35-0.21-0.71-0.42-1.06-0.62c0.64-0.23,1.27-0.46,2-0.72c0.85,0.69,1.56,1.4,0.53,2.54
	C177.16,133.54,177.34,132.32,175.96,133.02z"/>
<path class="st7" d="M91.52,43.23c0,0,0.01,0.19,0.01,0.19c-0.03,0.75-0.06,1.49-0.09,2.24c-0.79-0.23-1.58-0.47-2.37-0.7
	c0.42-0.62,0.84-1.25,1.25-1.87c0.22-0.03,0.43-0.06,0.65-0.09C91.16,43.07,91.34,43.15,91.52,43.23z"/>
<path class="st8" d="M113.53,137.31c-0.02-0.31-0.04-0.61-0.06-0.92l-0.01,0.02c1.02-0.38,2.04-0.76,3.06-1.15
	C115.9,137.18,115.9,137.18,113.53,137.31z"/>
<path class="st9" d="M117.7,61.28c-0.28,0.13-0.56,0.26-0.85,0.38c0.16-0.57,0.36-1.13,0.48-1.71c0.14-0.74,0.21-1.5,0.31-2.25
	C119.07,58.87,118.65,60.07,117.7,61.28z"/>
<path class="st11" d="M122.51,51.52c0.22,0.38,0.44,0.77,0.67,1.15c-0.05,0.61-0.1,1.21-0.15,1.82c-0.8-0.31-1.6-0.61-2.4-0.92
	C121.26,52.88,121.88,52.2,122.51,51.52z"/>
<path class="st7" d="M95.74,42.7c1.28,2.11,1.75,4.36,1.29,6.8C96.6,47.23,96.17,44.97,95.74,42.7z"/>
<path class="st11" d="M155.16,85.97c-0.46-0.32-0.92-0.65-1.37-0.97c0.45-1.41,1.53-0.93,3.04-1.07
	C156.06,84.88,155.61,85.43,155.16,85.97z"/>
<path class="st8" d="M92.41,19.26c0.27,0.5,0.55,1,0.82,1.51c0.11,0.89,0.1,1.73-0.93,2.39C91.65,21.72,92.38,20.49,92.41,19.26z"/>
<path class="st9" d="M149.14,163.19c-0.66-0.64-1.09-1.05-1.87-1.79c0.82-0.06,1.22-0.2,1.54-0.1
	C149.72,161.59,149.71,161.62,149.14,163.19z"/>
<path class="st4" d="M156.89,120.23c0.04,0.47,0.09,0.94,0.13,1.4c-0.34-0.02-0.7,0.02-1.03-0.07c-0.99-0.26-0.97,0.39-0.99,1.03
	c-0.29-0.5-0.58-0.99-0.86-1.49C155.06,120.81,155.98,120.52,156.89,120.23z"/>
<path class="st9" d="M30.85,91.49c-0.72-0.25-1.44-0.5-2.22-0.77c1.38-1.19,1.44-1.16,2.21,0.79
	C30.83,91.51,30.85,91.49,30.85,91.49z"/>
<path class="st11" d="M129.2,138.86c-0.13,0.09-0.27,0.13-0.43,0.11c-1.32-1.08-1.32-1.08-1.19-2.86
	C128.12,137.02,128.66,137.94,129.2,138.86z"/>
<path class="st4" d="M105.06,57.92c0.77-0.43,0.69-2.09,2.16-1.52c0.06,0.29,0.11,0.57,0.17,0.86c0.05,0.25,0.09,0.5,0.14,0.75
	c-0.02,0.35-0.03,0.71-0.05,1.06C107.41,58.98,105.45,58.05,105.06,57.92z"/>
<path class="st4" d="M44.86,125.36c-1.26,0.18-2.51,0.36-3.77,0.54c1.38-0.56,2.75-1.13,4.13-1.69c0.03,0.18,0.06,0.37,0.08,0.55
	C45.15,124.97,45,125.16,44.86,125.36z"/>
<path class="st10" d="M66.38,144.16c0.03,0.8,0.58,1.7-0.44,2.3c-1.26-1.32-1.26-1.32,0.48-2.27
	C66.43,144.19,66.38,144.16,66.38,144.16z"/>
<path class="st9" d="M98.21,152.57c-0.01,0.81-0.02,1.62-0.03,2.43c-1.36-0.75-0.97-1.6-0.6-2.45
	C97.79,152.55,98,152.56,98.21,152.57z"/>
<path class="st8" d="M74.11,38.19c0.21,0.69,0.43,1.37,0.8,2.54c-1.64-0.7-1.73-1.44-1.51-2.32C73.63,38.34,73.87,38.26,74.11,38.19
	z"/>
<path class="st4" d="M81.37,154.04c-0.09,0.52-0.18,1.04-0.27,1.56c-0.13-0.3-0.27-0.59-0.46-1.03c-0.46,0.48-0.81,0.85-1.51,1.59
	c0.08-0.99,0.12-1.46,0.16-1.93c0.46-0.24,0.93-0.49,1.39-0.73C80.91,153.67,81.14,153.85,81.37,154.04z"/>
<path class="st2" d="M173.92,162.06c-0.51,0.09-1.02,0.18-1.53,0.27c-0.26-0.31-0.51-0.63-0.77-0.94c0.02-0.21,0.04-0.42,0.06-0.63
	C172.74,160.65,173.81,160.54,173.92,162.06z"/>
<path class="st8" d="M24.76,135.74c-0.86,0.2-1.41,0.33-1.96,0.41c-0.02,0-0.23-0.52-0.14-0.68
	C23.16,134.57,23.76,134.91,24.76,135.74z"/>
<path class="st7" d="M38.84,104.59c-1.03,0.04-1.6,0.64-1.92,1.55c-0.13-0.66-0.25-1.33-0.36-1.92
	C37.64,103.3,38.26,103.85,38.84,104.59z"/>
<path class="st9" d="M111.64,53.07c0.64-1.01,1.28-1.38,2.24-0.89C113.17,53.49,113.17,53.49,111.64,53.07z"/>
<path class="st3" d="M58.78,57.87c-0.1,0.43-0.2,0.86-0.3,1.29c-0.82,0.01-1.58-0.06-1.66-1.14C57.4,57.07,58.09,57.46,58.78,57.87z
	"/>
<path class="st7" d="M58.42,51.37c0.28-0.08,0.56-0.15,0.84-0.23c0.35-0.05,0.7-0.1,1.04-0.15l-0.04-0.01
	c-0.15,0.64,0.72,1.69-0.72,1.81c-0.23,0.05-0.46,0.09-0.69,0.14C58.71,52.41,58.57,51.89,58.42,51.37z"/>
<path class="st10" d="M115.38,41.16c-0.32,0.62-0.64,1.24-0.96,1.85c-0.08-0.3-0.15-0.6-0.23-0.9c-0.2-0.79-0.1-1.85-1.44-1.64
	c0.61-1.02,1.49-0.12,2.21-0.3C115.1,40.51,115.24,40.84,115.38,41.16z"/>
<path class="st11" d="M166.58,94.24c0,0.2,0,0.4,0,0.61c-0.75,0.2-1.5,0.49-2.27,0.55c-0.33,0.03-0.7-0.4-0.92-1.03
	C164.45,94.33,165.52,94.28,166.58,94.24z"/>
<path class="st6" d="M164.5,157.67c0.75,0.26,1.51,0.52,2.26,0.79c-1.08,0.24-1.16,1.17-1.37,2.01c-0.26-0.46-0.53-0.92-0.79-1.38
	C164.57,158.61,164.54,158.14,164.5,157.67z"/>
<path class="st8" d="M91.87,34c0.12,1.48,0.24,2.97,0.36,4.45c-0.57-1.13-1.13-2.25-1.75-3.49C90.96,34.63,91.41,34.32,91.87,34z"/>
<path class="st8" d="M128.11,63.4c-0.04-0.13-0.07-0.27-0.09-0.4c0.35-1.04,0.69-2.08,1.04-3.11
	C129.22,61.18,129.77,62.59,128.11,63.4z"/>
<path class="st8" d="M122.38,138.03c-0.59-0.5-1.02-0.86-1.6-1.35c0.42-0.22,0.63-0.41,0.83-0.41
	C122.54,136.3,123.21,136.56,122.38,138.03z"/>
<path class="st4" d="M135.84,145.22c-0.32,1.49,1.27,2.84,0.32,4.37c-0.4-1.23-0.83-2.45-1.18-3.69
	C134.77,145.15,135.19,145,135.84,145.22z"/>
<path class="st10" d="M85.24,54.04c-0.31,0.02-0.63,0.04-0.94,0.06c-0.19-1-0.38-2-0.61-3.25C85.72,51.51,84.6,53.14,85.24,54.04z"
	/>
<path class="st5" d="M33.09,106.3c-0.12,0.12-0.27,0.18-0.44,0.18c-0.46-0.16-0.93-0.32-1.39-0.48c-0.22-0.25-0.43-0.5-0.65-0.75
	c0.99-0.19,1.97-0.37,3.33-0.63C33.52,105.43,33.3,105.87,33.09,106.3z"/>
<path class="st9" d="M140.25,58.83c-0.28-0.46-0.57-0.92-0.85-1.38c0.34-0.07,0.69-0.14,1.03-0.21c0.31,0.36,0.62,0.71,0.93,1.07
	C140.98,58.48,140.62,58.66,140.25,58.83z"/>
<path class="st7" d="M48.11,165.64c-0.09-0.32-0.19-0.64-0.28-0.96c0.42-0.83,0.94-1.54,2-1.52c0,0-0.04-0.03-0.04-0.03
	C49.24,163.97,48.67,164.81,48.11,165.64z"/>
<path class="st9" d="M59.68,50.54c-0.03-0.31-0.07-0.62-0.1-0.93c0.75-0.05,1.51-0.09,2.26-0.14c0.06,0.18,0.13,0.36,0.19,0.54
	c-0.59,0.32-1.18,0.64-1.77,0.96c0,0,0.04,0.01,0.04,0.01C60.09,50.84,59.88,50.69,59.68,50.54z"/>
<path class="st10" d="M81.88,162.54c-0.32-0.67-0.64-1.35-0.96-2.02c0.03-0.74,0.07-1.48,0.1-2.22c0.27,0.49,0.54,0.97,0.81,1.46
	C82.01,160.69,83.15,161.59,81.88,162.54z"/>
<path class="st8" d="M155.47,137.09c0.33,0.02,0.66,0.04,0.99,0.06c0.11,0.5,0.21,1,0.32,1.5c-0.68-0.07-1.35-0.15-2.03-0.22
	c-0.58-0.06-1.16-0.11-1.74-0.17C153.84,137.87,154.66,137.48,155.47,137.09z"/>
<path class="st2" d="M55,121.23c-0.33-0.64-0.67-1.29-1-1.93c1.59-0.58,1.84,0.52,2.06,1.64C55.71,121.04,55.35,121.14,55,121.23z"
	/>
<path class="st9" d="M115.07,142.06c-0.01,0.47,0.1,1.01-0.09,1.4c-0.12,0.25-0.69,0.29-1.06,0.42c-0.04-0.39-0.25-0.92-0.08-1.12
	c0.29-0.34,0.83-0.46,1.27-0.67C115.11,142.09,115.07,142.06,115.07,142.06z"/>
<path class="st10" d="M167.03,125.92c-0.58-0.23-1.16-0.46-2.15-0.86c1.42-0.79,2.04-0.58,2.47,0.31
	C167.24,125.55,167.13,125.73,167.03,125.92z"/>
<path class="st10" d="M60.76,166.54c0.3-0.77,0.61-1.54,1.12-2.84C62.55,165.45,61.93,166.1,60.76,166.54z"/>
<path class="st7" d="M51.29,158.6c-1.26-0.24-1.86-0.73-0.61-1.83C50.92,157.48,51.1,158.04,51.29,158.6z"/>
<path class="st3" d="M41.24,79.72c0.19-0.04,0.37-0.08,0.56-0.12c0.68,0.83,1.13,1.63-0.28,2.19C41.43,81.1,41.33,80.41,41.24,79.72
	z"/>
<path class="st8" d="M112.92,155.6c-0.46-0.87-0.73-1.4-1.02-1.95C113.56,153.42,113.56,153.42,112.92,155.6z"/>
<path class="st10" d="M190.5,157.92c0.59,0.05,1.18,0.11,2.12,0.19C191.67,159.2,191.06,159.25,190.5,157.92z"/>
<path class="st11" d="M47.07,145.66c0.05-1.27,0.76-2,2.15-2.63c-0.33,1.5-1.28,2.03-2.18,2.6
	C47.03,145.64,47.07,145.66,47.07,145.66z"/>
<path class="st8" d="M166.04,103.23c0,0-0.01-0.1-0.01-0.1c1.15,0.09,2.3,0.19,3.45,0.28c-0.5,0.27-1,0.55-1.5,0.82
	C167.33,103.9,166.68,103.57,166.04,103.23z"/>
<path class="st9" d="M107.24,51.38c-0.43,0.64-0.87,1.28-1.3,1.92c0.11-1.47,0.23-2.94,0.34-4.41c0.13-0.04,0.26-0.08,0.4-0.11
	c0.11,0.53,0.22,1.06,0.33,1.59c0,0,0.01-0.03,0.01-0.03c-0.12,0.08-0.24,0.17-0.36,0.25c0.17,0.14,0.35,0.29,0.52,0.43l0.02,0.18
	L107.24,51.38z"/>
<path class="st2" d="M37.93,150.65c-1.03,0.19-1.63,0.31-2.23,0.39c-0.02,0-0.22-0.54-0.12-0.7
	C36.1,149.49,36.74,149.78,37.93,150.65z"/>
<path class="st9" d="M154.16,76.19c-0.05,1.03-0.45,1.49-1.3,1.41c-0.16-0.02-0.44-0.42-0.4-0.58
	C152.64,76.23,153.12,75.84,154.16,76.19z"/>
<path class="st8" d="M38.59,121.29c-0.33,0.22-0.67,0.43-1.01,0.65c-0.06-0.28-0.27-0.72-0.17-0.83c0.63-0.6,1.33-1.12,2.01-1.67
	C39.15,120.06,38.87,120.67,38.59,121.29z"/>
<path class="st9" d="M30.91,77.53c-0.24-0.07-0.54-0.08-0.72-0.23c-0.35-0.3-0.66-0.67-0.92-1.05c-0.04-0.06,0.38-0.53,0.41-0.51
	c0.44,0.26,0.86,0.58,1.28,0.88C30.93,76.92,30.92,77.23,30.91,77.53z"/>
<path class="st8" d="M38.1,51.85c0.69-0.05,1.04-0.17,1.31-0.07c0.34,0.13,0.61,0.45,1,0.76C39.36,53.42,38.87,52.88,38.1,51.85z"/>
<path class="st6" d="M76.96,55.4c-1.04,0.38-2.07,0.69-2.86-0.47c0.75-0.19,1.51-0.39,2.45-0.63C76.68,54.64,76.82,55.02,76.96,55.4
	z"/>
<path class="st11" d="M122.86,56.11c0.17-0.1,0.35-0.21,0.52-0.31c0.87,0.95,1.27,1.93,0.17,3c-0.12-0.26-0.25-0.52-0.37-0.78
	C123.07,57.38,122.96,56.74,122.86,56.11z"/>
<path class="st7" d="M30.61,105.24c0.22,0.25,0.43,0.5,0.65,0.75c-0.44,0.31-0.87,0.61-1.31,0.92c-0.45-0.17-0.9-0.33-1.35-0.5
	C29.27,106.03,29.94,105.64,30.61,105.24z"/>
<path class="st8" d="M84.69,165.78c-0.27,0.52-0.54,1.04-0.95,1.83C82.94,166.34,83.17,165.79,84.69,165.78z"/>
<path class="st5" d="M141.02,146.51c-0.17,0.59-0.35,1.18-0.52,1.77c-0.49-0.25-0.97-0.49-1.64-0.83c0.81-0.63,1.38-1.08,1.96-1.54
	C140.88,146.11,140.95,146.31,141.02,146.51z"/>
<path class="st11" d="M153.13,158.48c0.38,0.11,0.75,0.23,1.13,0.34c-0.01,0.34-0.02,0.67-0.05,1.26c-0.83-0.35-1.51-0.64-2.18-0.92
	C152.41,158.94,152.77,158.71,153.13,158.48z"/>
<path class="st10" d="M160.52,148.81c-0.17-0.89-0.33-1.78-0.5-2.67c0.52,0.24,1.05,0.48,1.63,0.74
	C161.21,147.65,160.87,148.23,160.52,148.81z"/>
<path class="st8" d="M53.27,140.15c-0.23,1.17-1.05,1.51-2.45,1.5c0.62-0.63,1.09-1.1,1.55-1.56
	C52.67,140.11,52.97,140.13,53.27,140.15z"/>
<path class="st11" d="M39.25,89.88c-0.07-0.15-0.12-0.31-0.14-0.47c0.29-0.35,0.65-0.66,0.86-1.05c0.22-0.42,0.31-0.91,0.46-1.37
	C41.03,89.36,41.03,89.36,39.25,89.88z"/>
<path class="st6" d="M165.83,133.57c-0.35,0.08-0.69,0.16-1.04,0.24c-0.18,0.03-0.36,0.06-0.54,0.09c-0.15-0.42-0.29-0.85-0.44-1.27
	c0.46,0.03,0.95-0.03,1.35,0.13C165.45,132.88,165.61,133.29,165.83,133.57z"/>
<path class="st11" d="M136.25,150.06c0.35-0.05,0.7-0.1,1.04-0.15c0.1,0.75,0.21,1.51,0.34,2.46
	C136.15,151.98,136.66,150.76,136.25,150.06z"/>
<path class="st6" d="M30.91,77.53c0.01-0.3,0.03-0.61,0.04-0.91c0.9,0.11,1.63,0.42,1.73,1.47c0,0,0.03-0.06,0.03-0.06
	C31.97,78.35,31.11,79.13,30.91,77.53z"/>
<path class="st9" d="M45.3,124.77c-0.03-0.18-0.06-0.37-0.08-0.55c0.72-0.62,1.45-1.24,2.72-0.55
	C47.13,124.55,46.18,124.58,45.3,124.77z"/>
<path class="st8" d="M31.78,71.42c-0.77,0.83-1.32,0.75-1.96-0.14C30.6,70.52,31.16,70.51,31.78,71.42z"/>
<path class="st10" d="M66.31,59.7c-0.27,0.41-0.5,1.12-0.83,1.18c-1.27,0.22-2.58,0.22-3.88,0.3C63.17,60.68,64.74,60.19,66.31,59.7
	z"/>
<path class="st2" d="M175.96,133.02c1.38-0.69,1.2,0.52,1.47,1.19c0.13,0.67,0.26,1.35,0.38,2.02
	C177.2,135.16,176.58,134.09,175.96,133.02z"/>
<path class="st7" d="M37.33,125.15c-0.09,1.02-0.6,1.59-1.95,1.3c0.58-0.53,1.17-1.05,1.75-1.58
	C37.11,125.03,37.18,125.12,37.33,125.15z"/>
<path class="st6" d="M181.97,137.25c0.04,0.27,0.07,0.53,0.11,0.8c0,0.16,0.02,0.31,0.05,0.47c-0.58,0.03-1.16,0.05-1.74,0.08
	c-0.1-0.57-0.2-1.14-0.3-1.71C180.71,137.01,181.34,137.13,181.97,137.25z"/>
<path class="st7" d="M166.19,143.95c-0.44,0.77-1.88,1.02-1.23,2.36c-0.42-0.62-0.85-1.25-1.43-2.11
	C164.63,144.1,165.41,144.02,166.19,143.95z"/>
<path class="st2" d="M158.99,89.85c-0.73,0.28-1.46,0.57-2.37,0.93c-0.01-2.3,1.34-1.38,2.15-1.55
	C158.84,89.43,158.92,89.64,158.99,89.85z"/>
<path class="st11" d="M115.05,20.99c0.35,0.55,0.69,1.1,1.04,1.65c-0.35,0.4-0.7,0.8-1.05,1.19c-0.13-0.07-0.27-0.13-0.4-0.2
	C114.77,22.75,114.91,21.87,115.05,20.99z"/>
<path class="st2" d="M148.81,69.08c0.49-0.03,0.99-0.05,1.48-0.08c0.08,0.12,0.15,0.24,0.23,0.37c0.18,0.15,0.37,0.3,0.55,0.45
	c0,0,0.02,0.01,0.02,0.01c0.01,0.19,0.03,0.38,0.04,0.57C150.03,70.57,149.05,70.49,148.81,69.08z"/>
<path class="st3" d="M57.82,127.31c0.58,0.24,1.17,0.49,1.75,0.73c-0.05,0.15-0.1,0.29-0.15,0.43c-0.69,0.16-1.38,0.32-2.07,0.48
	C57.5,128.41,57.66,127.86,57.82,127.31z"/>
<path class="st9" d="M35.35,115.32c-0.71,0.87-1.07,1.32-1.72,2.11C33.2,115.77,33.68,115.42,35.35,115.32z"/>
<path class="st8" d="M171.23,96.48c0.47,0.15,0.96,0.27,1.39,0.5c0.07,0.04-0.12,0.57-0.19,0.88c-0.48-0.17-0.97-0.34-1.45-0.5
	C171.06,97.06,171.14,96.77,171.23,96.48z"/>
<path class="st6" d="M140.42,57.24c-0.34,0.07-0.69,0.14-1.03,0.21c-0.94,0-1.88-0.01-2.81-0.01c1.28-0.29,2.55-0.58,3.83-0.87
	c0,0-0.01-0.01-0.01-0.01C140.41,56.79,140.42,57.01,140.42,57.24z"/>
<path class="st8" d="M94.64,33.6c-0.88,0.01-1.75,0.03-2.63,0.04C93.14,32.23,93.36,32.23,94.64,33.6z"/>
<path class="st4" d="M32.24,129.74c0.42-0.51,0.83-1.02,1.57-1.93c0.02,1.43-0.32,2.02-1.11,2.34
	C32.55,130.01,32.39,129.87,32.24,129.74z"/>
<path class="st9" d="M146.93,157.93c1.08-0.31,2-0.2,2.47,1C148.32,159.23,147.59,158.66,146.93,157.93z"/>
<path class="st9" d="M153.13,158.48c-0.36,0.23-0.73,0.45-1.09,0.68c-0.84-0.13-1.8,1.09-2.55-0.22
	C150.71,158.79,151.92,158.64,153.13,158.48z"/>
<path class="st2" d="M81.76,49.88c-0.78-0.32-1.1-0.81-0.5-1.54c0.04-0.04,0.68,0.43,1.05,0.66C82.12,49.29,81.94,49.58,81.76,49.88
	z"/>
<path class="st8" d="M171.68,160.76c-0.02,0.21-0.04,0.42-0.06,0.63c-0.75-0.46-2.05,0.12-2.34-1.23
	C170.08,160.36,170.88,160.56,171.68,160.76z"/>
<path class="st8" d="M177.74,173.4c0.34-0.08,0.69-0.16,1.03-0.24c-0.06,0.73-0.13,1.46-0.19,2.19c-0.26-0.03,0.12-1.14-0.62-0.37
	C177.89,174.45,177.81,173.93,177.74,173.4z"/>
<path class="st8" d="M133.24,50.35c-0.27-1.42-0.55-2.83-0.82-4.25C133.41,47.38,133.86,48.76,133.24,50.35z"/>
<path class="st11" d="M159.44,130.95c-0.5-0.01-1-0.01-1.5-0.02c-0.01-0.19-0.03-0.39-0.04-0.58c0.5-0.06,1-0.12,1.5-0.18
	C159.42,130.43,159.43,130.69,159.44,130.95z"/>
<path class="st7" d="M155.96,43.84c-0.48,0.28-0.96,0.57-1.44,0.85c0.03-0.63,0.05-1.25,0.1-2.18
	C155.27,43.16,155.62,43.5,155.96,43.84z"/>
<path class="st9" d="M82.29,54.64c-0.29,1.63-1.55,0.27-2.22,0.72c0.23-0.25,0.43-0.66,0.7-0.72
	C81.26,54.53,81.79,54.63,82.29,54.64z"/>
<path class="st5" d="M114.19,42.12c0.08,0.3,0.15,0.6,0.23,0.9c-0.03,0.19-0.06,0.38-0.09,0.56c-0.52-0.11-1.04-0.23-1.57-0.34
	C113.24,42.86,113.72,42.49,114.19,42.12z"/>
<path class="st6" d="M120.1,35.4c0.39-0.65,0.77-1.29,1.16-1.94c0.32,0.39,0.65,0.78,1.12,1.36
	C121.52,35.03,120.81,35.21,120.1,35.4z"/>
<path class="st4" d="M136.84,135.82c-0.32-0.67-0.65-1.34-0.97-2.01c0.19-0.05,0.39-0.11,0.58-0.16c0.44,0.49,0.87,0.97,1.31,1.46
	C137.45,135.34,137.15,135.58,136.84,135.82z"/>
<path class="st7" d="M28.32,127.37c0.32-0.01,0.65-0.03,1.52-0.06c-0.78,0.84-1.24,1.32-1.7,1.81c-0.12-0.08-0.24-0.17-0.36-0.25
	c0.19-0.51,0.38-1.03,0.57-1.54C28.35,127.33,28.32,127.37,28.32,127.37z"/>
<path class="st6" d="M130.36,159.34c-0.23,0.05-0.46,0.11-0.69,0.16c-0.4-0.52-0.8-1.03-1.49-1.92
	C129.72,157.79,130.01,158.61,130.36,159.34z"/>
<path class="st6" d="M49.37,128.89c-0.48-0.02-0.97-0.04-1.45-0.06c-0.17-0.15-0.35-0.3-0.52-0.45c0.37-0.27,0.75-0.54,1.3-0.93
	C48.97,128.03,49.17,128.46,49.37,128.89C49.38,128.89,49.37,128.89,49.37,128.89z"/>
<path class="st5" d="M111.42,46.84c-0.09-0.23-0.18-0.46-0.26-0.69c0.24-0.54,0.48-1.07,0.71-1.61
	C112.64,45.69,111.97,46.24,111.42,46.84z"/>
<path class="st11" d="M156.86,45.83c0.45-0.61,0.89-1.22,1.34-1.83c0.29,0.4,0.59,0.8,1.02,1.39
	C158.34,45.55,157.6,45.69,156.86,45.83z"/>
<path class="st2" d="M164.11,150.47c0.11,0.66,0.21,1.32,0.32,1.98c-0.22-0.12-0.43-0.25-0.65-0.37c-0.2-0.17-0.4-0.34-0.6-0.5
	c0,0,0,0,0,0c-0.03-0.42-0.05-0.85-0.08-1.27c0.28-0.07,0.55-0.15,0.83-0.22C163.97,150.22,164.03,150.35,164.11,150.47z"/>
<path class="st11" d="M34.9,97.46c0.54-0.1,1.09-0.21,1.63-0.31c0.05,0.15,0.09,0.29,0.14,0.44c-0.54,0.2-1.07,0.4-1.61,0.6
	C35.01,97.94,34.96,97.7,34.9,97.46z"/>
<path class="st6" d="M147.26,55.15c0,0-0.01-0.06-0.01-0.06c0.58,1.16-0.17,1.64-1.05,2.06c0,0-0.16,0.09-0.16,0.09
	s-0.12-0.14-0.12-0.14C146.37,56.44,146.81,55.79,147.26,55.15z"/>
<path class="st7" d="M128.92,53.83c0.08,1.27,0.15,2.54,0.23,3.81C129.07,56.37,129,55.1,128.92,53.83z"/>
<path class="st7" d="M175.39,91.39c0.8-0.18,0.84,0.24,0.67,0.84c-0.54,0.08-1.08,0.16-1.62,0.23c0,0,0.03,0.04,0.03,0.04
	C174.77,92.13,175.08,91.76,175.39,91.39z"/>
<path class="st11" d="M40.42,96.17c0.24,1.03,0.49,2.07,0.73,3.1c-0.13,0.24-0.25,0.47-0.38,0.71c0,0-0.26-0.03-0.26-0.03
	C40.48,98.7,40.45,97.44,40.42,96.17z"/>
<path class="st1" d="M60.46,127.07c-0.27-0.42-0.53-0.84-0.8-1.26c0.53-0.3,1.07-0.59,1.6-0.89C61,125.64,60.73,126.35,60.46,127.07
	z"/>
<path class="st4" d="M40.43,176.39c0.26-0.43,0.52-0.86,0.78-1.29c0.15,0.07,0.29,0.14,0.44,0.21c-0.21,0.48-0.41,0.95-0.62,1.43
	C40.84,176.62,40.64,176.5,40.43,176.39z"/>
<path class="st7" d="M184.2,138.28c0.38-0.03,0.75-0.05,1.13-0.08c-0.04,0.48-0.08,0.97-0.15,1.83
	C184.74,139.25,184.47,138.76,184.2,138.28z"/>
<path class="st10" d="M143.89,158.36c0.11-0.38,0.21-0.76,0.32-1.14c0.16-0.01,0.31-0.06,0.45-0.13c0.21,0.19,0.42,0.39,0.63,0.58
	C145.46,159.17,144.63,158.67,143.89,158.36z"/>
<path class="st4" d="M81.76,49.88c0.18-0.29,0.37-0.58,0.55-0.87c0.31,0.42,0.96,1.12,0.88,1.21C82.6,50.91,82.16,50.38,81.76,49.88
	z"/>
<path class="st7" d="M177.58,92.18c1.25-0.25,2.5-0.49,3.74-0.74C180.25,92.57,178.98,92.7,177.58,92.18z"/>
<path class="st9" d="M118.96,133.25c0.16,0.7,0.32,1.4,0.49,2.1c-0.66,0.78-1.11,0.62-1.39-0.31
	C118.36,134.44,118.66,133.84,118.96,133.25z"/>
<path class="st4" d="M62.19,133.01c-0.52-0.81,0.13-2.13-1.15-2.61c0.32-0.05,0.65-0.11,0.97-0.16
	C62.07,131.16,62.13,132.09,62.19,133.01z"/>
<path class="st3" d="M173.17,132.23c-0.82,0.02-1.81,0.69-2.3-0.58c0.52-0.09,1.04-0.19,1.56-0.28c0.22,0.11,0.43,0.23,0.65,0.34
	c0,0,0,0,0,0C173.11,131.88,173.14,132.06,173.17,132.23z"/>
<path class="st7" d="M124.21,43.28c0.24,1.24,0.48,2.48,0.73,3.71C123.93,45.9,123.65,44.67,124.21,43.28z"/>
<path class="st11" d="M168.79,131.97c-0.33,0.08-0.67,0.16-1,0.24c0.45-1.86,1.63-0.9,2.62-0.68
	C169.87,131.68,169.33,131.83,168.79,131.97z"/>
<path class="st10" d="M46.78,146.88c-0.19,0.33-0.39,0.66-0.58,0.98c-0.16-0.08-0.31-0.16-0.47-0.23c0.26-0.57,0.51-1.14,0.77-1.7
	C46.59,146.25,46.69,146.57,46.78,146.88z"/>
<path class="st8" d="M116.97,135.1c0.14-0.5,0.27-1,0.57-2.1c0.25,1.02,0.38,1.54,0.5,2.05
	C117.69,135.07,117.33,135.09,116.97,135.1z"/>
<path class="st9" d="M40.63,106.58c0.37-0.26,0.73-0.53,1.1-0.79c-0.09,0.57-0.18,1.13-0.27,1.7
	C41.18,107.18,40.9,106.88,40.63,106.58z"/>
<path class="st8" d="M151.87,181.37c-0.14-0.82-0.29-1.64-0.43-2.46C152.43,179.58,152.68,180.38,151.87,181.37z"/>
<path class="st6" d="M104.77,46.98c-0.05-0.37-0.11-0.73-0.16-1.1c0.69-0.03,1.46-0.25,1.77,0.69c-0.19,0.1-0.38,0.19-0.57,0.29
	C105.47,46.91,105.12,46.95,104.77,46.98z"/>
<path class="st9" d="M63.64,129.79c0.3,0.38,0.6,0.77,0.91,1.15c-0.14,0.24-0.28,0.48-0.43,0.71c-0.22,0.01-0.43,0.01-0.65,0.02
	C63.53,131.04,63.58,130.41,63.64,129.79z"/>
<path class="st11" d="M174.47,92.5c0,0-0.02-0.04-0.03-0.04c-0.11,0.3-0.23,0.61-0.34,0.91c-0.8-0.19-1.6-0.38-2.4-0.56
	C172.62,92.71,173.54,92.6,174.47,92.5z"/>
<path class="st5" d="M126.7,39.6c-0.11,0.07-0.24,0.11-0.37,0.1c0.02-0.53,0.04-1.05,0.07-1.58c0.2,0.03,0.4,0.06,0.61,0.08
	C126.9,38.68,126.8,39.14,126.7,39.6z"/>
<path class="st2" d="M87.63,141.22c0.26-0.36,0.52-0.72,0.78-1.09c0.29,0.26,0.57,0.53,0.86,0.79
	C88.72,141.02,88.18,141.12,87.63,141.22z"/>
<path class="st4" d="M109.76,58.65c-0.64,0.7-1.24,1.63-2.26,0.45C108.26,58.95,109.01,58.8,109.76,58.65z"/>
<path class="st6" d="M151.76,55.88c-0.72,0.19-1.44,0.37-2.17,0.56c0.12-0.35,0.24-0.71,0.36-1.06c0.35-0.08,0.7-0.16,1.05-0.23
	C151.25,55.38,151.51,55.63,151.76,55.88z"/>
<path class="st11" d="M60.81,135.36c0,0,0.24-0.07,0.24-0.07c0.15,0.07,0.29,0.06,0.44-0.02c0,0,0.07,0.22,0.07,0.22s0,0.23,0,0.23
	c0,0.33-0.01,0.66-0.01,1c-0.15,0.03-0.31,0.05-0.46,0.08C60.99,136.33,60.9,135.85,60.81,135.36z"/>
<path class="st6" d="M150.47,82.37c0.33,0.3,0.55,0.5,0.77,0.71c-0.19,0.14-0.38,0.39-0.58,0.41c-0.2,0.01-0.51-0.17-0.59-0.35
	C150.01,83.02,150.25,82.75,150.47,82.37z"/>
<path class="st6" d="M173.98,78.8c0.94-0.08,1.89-0.17,2.83-0.25C175.87,78.63,174.92,78.71,173.98,78.8z"/>
<path class="st8" d="M113.27,139.06c-0.21-0.04-0.42-0.09-0.63-0.13c0.18-0.46,0.37-0.91,0.55-1.37
	C113.22,138.06,113.25,138.56,113.27,139.06z"/>
<path class="st6" d="M76.15,146.69c0.39-0.01,0.77-0.02,1.16-0.03c-0.16,0.44-0.32,0.87-0.68,1.85
	C76.37,147.54,76.26,147.11,76.15,146.69z"/>
<path class="st4" d="M177.78,87.2c-0.62-0.3-1.24-0.61-1.86-0.91C177.24,85.47,177.28,85.48,177.78,87.2z"/>
<path class="st11" d="M53.27,140.15c-0.3-0.02-0.6-0.04-0.9-0.06c0.26-0.23,0.48-0.51,0.78-0.67c0.13-0.07,0.38,0.11,0.58,0.17
	C53.58,139.78,53.43,139.97,53.27,140.15z"/>
<path class="st4" d="M169.78,94.3c0.92-0.04,1.85-0.09,2.77-0.13C171.63,94.22,170.71,94.26,169.78,94.3z"/>
<path class="st7" d="M163.1,150.31c0.03,0.42,0.05,0.85,0.08,1.27c-0.39-0.36-0.79-0.72-1.59-1.45
	C162.47,150.24,162.79,150.27,163.1,150.31z"/>
<path class="st5" d="M186.8,137.96c0.88-0.19,1.77-0.37,2.65-0.56C188.7,138.22,187.83,138.49,186.8,137.96z"/>
<path class="st7" d="M164.64,137.31c-0.63,0.03-1.25,0.06-1.88,0.1c0.52-0.36,1.04-0.72,1.56-1.08
	C164.43,136.65,164.53,136.98,164.64,137.31z"/>
<path class="st4" d="M158.65,119.24c-0.33,0.18-0.65,0.36-0.98,0.55c-0.07-0.2-0.15-0.4-0.22-0.6c0.58-0.22,1.16-0.43,1.74-0.65
	C159.01,118.77,158.83,119.01,158.65,119.24z"/>
<path class="st10" d="M117.71,40.77c-0.6,0.1-1.2,0.2-1.8,0.29c0.35-0.45,0.7-0.9,1.05-1.34C117.21,40.07,117.46,40.42,117.71,40.77
	z"/>
<path class="st7" d="M128.69,52.25c0.37,0.48,1.32,0.88,0.23,1.58C128.84,53.31,128.77,52.78,128.69,52.25z"/>
<path class="st4" d="M45.97,168.37c-0.34,0.28-0.67,0.56-1.01,0.85c0.09-0.29,0.19-0.59,0.28-0.88
	C45.49,168.35,45.73,168.36,45.97,168.37z"/>
<path class="st11" d="M125.41,134.28c0.42-0.12,0.83-0.23,1.25-0.35C126.54,135.12,126,134.8,125.41,134.28z"/>
<path class="st6" d="M157.38,117.5c-0.67,0.24-1.35,0.49-2.02,0.73C155.73,117.18,156.51,117.21,157.38,117.5z"/>
<path class="st7" d="M182.13,138.52c-0.04-0.15-0.05-0.31-0.05-0.47c0.7,0.07,1.4,0.14,2.1,0.21
	C183.49,138.35,182.81,138.44,182.13,138.52z"/>
<path class="st2" d="M167.92,158.81c0.4,0.29,0.8,0.58,1.21,0.87c-0.18,0.04-0.37,0.08-0.55,0.13
	C168.36,159.47,168.14,159.14,167.92,158.81z"/>
<path class="st6" d="M178.85,178.68c0.27-0.46,0.53-0.91,0.8-1.37C180.83,178.62,179.22,178.29,178.85,178.68z"/>
<path class="st11" d="M62.68,135.68c-0.01,0.73-0.01,1.45-0.02,2.18C62.67,137.13,62.68,136.41,62.68,135.68z"/>
<path class="st6" d="M60.39,141.45c-0.31,0.25-0.62,0.51-0.94,0.76c-0.06-0.36-0.11-0.73-0.17-1.09
	C59.65,141.23,60.02,141.34,60.39,141.45z"/>
<path class="st8" d="M44,117.89c-0.53,0.25-1.07,0.5-1.6,0.75C42.93,118.39,43.47,118.14,44,117.89z"/>
<path class="st5" d="M115.61,43.93c0.36-0.1,0.73-0.2,1.09-0.31c-0.26,0.46-0.51,0.92-0.77,1.38
	C115.82,44.65,115.72,44.29,115.61,43.93z"/>
<path class="st6" d="M86.25,142.13c0.12-0.26,0.24-0.52,0.37-0.77c0.36,0,0.73,0,1.09,0C87.23,141.61,86.74,141.87,86.25,142.13z"/>
<path class="st5" d="M137.74,147.05c0.1-0.56,0.2-1.12,0.3-1.68C137.94,145.93,137.84,146.49,137.74,147.05z"/>
<path class="st8" d="M93.53,39.87c0.27,0.3,0.53,0.6,0.8,0.9c-0.18,0.02-0.36,0.03-0.53,0.05c0,0,0.03,0.02,0.03,0.02
	C93.73,40.52,93.63,40.19,93.53,39.87z"/>
<path class="st8" d="M92.23,38.44c0.31,0.42,0.61,0.83,0.92,1.25C92.84,39.28,92.53,38.86,92.23,38.44z"/>
<path class="st4" d="M113,55.79c-0.54,0.21-1.08,0.41-1.61,0.62C111.92,56.2,112.46,56,113,55.79z"/>
<path class="st7" d="M164.25,133.91c0.18-0.03,0.36-0.06,0.54-0.09c-0.01,0.56-0.01,1.12-0.02,1.67
	C164.59,134.96,164.42,134.44,164.25,133.91z"/>
<path class="st10" d="M190.96,72.49c-0.6,0.03-1.19,0.07-1.79,0.1C189.77,72.56,190.37,72.53,190.96,72.49z"/>
<path class="st8" d="M132.42,46.11c-0.28-0.49-0.56-0.98-0.85-1.47C131.86,45.13,132.14,45.62,132.42,46.11z"/>
<path class="st6" d="M151.15,70.4c-0.01-0.19-0.03-0.38-0.04-0.57c0.22,0.34,0.45,0.67,0.67,1.01
	C151.57,70.69,151.36,70.55,151.15,70.4z"/>
<path class="st6" d="M106.7,48.27c-0.1-0.35-0.21-0.71-0.31-1.06c0.14-0.08,0.28-0.15,0.43-0.21
	C106.77,47.42,106.73,47.84,106.7,48.27z"/>
<path class="st4" d="M170.06,168.19c0.05,0.34,0.1,0.68,0.16,1.02C169.61,168.95,169.61,168.94,170.06,168.19z"/>
<path class="st2" d="M106.81,46.99c-0.15,0.06-0.29,0.13-0.43,0.21c-0.19-0.11-0.38-0.22-0.57-0.33c0.19-0.1,0.38-0.19,0.57-0.29
	C106.52,46.72,106.67,46.86,106.81,46.99z"/>
<path class="st7" d="M164.95,146.3c0.16,0.16,0.32,0.33,0.48,0.49C165.27,146.63,165.11,146.46,164.95,146.3z"/>
<path class="st8" d="M41.58,118.77c-0.46,0.07-0.92,0.14-1.38,0.21c-0.02-0.17,0.04-0.3,0.17-0.4c0.32-0.06,0.64-0.12,0.95-0.19
	C41.46,118.48,41.54,118.61,41.58,118.77z"/>
<path class="st10" d="M41.32,118.39c-0.32,0.06-0.64,0.12-0.95,0.19C40.68,118.52,41,118.45,41.32,118.39z"/>
<path class="st8" d="M165.75,47.75c-0.17,0.23-0.35,0.47-0.52,0.7c0.03-0.32,0.06-0.64,0.08-0.97
	C165.47,47.57,165.61,47.66,165.75,47.75z"/>
<path class="st5" d="M107.53,58.01c-0.05-0.25-0.09-0.5-0.14-0.75c0.24,0.08,0.47,0.17,0.71,0.26
	C107.91,57.68,107.72,57.85,107.53,58.01z"/>
<path class="st9" d="M117.61,57.67c-0.23-0.3-0.47-0.6-0.7-0.9C117.15,57.07,117.38,57.37,117.61,57.67z"/>
<path class="st11" d="M61.85,134.77c0.09-0.43,0.17-0.86,0.26-1.28c0,0.43-0.01,0.86-0.01,1.29
	C62.1,134.78,61.85,134.77,61.85,134.77z"/>
<path class="st11" d="M46.78,146.88c-0.1-0.32-0.19-0.63-0.29-0.95c0.19-0.09,0.38-0.18,0.57-0.27c0,0-0.03-0.02-0.03-0.02
	C46.95,146.05,46.87,146.47,46.78,146.88z"/>
<path class="st2" d="M45.97,168.37c-0.24-0.01-0.48-0.03-0.73-0.04c0.25-0.33,0.5-0.66,0.75-0.99c0.11,0.1,0.22,0.19,0.33,0.29
	C46.21,167.88,46.09,168.13,45.97,168.37z"/>
<path class="st6" d="M59.47,142.19c0.1,0.32,0.19,0.64,0.29,0.96c-0.29,0-0.59,0.01-0.88,0.01
	C59.08,142.84,59.28,142.51,59.47,142.19z"/>
<path class="st8" d="M132.88,51.5c0.12-0.38,0.24-0.77,0.36-1.15C133.12,50.73,133,51.11,132.88,51.5z"/>
<path class="st4" d="M27.56,114.45c-0.08-0.35-0.17-0.7-0.25-1.05c0.19-0.03,0.38-0.07,0.57-0.1c0,0-0.03-0.03-0.03-0.03
	C27.75,113.66,27.65,114.05,27.56,114.45z"/>
<path class="st7" d="M124.47,42.08c-0.09,0.4-0.17,0.81-0.26,1.21C124.3,42.88,124.39,42.48,124.47,42.08z"/>
<path class="st7" d="M124.94,46.98c0.23,0.33,0.47,0.66,0.7,1C125.4,47.65,125.17,47.31,124.94,46.98z"/>
<path class="st8" d="M47.89,114.39c0.66,0.32,0.72,0.69,0.11,1.13C47.96,115.14,47.93,114.76,47.89,114.39z"/>
<path class="st9" d="M41.82,107.86c0.19,0.15,0.38,0.3,0.57,0.45c-0.04,0.15-0.07,0.31-0.08,0.46
	C42.15,108.47,41.98,108.16,41.82,107.86z"/>
<path class="st5" d="M118.77,43.06c-0.37,0.05-0.73,0.1-1.1,0.15C118.04,43.16,118.4,43.11,118.77,43.06z"/>
<path class="st7" d="M95.06,41.7c0.23,0.34,0.46,0.67,0.68,1.01C95.51,42.37,95.29,42.04,95.06,41.7z"/>
<path class="st4" d="M140.89,137.21c-0.19-0.03-0.38-0.06-0.1-0.02c-0.25-0.12-0.08-0.04,0.09,0.04
	C140.87,137.23,140.89,137.21,140.89,137.21z"/>
<path class="st8" d="M35.36,141.78c0.08,0.39,0.16,0.78,0.24,1.16C35.51,142.56,35.43,142.17,35.36,141.78z"/>
<path class="st7" d="M122.93,62.05c-0.29-0.14-0.57-0.28-0.86-0.41C122.36,61.77,122.64,61.91,122.93,62.05z"/>
<path class="st7" d="M123.04,62.9c-0.04-0.29-0.07-0.57-0.11-0.86c0.17,0.19,0.34,0.39,0.51,0.58
	C123.33,62.76,123.2,62.85,123.04,62.9z"/>
<path class="st11" d="M40.75,86.3c-0.11,0.23-0.22,0.46-0.33,0.69C40.53,86.76,40.64,86.53,40.75,86.3z"/>
<path class="st3" d="M42.31,108.77c0.01-0.16,0.04-0.31,0.08-0.46c0.15,0.15,0.29,0.3,0.44,0.45
	C42.66,108.77,42.48,108.77,42.31,108.77z"/>
<path class="st5" d="M140.84,149.2c-0.09,0.24-0.18,0.47-0.27,0.71C140.66,149.67,140.75,149.44,140.84,149.2z"/>
<path class="st5" d="M45.85,113.11c0.21,0.16,0.42,0.32,0.63,0.47C46.27,113.43,46.06,113.27,45.85,113.11z"/>
<path class="st6" d="M49.36,126.12c-0.02,0.07-0.04,0.13-0.06,0.2c0.03-0.06,0.05-0.12,0.08-0.18
	C49.37,126.13,49.36,126.12,49.36,126.12z"/>
<path class="st11" d="M69.68,49.18c-0.13,0.21-0.26,0.43-0.39,0.64C69.42,49.6,69.55,49.39,69.68,49.18z"/>
<path class="st9" d="M146.26,157.52c0.22,0.14,0.45,0.28,0.67,0.41C146.71,157.79,146.49,157.66,146.26,157.52z"/>
<path class="st11" d="M125.63,48.01c0.2,0.14,0.4,0.28,0.6,0.42C126.03,48.29,125.83,48.15,125.63,48.01z"/>
<path class="st7" d="M124.93,41.01c-0.12,0.22-0.23,0.44-0.35,0.65C124.7,41.45,124.81,41.23,124.93,41.01z"/>
<path class="st2" d="M101.99,46.97c-0.19-0.16-0.39-0.32-0.58-0.48C101.6,46.65,101.8,46.81,101.99,46.97z"/>
<path class="st10" d="M25.19,126.45c-0.13-0.21-0.26-0.41-0.39-0.62C24.93,126.03,25.06,126.24,25.19,126.45z"/>
<path class="st5" d="M136.98,147.8c0.12-0.18,0.24-0.36,0.37-0.54C137.22,147.44,137.1,147.62,136.98,147.8z"/>
<path class="st8" d="M45.01,74.48c-0.16,0.23-0.32,0.46-0.48,0.69C44.7,74.95,44.85,74.71,45.01,74.48z"/>
<path class="st5" d="M116.69,42.57c0.08-0.19,0.17-0.38,0.25-0.57C116.86,42.2,116.77,42.39,116.69,42.57z"/>
<path class="st7" d="M89.07,44.96c-0.16,0.19-0.32,0.39-0.48,0.58C88.75,45.35,88.91,45.16,89.07,44.96z"/>
<polygon class="st6" points="107.38,144.64 107.48,144.49 107.37,144.63 "/>
<path class="st7" d="M88.57,45.57c-0.1,0.23-0.2,0.46-0.3,0.7C88.37,46.04,88.47,45.8,88.57,45.57z"/>
<path class="st5" d="M152.71,130.1c0.12-0.19,0.25-0.38,0.37-0.57C152.96,129.72,152.84,129.91,152.71,130.1z"/>
<path class="st6" d="M57.09,120.86c0.04,0.16,0.09,0.32,0.16,0.47c-0.23-0.08-0.46-0.17-0.69-0.25
	C56.73,121,56.91,120.93,57.09,120.86z"/>
<path class="st5" d="M153.13,129.5c0.14-0.19,0.27-0.38,0.41-0.57C153.4,129.13,153.27,129.31,153.13,129.5z"/>
<path class="st8" d="M77.69,146.31c0.18-0.16,0.36-0.31,0.55-0.47C78.06,146,77.87,146.15,77.69,146.31z"/>
<path class="st9" d="M140.97,60.35c-0.17-0.17-0.34-0.35-0.5-0.52C140.64,60.01,140.8,60.18,140.97,60.35z"/>
<path class="st4" d="M60.41,54.81c-0.13-0.22-0.26-0.43-0.4-0.65C60.15,54.38,60.28,54.6,60.41,54.81z"/>
<path class="st6" d="M144.37,68.93c-0.2,0-0.41,0-0.61,0C143.96,68.93,144.16,68.93,144.37,68.93z"/>
<path class="st11" d="M70.03,48.51c-0.11,0.22-0.23,0.44-0.34,0.65C69.8,48.95,69.91,48.73,70.03,48.51z"/>
<path class="st2" d="M51.17,66.35c-0.13,0.21-0.26,0.42-0.39,0.63C50.91,66.77,51.04,66.56,51.17,66.35z"/>
<path class="st4" d="M63.47,131.67c0.22-0.01,0.43-0.01,0.65-0.02C63.9,131.66,63.69,131.66,63.47,131.67z"/>
<path class="st7" d="M163.18,151.58c0.2,0.17,0.4,0.34,0.6,0.5C163.58,151.92,163.38,151.75,163.18,151.58z"/>
<path class="st8" d="M192.46,144.9c0.12-0.08,0.23-0.18,0.36-0.24c0.03-0.02,0.13,0.1,0.19,0.15
	C192.83,144.83,192.65,144.86,192.46,144.9z"/>
<path class="st2" d="M51.51,65.21c0.19,0.01,0.38,0.02,0.58,0.03c-0.16,0.16-0.32,0.32-0.48,0.48
	C51.51,65.56,51.48,65.39,51.51,65.21z"/>
<path class="st2" d="M155.95,109.81c-0.23-0.09-0.46-0.18-0.69-0.27C155.49,109.63,155.72,109.72,155.95,109.81z"/>
<path class="st6" d="M78.08,55.77c-0.23-0.1-0.46-0.21-0.69-0.31C77.62,55.57,77.85,55.67,78.08,55.77z"/>
<path class="st5" d="M188.19,153.93c0.11-0.09,0.22-0.19,0.34-0.27c0.02-0.01,0.11,0.11,0.17,0.17c0,0,0.02-0.02,0.02-0.02
	c-0.18,0.04-0.37,0.07-0.55,0.11C188.18,153.92,188.19,153.93,188.19,153.93z"/>
<path class="st8" d="M187.15,150.94c0.14-0.21,0.29-0.43,0.43-0.64C187.44,150.52,187.3,150.73,187.15,150.94z"/>
<path class="st4" d="M173.9,86.77c-0.04-0.13-0.08-0.25-0.11-0.38c0.22,0.1,0.44,0.2,0.65,0.3
	C174.26,86.72,174.08,86.75,173.9,86.77z"/>
<path class="st7" d="M164.11,150.47c-0.08-0.12-0.14-0.25-0.18-0.39c0.2-0.13,0.41-0.26,0.61-0.39
	C164.39,149.96,164.25,150.22,164.11,150.47z"/>
<path class="st9" d="M84.33,54.14c-0.19,0.05-0.38,0.09-0.57,0.14C83.95,54.23,84.14,54.19,84.33,54.14z"/>
<path class="st2" d="M156.61,110.82c-0.03-0.19-0.07-0.37-0.1-0.56C156.55,110.44,156.58,110.63,156.61,110.82z"/>
<path class="st5" d="M185.56,156.12c0.09-0.18,0.18-0.35,0.27-0.53C185.74,155.77,185.65,155.94,185.56,156.12z"/>
<path class="st6" d="M182.87,142.84c-0.24-0.09-0.47-0.19-0.71-0.28C182.4,142.66,182.64,142.75,182.87,142.84z"/>
<path class="st5" d="M184.91,156.74c0.17-0.14,0.34-0.28,0.52-0.43C185.26,156.45,185.08,156.6,184.91,156.74z"/>
<path class="st2" d="M106.68,48.78c-0.13,0.04-0.27,0.07-0.4,0.11c0.1-0.22,0.2-0.44,0.29-0.66
	C106.61,48.42,106.65,48.6,106.68,48.78z"/>
<path class="st4" d="M168.26,94.89c0.18-0.17,0.37-0.34,0.55-0.51C168.63,94.55,168.44,94.72,168.26,94.89z"/>
<path class="st10" d="M174.9,132.4c-0.23-0.11-0.46-0.23-0.69-0.34C174.44,132.17,174.67,132.28,174.9,132.4z"/>
<path class="st6" d="M151.09,69.82c-0.18-0.15-0.37-0.3-0.55-0.45C150.72,69.52,150.9,69.67,151.09,69.82z"/>
<path class="st10" d="M173.17,132.23c-0.03-0.18-0.06-0.35-0.09-0.53c0.22,0.13,0.43,0.26,0.65,0.39
	C173.54,132.14,173.36,132.19,173.17,132.23z"/>
<path class="st6" d="M179.55,164.93c0.12-0.15,0.25-0.3,0.37-0.46C179.8,164.62,179.67,164.77,179.55,164.93z"/>
<path class="st10" d="M173.08,131.7c-0.22-0.11-0.43-0.23-0.65-0.34C172.65,131.48,172.86,131.59,173.08,131.7z"/>
<path class="st4" d="M110.85,56.66c-0.15,0.15-0.31,0.29-0.46,0.44C110.54,56.95,110.7,56.8,110.85,56.66z"/>
<polygon class="st10" points="148.12,54.02 148.13,54.04 148.2,54.1 "/>
<path class="st4" d="M110.06,57.93c-0.1,0.24-0.19,0.48-0.29,0.72C109.87,58.4,109.96,58.16,110.06,57.93z"/>
<path class="st10" d="M57.82,61.74c-0.13,0.2-0.26,0.4-0.39,0.61C57.56,62.14,57.69,61.94,57.82,61.74z"/>
<path class="st8" d="M168.57,159.81c0.18-0.04,0.37-0.08,0.55-0.13c0,0,0.12,0.21,0.12,0.21s0.01,0.24,0.01,0.24
	C169.03,160.03,168.8,159.92,168.57,159.81z"/>
<path class="st2" d="M151.84,71.29c-0.1-0.08-0.13-0.18-0.09-0.3c0,0,0.21,0.09,0.21,0.09L151.84,71.29z"/>
<path class="st10" d="M58.26,61.08c-0.14,0.21-0.27,0.41-0.41,0.62C57.98,61.5,58.12,61.29,58.26,61.08z"/>
<path class="st7" d="M150.25,134.45c-0.01,1.07-0.02,2.13-0.03,3.19c-0.25,0.22-0.67,0.67-0.71,0.64c-1.02-0.84-1.5,0.49-2.28,0.54
	c-0.14-0.94-0.29-1.89-0.43-2.83C148.92,136.52,148.92,136.52,150.25,134.45z"/>
<path class="st2" d="M40.77,99.99c0.13-0.24,0.25-0.47,0.38-0.71c0.63,0.03,1.13,0.31,0.79,0.98c-0.66,1.31-0.41,2.71-0.6,4.07
	C40.14,103.01,40.19,101.53,40.77,99.99z"/>
<path class="st7" d="M136.45,133.65c-0.19,0.05-0.39,0.11-0.58,0.16c-0.2,0.01-0.4,0.01-0.59,0.02c0.09-0.52,0.18-1.03,0.27-1.55
	c1.08-0.4,2.12-0.47,3.02,0.43c-0.32,0.14-0.65,0.26-0.97,0.41C137.21,133.29,136.83,133.47,136.45,133.65z"/>
<path class="st7" d="M136.35,66.72c-0.9,1.05,0.62,1.62,0.5,2.51c-0.49-0.35-1.13-0.6-1.42-1.06
	C134.83,67.22,135.21,66.67,136.35,66.72z"/>
<path class="st3" d="M42.42,77.81c-0.24-1.14,0.58-1.23,1.35-1.38C44.01,77.56,43.16,77.64,42.42,77.81z"/>
<path class="st10" d="M52.33,119.08c-0.37,0.01-0.73,0.03-1.1,0.04c0.24-0.35,0.48-0.71,0.72-1.06
	C52.08,118.4,52.2,118.74,52.33,119.08z"/>
<path class="st9" d="M100.9,138.82c0.02,0.15,0.01,0.29-0.01,0.44c-0.72,0.09-1.43,0.18-2.15,0.27
	C99.46,139.3,100.18,139.06,100.9,138.82z"/>
<path class="st7" d="M103.31,139.88c-0.26-0.31-0.53-0.61-0.79-0.92C102.79,139.27,103.05,139.58,103.31,139.88z"/>
<path class="st9" d="M105.95,53.27c0.07,0.35,0.14,0.7,0.2,1.05c-0.22-0.16-0.43-0.32-0.65-0.48
	C105.66,53.65,105.81,53.46,105.95,53.27z"/>
<path class="st7" d="M135.54,132.28c-0.36,0.04-0.71,0.07-1.07,0.11C134.82,132.35,135.18,132.32,135.54,132.28z"/>
<path class="st3" d="M41.79,105.76c-0.08-0.36-0.15-0.72-0.23-1.07C41.64,105.05,41.71,105.41,41.79,105.76z"/>
<polygon class="st8" points="113.47,136.39 113.32,136.3 113.45,136.41 "/>
<path class="st3" d="M41.67,78.59c0-0.13,0.01-0.25,0.01-0.38c0.11,0.07,0.22,0.15,0.32,0.22C41.9,78.49,41.79,78.54,41.67,78.59z"
	/>
<path class="st8" d="M108.62,139.45c-0.18-0.03-0.36-0.06-0.54-0.09c0.13-0.03,0.27-0.09,0.4-0.09
	C108.52,139.27,108.57,139.39,108.62,139.45z"/>
<path class="st10" d="M53.08,119.27c-0.24-0.06-0.49-0.12-0.73-0.18C52.59,119.15,52.83,119.21,53.08,119.27z"/>
<path class="st7" d="M136.72,66.03c-0.12,0.23-0.24,0.46-0.36,0.68C136.48,66.48,136.6,66.26,136.72,66.03z"/>
<path class="st2" d="M154.03,99.8c0.03,0.19,0.05,0.39,0.08,0.58C154.08,100.19,154.06,99.99,154.03,99.8z"/>
<path class="st9" d="M116.03,63.62c0.2-0.06,0.41-0.12,0.61-0.18C116.44,63.5,116.24,63.56,116.03,63.62z"/>
<path class="st3" d="M141.45,145.34c-0.18-1.34-0.25-2.62,1.49-3.02c0.28,0.71,0.56,1.43,0.9,2.31
	C142.94,144.9,142.2,145.12,141.45,145.34z"/>
<path class="st7" d="M144.24,137.67c0.81,0.44,1.63,0.87,2.44,1.31c-0.37,0.26-0.75,0.53-1.12,0.79c-0.14-0.02-0.28-0.05-0.42-0.09
	c-0.21-0.15-0.41-0.3-0.62-0.45c0,0,0.03,0.02,0.03,0.02c-0.25-0.31-0.5-0.62-0.75-0.93C143.95,138.1,144.09,137.89,144.24,137.67z"
	/>
</svg>
