<?xml version="1.0" encoding="UTF-8"?><svg id="Layer_1" xmlns="http://www.w3.org/2000/svg" viewBox="0 0 303.89 271.28"><defs><style>.cls-1{fill:#ffe5ab;}.cls-2{fill:#e2e9d4;}.cls-3{fill:#b3d9e9;}.cls-4{fill:#cbdab3;}.cls-5{fill:#c6d7ab;}.cls-6{fill:#cfe5ef;}.cls-7{fill:#d2debb;}.cls-8{fill:#d8e3c5;}.cls-9{fill:#c8d8ae;}</style></defs><path class="cls-5" d="m58.07,78.58c.14-.49.21-1.01.42-1.47.65-1.38.43-1.84-1.03-2.19-1.37-.32-2.75-.65-4.09-1.08-1.99-.63-2.26-1.26-1.34-3.05.27-.53.71-.97,1.34-1.79.24,2.4,1.96,2.69,3.42,3.4,1.34.65,2.21,2.35,4.1,1.87-.06-2.39-.25-2.9-1.86-4.89,1.82-1.52-.2-4.26,2.32-5.8-4.05-.62-5.25-3.55-6.51-6.35-.43-.95-.45-2.09-.82-3.08-.28-.74-.47-1.39.23-1.91.82-.61,1.69-.51,2.47.1,1.5,1.18,2.04,2.85,2.27,4.65.05.35-.02.71-.02,1.07.03,1.99.71,2.86,2.66,3.36,1.63.42,3.04-.26,3.91-1.9.12-.23.15-.57.34-.71,3.75-2.83,3.6-7.46,5.21-11.27.34-.8.67-1.64.8-2.49.14-.91.03-1.85.03-2.73,1.36-.95,2.65-1.86,3.95-2.77.2-1.69-.68-2.52-1.98-3.39-3.95-2.66-8.05-3.88-12.81-2.59-2.05.56-4.09.15-5.61-1.62-1.22-1.43-.94-2.63.81-3.3,1.64-.63,3.25-1.52,4.95-1.77,2.2-.33,4.46-.07,6.18,1.7,2.11,2.18,5.93,1.49,7.22-1.32.33-.71.59-1.44.9-2.2,1.86.02,2.87,1.12,3.85,2.28.05.16.15.28.3.35.59,1.49.52,3.14,2.19,4.3,2.39,1.67,3.36,1.57,4.22-1.23.16-.05.35-.19.48-.15.77.25,1.69.68,2.12-.26.29-.63.4-1.79.02-2.22-1.27-1.45-.78-3.06-.7-4.59.09-1.79,2.56-3.33,4.86-3.26,2.15.07,3,1.04,3.17,3.43.1,1.37.34,2.73.6,4.74-.85,2.29-.35,3.25,2.71,4.03.6.15,1.2.3,1.78.5,1.01.34,1.85.17,2.73-.5,1.04-.79,2.22-1.39,3.34-2.08.38,0,.76,0,1.14,0,.58-.08,1.51-.44,1.7-.2.99,1.24,2.04.37,3.07.28.36.02.73.04,1.09.06.19-.03.37-.06.56-.09,1.8-.49,3.61-.54,5.41.01,1.29.4,2.55.76,3.53-.88-.13,1.8.71,2.76,1.89,3.74,2.35,1.94,4.53,4.09,6.91,6.28.13-.05.6-.24.76-.3,1.31,1.61,2.57,3,3.65,4.52.75,1.05,1.48,2.21,1.8,3.44.39,1.51.89,2.25,2.55,1.69.31-.11.82.36,1.64.76-1.1.77-1.86,1.3-2.77,1.94-.22,1.23-.47,2.6-.72,3.97-.88,2.86-1.05,5.76-.45,8.71-.03.14-.07.28-.12.42-1.19-.1-1.71.46-1.57,1.64-.45,1.83-1.88,3.09-3.2,4.07-1.82,1.36-1.87,2.81-1.37,4.82.68.15,1.41.31,2.29.5-1.41,2.31-.56,4.47.15,6.64.18,1.09.36,2.18.54,3.27-.37.35-.74.69-1.11,1.04-1.49.4-1.3,1.7-1.5,2.79.14,1.81-1.28,2.44-2.75,3.1,2.92,1.49,4.62,3.59,5.46,6.41-1.01-.31-2.14-.44-3.01-.98-.78-.48-1.3-1.41-2.15-2.39-.13,1.61-.22,2.79-.31,3.97-1.08,2.49-3.2,4.52-3.35,7.43-1.37.46-2.94.59-3.64,2.18-1.06.03-1.73.71-1.84,1.62-.2,1.69-1.1,2.62-2.6,3.27-.45.19-.65.97-.96,1.48-1.11.25-2.25.43-3.33.77-.32.1-.5.63-.74.96.4.26.88.82,1.17.73,1.89-.54,1.82.78,1.98,1.93.01.58.15,1.19.01,1.73-.2.84.03,1.57.77,1.72,1.38.28,1.41,1.42,1.84,2.33.44,1.41.89,2.82,1.44,4.58,1.43-.32,2.69-.61,3.94-.89,1.75-.32,3.51-.66,5.27-.94.67-.11,1.16-.31,1.17-1.09,0,0,.24,0,.24,0l.24-.03c1.02.18,1.96.36,3.08.24,1.45-.16,3.11-.49,4.59.52.4.28,1.28-.14,1.94-.24.46.01.91.03,1.37.04-.01.42-.21,1.03,0,1.23.93.91,1.98,1.7,2.98,2.54.13,0,.26.02.4.03.39.54.77,1.07,1.16,1.61.34.35.68.7,1.02,1.05.36.25.71.49,1.07.74.6,1.01,1.2,2.02,1.81,3.03.56,1.91,1.4,3.73,1.17,5.85-.05.49.88,1.32,1.53,1.59.67.28,1.55.06,2.54.06.97.65,2.22,1.5,3.42,2.32-.25-2.84-.49-5.59-.77-8.68.95-.14,2.08-.64,2.49-.29.81.7,1.52,1.81,1.71,2.85.22,1.26-.08,2.63-.28,3.94-.23,1.49,1.13,3.68,2.64,4.09,1.65.44,2.79-.24,3.61-2.15.37-.17.74-.34,1.11-.52,2.78-1.21,4.48-4.26,3.79-6.94,1.82-1.95,4.88-3.06,4.86-6.54,1.18-.41,2.33-.84,3.5-1.21,1.23-.39,1.43-1.3,1.12-2.33-.86-2.83-6.92-7.03-10.02-7.01-.08,0-.16.08-.35.18-.13.45-.27.99-.34,1.22-1.36-.69-2.59-1.45-3.92-1.96-1.5-.58-2.68-1.43-3.26-2.94-.53-1.39,0-2.3,1.43-2.48,1.67-.21,3.34-.47,5.02-.52,2.46-.07,4.52.74,5.85,3.01,1.42,2.43,5.35,2.64,7.2.43.5-.6.94-1.24,1.48-1.95,1.86,1.12,2.91,2.32,3.09,4.49.14,1.77,1.05,3.47,1.55,5,2.02.48,3.47.5,3.88-1.79.8.36,1.48.67,2.56,1.16.26-1.03.94-2.19.61-2.68-1.37-2.05-.16-3.79.75-5.18,1.01-1.54,3.05-1.67,4.9-1.39,1.51.23,2.31.93,2.21,2.49-.15,2.44.52,5-.92,7.3-.24.38-.27,1.29-.02,1.5,1.33,1.11,2.72,2.19,4.24,3.01.55.3,1.53-.06,2.27-.27,1.36-.39,2.69-.89,4.03-1.35.81.48,1.57,1.07,2.43,1.42.95.39,1.99.56,2.99.83.71,0,1.41-.02,2.12-.03.56.16,1.12.31,1.68.47.85.38,1.67.85,2.55,1.11,1.07.31,2.19.43,3.28.64l-.02-.02c.09,2.6,2.14,4.18,3.29,6.22.56.98,1.26,1.89,1.95,2.79,1.67,2.17,3.51,4.23,4.31,6.94.24.81.68,1.64.65,2.45-.07,1.82.22,3.18,2.41,3.3.34.02.66.26,1.41.57-1.66,1-2.89,1.39-3.56,2.23-.72.91-.91,2.23-1.33,3.38-.7.51-1.41,1.03-1.99,1.45.01,2.33.17,4.44-1.82,6-.55.43-.69,1.39-1.02,2.1-.7,1.6-2.31,2.26-3.66,2.84-1.74.75-2.47,1.76-2.45,3.53,0,.26-.08.51-.14.88.77.33,1.53.66,2.61,1.14-.84.6-1.42,1.02-2.17,1.57,1.28,1.56-.83,3.45.52,5.12-.19.92-.37,1.83-.56,2.74-.76.89-1.37,2.01-2.31,2.62-1.34.88-1.72,3.03-3.81,2.87-.58,1.34-1.68,2.49-1.42,4.12-.54,1.04-1.09,2.08-1.63,3.12-.2.29-.38.6-.62.86-1,1.12-2.27,2.08-2.96,3.36-.67,1.25-.75,2.82-1.17,4.61-.7-.43-1.27-.73-1.79-1.1-2.33-1.67-3.21-1.41-4.29,1.21-.18.45-.54.95-.95,1.14-.7.33-1.57.31-2.24.68-.68.37-1.2,1.03-1.89,1.15-1.32.16-2.64.32-3.96.48-.52.56-1.05,1.12-1.57,1.67-.52.04-1.04.09-1.56.13-.3-.61-.65-.81-1.1-.13-.6-.54-1.2-1.09-1.89-1.72-.74.19-1.57.39-2.39.6-.75-.12-1.5-.24-2.25-.36-.87-.27-1.74-.55-2.62-.82-.86-.7-1.17.06-1.55.6-.35-.03-.7-.05-1.05-.08-.07-1.79-1.35-1.96-2.7-2.01-.18.02-.36.03-.53.05-.66-1.11-1.33-2.21-1.99-3.32-1.04-1.76-2.63-1.96-4.44-1.61-.99-.08-1.82-.36-2.26-1.41-.13-.31-.64-.47-.98-.69-.57-.17-1.15-.34-1.72-.51.4-1.69-.74-2.87-1.55-4.03-1.35-1.95-2.97-3.71-4.56-5.65-1.42.53-3.03.21-4.09,1.93-.48.78-2.01.91-3.07,1.33-.55.57-1.11,1.15-1.66,1.72-1.25-.68-2.48-.58-3.84-.18-2.95.87-5.96,1.55-8.95,2.31-1.08-.39-2.16-.79-3.24-1.18-4.46-1.28-8.92-2.56-13.37-3.84-.61-1.11-.19-2.91-2.11-3.15-.9-.19-1.8-.38-2.7-.57-.05-.71-.09-1.42-.14-2.13-.72-3-1.74-3.93-4.65-4.29-1.36-.17-2.77-1.01-3.98.37-2-1.01-3.74.86-5.9.4-1.88-.4-3.49-1.18-5.2-1.86-.35-.14-.87-.69-.8-.89.18-.54.59-1.37.96-1.41,1.11-.1,2.25.07,3.36.28.48.09.93.47,1.36.78,1.86,1.36,2.56,1.4,4.26.18,1.08-.77,1.43-2.5.73-4.11-1.47-3.38-3.07-6.68-5.82-9.28-.61-.58-.91-1.48-1.35-2.23-.19-.13-.38-.26-.57-.39,0,0-.04.02-.04.02,0-1.06.14-2.14-.03-3.17-.09-.58-.68-1.09-1.04-1.63-4.5-.25-8.78,2.38-10.46,6.71-.7,1.79-1.85,2.83-3.61,3.15-.67.12-1.64-.15-2.12-.61-.31-.29-.04-1.27.1-1.92.1-.51.49-.96.58-1.46.64-3.32,2.08-4.84,5.41-5.4,1.48-.25,1.79-1.2,1.98-2.74-1.28.1-2.41.14-3.52.28-1.97.24-3.88,1.01-5.68-.9-.55-.58-2.32-.01-3.53.03-.21-.51-.42-1.01-.63-1.52-.12-1.78-2.07-1.78-2.75-3.02-1.57.35-3.03.68-4.49,1.01-.17.04-.46.06-.49.16-.58,1.62-2.44,1.46-3.56,2.53-1.31,1.25-3.67,1.43-5.61,1.97-.56.15-1.25.03-1.83-.15-.51-.15-1.28-.51-1.32-.85-.06-.47.38-1.36.76-1.45,1.34-.35,2.76-.64,4.14-.58,1.8.07,2.95-.3,3.71-1.7.57-1.06.22-2.26-1-3.58-2.36-2.56-5.24-4.39-8.28-6.01-.92-.49-2.02-.7-2.81-1.32-.63-.49-.92-1.42-1.34-2.17-.21-.38-.35-.8-.53-1.24-2.17-.71-3.36.74-4.51,2.05-.99,1.13-1.77,2.45-2.65,3.69-.28.21-.57.42-.85.63.27.15.53.3.8.44,0,.98.06,1.96-.04,2.92-.24,2.36-2.09,3.94-4.49,3.8-.24-1.88-.48-3.79-.72-5.69.74-1.26,1.48-2.53,2.23-3.79,1.46-.19,2.17-.99,1.94-2.48-.14-.93-.37-1.84-.55-2.76.81-.7.85-1.31-.3-1.59-.56-.14-1.18-.05-1.78-.06-.07-.14-.12-.29-.17-.44.24-.22.47-.43.71-.65,1.3-1.47,3.08-1.11,4.73-1.23,1.45.98,1.75.83,2.16-1.08-.03-1.16-.06-2.31-.09-3.47l1.06-1.28c-.54-.3-1.08-.59-1.62-.89-.29.01-.57.02-.86.03-.27-.19-.66-.61-.81-.53-1.54.75-3.47.56-4.73,2.06-.31.37-1.14.3-2.02.49.25-1.15.52-1.82.5-2.49-.02-.78-.35-1.54-.44-2.32-.28-2.57.86-3.75,3.41-3.76,1.33,0,2.32.46,3.31,1.34.64.58,1.78,1.72,2.35-.24,2.16-.88,2.33-1.17,1.61-2.77.01-.14,0-.28,0-.43,2.23-.35,2.32-.54,1.53-2.4-.41-.96-.68-1.98-1.02-2.98.64-1.4,1.82-2.6,1.62-4.31-.1-1.9.32-3.68,1.1-5.42.33-.73.32-1.62.49-2.64,1.23.46,2.27-.39,3.38-1.28,1.17-.93,2.42-1.87,3.79-2.4,1.35-.53,1.55-2.13,2.99-2.59-1.29-3.59-2.58-7.17-3.87-10.75-.3-.57-.6-1.13-.9-1.7l-.06-1.04c-.13-3.22-1.93-5.53-4.14-7.62Z"/><path class="cls-9" d="m44.56,140.26c-.24.22-.47.43-.71.65-1,.18-.95.92-.72,1.59.24.73.6,1.45,1.02,2.09.77,1.15,1,2.34.55,3.65-.74,1.26-1.48,2.53-2.23,3.79-2.39.3-4.47-.13-6.19-2.07-.96-1.09-1.7-2.01-1.01-3.5.13-.28.02-.67.02-1.28-.74.29-1.33.52-1.92.75-1.17-1.68-3.05-2.02-4.85-2.42-1.57-.35-4.3-1.96-5.19-3.24-.17-.25-.47-.42-.74-.59-.22-.14-.48-.22-.73-.31-1.48-.53-.33-2.32-1.33-2.93-1.02-.62-2-1.09-1.73-2.51-.18-.4-.37-.8-.55-1.2.17-.49.34-.98.52-1.47-.14-.56-.29-1.12-.44-1.68-.48-1.45-.57-2.85.02-4.35.29-.73-.02-1.69.03-2.54.07-1.23-.42-2.77,1.49-3.15.46.46.99,1.36,1.35,1.3,1.16-.21,2.4-.58,3.36-1.24,2.21-1.54,4.33-3.03,7.26-2.08.45.15,1.11-.22,1.62-.45,1.02-.45,2.32-.81,2.89.18.82,1.42,1.92,1.52,3.28,1.72,1.2.17,2.52.53,3.46,1.24.97.72,1.92.77,2.96.83.06,1.25.56,1.96,1.66,2.87,1.23,1.02,2.54,2,3.82,3-.57,1.97-1.71.82-2.35.24-.99-.89-1.98-1.35-3.31-1.34-2.56.01-3.69,1.19-3.41,3.76.08.78.42,1.54.44,2.32.02.67-.25,1.35-.5,2.49.89-.19,1.72-.12,2.02-.49,1.26-1.5,3.19-1.31,4.73-2.06.15-.07.53.34.81.53-1.05,1.12-2.47,2.02-1.67,4,.13.32-.57,1.21-1.08,1.5-.57.33-1.41.16-2.04.43-.87.37-1.63.95-.59,1.98Z"/><path class="cls-9" d="m174.79,21.86c1.28-.13,2.26.19,2.6,1.61.08.32.3.87.47.88,3,.09,3.04,3.36,4.97,4.61.32.21.47.94.44,1.42-.09,1.34.65,2.14,1.62,2.84.35.35.69.71,1.04,1.06.02.33.04.66.06.99-.73.67-1.47,1.33-2.2,2-.48.31-1.31.54-1.39.93-.35,1.67-1.44,2.36-2.84,3.15-1.35.77-2.4,2.05-4.13,2.06-1.68-.4-2.84.47-3.89,1.59-1.07-.4-2.13-.8-3.2-1.2-.53-.16-1.05-.33-1.58-.49-1-2.99-.36-2.33-4.59-2.95v-2.24c-1.78-.26-3.42-.49-5.06-.73-.63-1.05-1.43-1.79-2.79-1.45-.5-.07-1.01-.14-1.51-.2-.16-.31-.31-.62-.47-.94.15-.58.54-1.21.42-1.72-.73-3.07.78-5.13,2.88-7.03.56-.51.91-1.24,1.54-2.13.76.3,1.62.63,2.21.86,1.29-.68,2.44-1.28,3.76-1.99.27.95.27,1.72.64,2.06.42.38,1.33.68,1.77.47.99-.47,1.95-1.16,2.66-1.99.6-.7.83-1.72,1.33-2.83.48.32,1.34.63,1.82,1.25.82,1.04,1.49.59,2.26.08.38.01.76.02,1.15.04Z"/><path class="cls-9" d="m279.8,159.27c-.89.1-1.78.2-2.67.3-2.54-1.18-5.14-2.16-8-2.14.53-2.85-1.64-3.35-3.69-4,.11-.77.2-1.44.28-2.06-1.59-.7-3.11-1.37-4.63-2.03-.21-1.17-1.21-1.32-2.1-1.6,0,0-.04-.02-.04-.02-.18-.16-.37-.32-.55-.49-.42-.32-.83-.64-1.17-.9.44-.79,1.21-1.52,1.14-2.16-.24-2.43,1.47-3.71,2.82-5.16.87-.93,2.07-1.55,3.35-2.47.65.42,1.43.94,2.05,1.34,1.26-.34,2.39-.65,3.68-1,.3,1.13.51,1.94.82,3.13,1.77-.87,3.95-.22,5.11-2.31.67-.03,1.34-.07,2.01-.1.33.47.66.93,1.14,1.62.67-.35,1.38-.71,2.08-1.07l-.02-.02c1.31.63,2.81,1.1,2.5,3.08-.03.2.11.52.28.64,2.77,1.9,3.41,4.76,3.62,7.85.04.59.34,1.16.5,1.75.25.92.5,1.84.74,2.76-.41.38-.83.77-1.24,1.15-.88.15-1.76.3-2.64.45-1.56.79-3.14,1.55-4.66,2.4-.33.18-.47.7-.7,1.06Z"/><path class="cls-9" d="m149.58,88.83c.52.45,1.04.89,1.1.94,1.66-.08,2.8-.26,3.92-.15,1.03.1,2.02.52,3.03.8,0,.37,0,.74,0,1.1-.15.03-.31.05-.46.06-.39.31-.79.62-1.18.93-.12.65-.56,1.48-.31,1.91,1.55,2.62.93,5.21.13,7.82-1.04.17-1.46.86-1.37,1.83.1,1.01.34,2,.51,3-.07.07-.14.14-.2.21-.67-.38-1.34-.76-2.02-1.14-.35.54-.62.97-.88,1.37-3.25-.78-3.57-.6-4.94,2.76-.49-.02-1.01-.05-1.54-.07-1.57-1.2-1.8-1.13-3.31,1.07,0,0-.08.04-.07.04-1.4.25-2.62,1.73-4.22.63-2.25-.46-2.53-2.51-3.21-4.15-.47-1.11-.62-2.35-.94-3.68.58-.35,1.16-.7,1.73-1.04.09-.8.18-1.61.28-2.42.38-.23.77-.46,1.15-.69h2.21c-.17-1.83-.3-3.3-.44-4.77-.11-1.09.15-1.92,1.39-2.09.03.07.05.14.09.19.03.03.09.03.14.04-.08-.08-.17-.15-.25-.23.06-.34.12-.68.18-1.02.49-.68.99-1.36,1.48-2.03,2.68-.4,5.36-.8,8.04-1.2l-.03-.02Z"/><path class="cls-9" d="m169.31,49.24c.06,1.09-.17,2.14.62,3.21,1.43,1.94-.23,6.59-2.49,7.99-1.29.8-1.92,1.66-1.46,3.09-2.27.27-4.34.52-6.42.75-.5.06-1.19.23-1.5-.01-1.98-1.59-4.34-2.51-6.48-3.8-.41-.25-.79-.8-.87-1.27-.42-2.42-.76-4.86-1.08-7.3-.16-1.21.17-2.22,1.16-3.09,1.21-1.06,1.76-2.44,1.25-4.18,1.91-.41,3.78-.83,5.65-1.21.43-.09,1.01-.26,1.31-.07,2.72,1.72,6.41,1.22,8.75,3.78.52.7,1.03,1.4,1.55,2.11Z"/><path class="cls-9" d="m250.31,167.59c-.56-2.61.39-5.03.92-7.51.08-.38.45-.83.8-1,1.78-.83,2.55-2.35,2.87-4.12,1.64.12,3.13.31,4.62.31,1.49,0,2.86.03,3.67,1.58.14.26.51.46.82.55,2.42.71,4.44,2.38,5.48,4.61,1.37,2.92.46,8.5-1.84,10.62-.63.58-1.56.83-2.3,1.31-.75.48-1.43,1.07-2.33,1.75-1.2,0-2.77,0-4.35,0-1.58,0-2.84-.48-4.03-1.68-1.07-1.09-2.19-2.14-3.18-3.31-.39-1.04-.78-2.08-1.17-3.12Z"/><path class="cls-9" d="m155.5,107.05c1.34,1.68,3,2.89,4.89,3.96,1.71.96,2.04,3.02,2.51,4.83.23.89.51,1.77.82,2.82-.26.44-.79,1.01-.95,1.67-.69,2.86-2.88,4-5.34,4.9-.74.27-1.44.7-2.2.83-.73.12-1.59.13-2.25-.15-1.78-.77-3.47-1.73-5.43-2.72-.28-.83-.62-1.94-1.03-3-.22-.56-.46-1.36-.9-1.54-1.68-.69-1.59-2.35-2.13-3.76.6.41,1.2.81,2.11,1.43-.09-1.88-1.27-2.76-1.91-3.9.11-.8-.41-1.88.94-2.13.74.84,1.49,1.68,2.24,2.54.91-.3,2.06-.32,2.52-.89,1.52-1.93,3.46-2.84,6.02-2.99-.28-.71-.48-1.19-.67-1.67.07-.07.14-.14.21-.21.18,0,.37,0,.55,0Z"/><path class="cls-8" d="m46.06,121.03c-1.05-.05-1.99-.11-2.96-.83-.95-.7-2.26-1.06-3.46-1.24-1.35-.2-2.46-.3-3.28-1.72-.57-.99-1.86-.63-2.89-.18-.52.23-1.18.6-1.62.45-2.93-.96-5.05.53-7.26,2.08-.96.67-2.2,1.03-3.36,1.24-.36.06-.9-.84-1.35-1.3,1.88-1.56,4.04-2.6,6.27-3.55,1.36-.58,2.92-1.01,3.11-2.85.9.13,1.68.24,2.45.35.88.76,1.75,1.52,3.06,2.65.34-1.29.53-1.99.72-2.69q2.62,1.44,4.51-.52c.21.74.21,1.67.67,2.07.4.34,1.33.07,2.1.07.12.96.23,2.01.4,3.05.04.25.25.46.39.71,1.13.13,2.29.27,3.87.45-.67.86-1.02,1.31-1.37,1.76Z"/><path class="cls-7" d="m69.77,3.7c-.08-1.05.17-1.8,1.46-1.58,2.14,1.89,1.86,4.89,3.29,7.12.28.44.4.97.63,1.52h1.65c.42.9.96,1.81,1.3,2.8.57,1.63-.05,2.22-1.99,2.04-.1.13-.29.29-.28.4.17.99.37,2.19-.83,2.45-1.53.33-1.43-1.24-1.8-2.14-.49-1.19.04-2.06,1.22-2.81-1.64-2.49-2.28-5.62-5.18-7.19.4-.29.81-.58,1.26-.91-.24-.56-.49-1.12-.73-1.69Z"/><path class="cls-7" d="m191.08,110.11c-.56-.27-1-.49-1.43-.7-.17.23-.32.36-.35.51-.21.98-.36,2.16-1.75,1.79-1.24-.33-1.12-1.59-.9-2.49.24-.99.87-1.88,1.51-3.19-.62-2.06-1.36-4.5-2.19-7.24.23-.93.57-2.31,1-4.03.97,1.41,2.09,2.19,1.88,4.11-.19,1.68.56,3.48.93,5.21.04.2.31.51.46.5.81-.04,1.13.32,1.11,1.1-.03,1.42,1.34,2.88-.28,4.43Z"/><path class="cls-4" d="m118.56,1.72c.26.58.52,1.16.72,1.62,1.06-.28,2.06-.55,3.08-.82,1.04,4.69-3.17,9.05-7.84,8.38-.17-.68-.36-1.43-.59-2.35,1.82-.63,2.11-2.15,1.99-3.92,2.25.21,1.22-2.2,2.65-2.91"/><path class="cls-4" d="m226.94,112.1c2.8-1.17,3.67-4.19,6.06-5.79.11.72.21,1.37.31,2.05q1.76-.75,3.56.23c-.42,2.94-2.63,4.27-5.01,5.44-.47.23-1.01.34-1.52.49-2.77.83-3.4.32-3.41-2.42Z"/><path class="cls-7" d="m123.33,109.22c.69-1.59,2.27-1.72,3.64-2.18.11.43.22.85.33,1.3h2.6c-1.25,1.49-1.87,3.09-3.84,3.59.83,2.08.45,4.44,2.56,6-1.37,1.03-2.66,2.13-4.07,3.02-1.62,1.02-2.97-.84-4.59-.89,1.1-.09,2.19-.19,3.29-.28,1.04-.27.19-2.15,1.7-2.01.24.06.48.12.72.19-.25-.06-.49-.11-.74-.17-.21-.32-.47-.92-.63-.9-.57.09-1.11.4-1.99.35.37-.49.74-.98,1.11-1.47.6-.77,1.78-1.35.72-2.63-.13-.15.22-.75.42-1.1.3-.51.67-.98,1.13-1.63-.9-.45-1.63-.82-2.37-1.19Z"/><path class="cls-4" d="m193.76,271.28c-.68-.86-1.23-1.23-1.23-1.6,0-3.3-1.41-6.15-2.67-9.08-1.17-2.71-.55-4.91,1.52-6.4.31-.23.79-.23,1.37-.39.06.68.12,1.18.14,1.68.03.85-.1,1.74.08,2.55.42,1.87.99,3.71,1.48,5.57.09.34.22.88.06,1.03-1.67,1.53-.54,3.27-.47,4.93.01.33-.1.67-.28,1.71Z"/><path class="cls-4" d="m269.12,157.43c2.86-.02,5.46.96,8,2.14-.73,1.15-.91,2.08.71,2.69.79.3,1.45.93,2.24,1.45-.15,1.19-.31,2.39-.46,3.57-3.19-.13-3.95-1.32-3.68-5.36-1.7-1.16-3.32-2.27-5.28-3.61-.36.03-1.23.1-2.56.2.53-.57.78-.83,1.03-1.09Z"/><path class="cls-8" d="m148.97,218.1c-.68-.47-1.13-.62-1.29-.93-1.43-2.74-1.41-2.75-3.8-3.33.12-1.37.2-2.75.37-4.13.15-1.28.4-2.54.69-4.39,1.98,2.66-.32,4.95.68,7.2,2.47-.65,4.81-1.42,6.74-3.51.31.45.63.92,1.15,1.67-1.18.66-2.19,1.3-3.27,1.8-2.21,1.02-2.49,1.77-1.44,4.04.16.34.09.77.18,1.58Z"/><path class="cls-4" d="m40.8,104.91c.05.61.04,1.23.15,1.83.4,2.17.29,2.34-2.08,2.87-.86-2.07-2.47-3.35-4.49-4.17l.02.02c.54-1.1,1.8-1.91,1.17-3.35,1.66-.93,2.62-.03,3.55.94.58.61,1.13,1.25,1.69,1.88,0,0,0-.02,0-.02Z"/><path class="cls-4" d="m149.61,88.85c-.63-1.13-1.58-1.61-2.87-1.5-.76.06-1.87.35-2.21-.02-.72-.79-1.14-1.91-1.46-2.96-.21-.7-.04-1.52-.04-2.44,1.7.03,3.01.85,4.2,1.82,1.41,1.14,2.71,2.41,4.26,3.8-.06.83-.73,1.34-1.9,1.27,0,0,.03.02.03.02Z"/><path class="cls-4" d="m163.95,22.22c-2.14-1.22-1.69-3.34-1.71-4.98,0-1.23.04-2.84,1.42-3.82,1.24-.88,2.48-.62,2.44.84-.05,1.98-.51,3.96-.95,5.9-.16.71-.76,1.31-1.21,2.06Z"/><path class="cls-4" d="m271.37,136.64c-1.17-1.78-.77-3.53-.46-5.19.16-.83.71-1.61,1.19-2.34.58-.87,1.44-1.46,2.51-1.01,1.01.42,1.1,1.48.78,2.3-.88,2.28-1.9,4.5-4.02,6.24Z"/><path class="cls-7" d="m193.57,40.03c.67.21,1.36.63,2.02.6,1.29-.07,2.14.35,2.85,1.42.62.92,1.58,1.24,2.76,1.32,2.01.14,2.79,1.2,2.78,3.34-1.69.66-2.87.32-4.08-1.25-.91-1.18-2.48-1.9-3.85-2.68-1.23-.7-2.5-1.29-3.09-2.69.2-.02.41-.04.61-.06Z"/><path class="cls-7" d="m228.76,226.2c-2.08-2.04-4.01-3.93-5.93-5.82-.12.14-.23.29-.35.43-.93.04-2.31.49-2.71.05-1.11-1.23-2.89-2.09-3.11-4.23,1.31-.1,1.74.91,2.44,1.47.76.6,1.54,1.18,2.38,1.81.29-.43.52-.76.84-1.24,1.49.48,2.24,1.83,3.24,2.88.6.62,1.16,1.34,1.89,1.75,1.21.68,1.49,1.59,1.3,2.89Z"/><path class="cls-4" d="m242.34,195.27c-1-.34-1.73-.65-2.49-.83-2.98-.7-3.56-1.57-2.91-4.51.09-.42.17-.84.28-1.41,1.69.26,2.98,1.22,3.49,2.49.53,1.33,2.7,2.04,1.62,4.26Z"/><path class="cls-7" d="m294.81,160.15c1.27.67,2.54,1.34,4.11,2.16.49,1.33,1.19,2.81,3.19,3.46,1.21.39,2.1,1.6,1.66,3.16-2.78.41-2.62.33-3.7-1.72-.68-1.29-1.92-2.28-2.88-3.44-.84-1.01-1.63-2.05-2.44-3.08.04-.18.05-.35.05-.53Z"/><path class="cls-8" d="m174.79,21.86c-.38-.01-.76-.02-1.15-.04.21-1.26.42-2.52.73-4.33-.92,1.2-1.48,1.93-2.1,2.73-.85-1.75-.3-5.19,1.03-6.03,1.36-.86,1.36.32,1.43,1.22-.07.09-.14.19-.21.28.09-.07.18-.14.27-.21,2.21.49,2.78,1.76,1.48,3.46-.68.9-1.8,1.53-1.49,2.92Z"/><path class="cls-7" d="m174.8,208.26c1.8-.35,3.4-.15,4.44,1.61.65,1.11,1.32,2.21,1.99,3.32.04.61.06,1.21.13,1.81.04.33.33.81.2.97-1.18,1.38-1.66,3.39-3.58,4.13l.03.02c.07-.43-.02-.99.22-1.28.92-1.07.76-2.03-.34-3.03.72-.59,1.3-1.07,2.11-1.74-1.09-2-1.76-4.34-4.4-5.15-.3-.09-.53-.43-.79-.66Z"/><path class="cls-4" d="m57.73,36.45c.54,1.66,1.01,3.11,1.43,4.4-1.55,1.57-2.81,1.34-4.03.32-.83-.69-1.59-1.42-1.35-2.69.41-2.19,2.33-1.41,3.95-2.03Z"/><path class="cls-4" d="m110.04.76c-.72,1.58-1.26,3.2-2.16,4.58-.75,1.14-2,1.2-2.8.51-.9-.78-.49-1.66-.02-2.41.76-1.2,1.58-2.36,2.49-3.45"/><path class="cls-8" d="m141.57,90.06c-.49.68-.99,1.36-1.48,2.03-2.62.48-3.95-1.12-4.82-3.33-.88.29-1.53.5-2.19.72.2-1.09,0-2.39,1.5-2.79,0,1.59,1.85.71,2.27,1.77.47-.4.9-.77,1.4-1.19,1.15.96,2.23,1.87,3.32,2.77Z"/><path class="cls-4" d="m164.41,124.42c.8.18,1.64.38,2.68.62v4.62c-2.2.51-3.16.07-4.11-1.79-.74-1.45-.62-1.75,1.43-3.45Z"/><path class="cls-4" d="m235.32,172.33c.33-.71.47-1.67,1.02-2.1,1.99-1.56,1.84-3.67,1.82-6,.58-.42,1.28-.93,1.99-1.45.35.03.69.05,1.07.08-.61.88-1.19,1.71-1.87,2.7,1.91.65,2.61-1.2,4.41-1.04-.93,1.13-.99,2.52-2.86,2.6-2.54.1-2.54.23-1.95,3.14-1.3.45-1.6,2.63-3.64,2.07Z"/><path class="cls-4" d="m155.5,107.05c-.18,0-.37,0-.55,0-.18-1-.41-1.99-.51-3-.09-.96.33-1.66,1.37-1.83.79.89,1.49.54,2.31-.05,1.12-.81,2.36-.67,3.52-.01,1.08.61,1.04,1.61-.05,2.25-1.6.93-3.07.42-4.53-.62-.82,1.04-1.91,1.77-1.55,3.25Z"/><path class="cls-4" d="m218.58,105.85c1.56-1.33,2.92-2.58,4.39-3.68.4-.3,1.13-.17,1.71-.24.02.65.23,1.37,0,1.93-.32.81-.94,1.5-1.44,2.23-1.43,2.07-2.52,2.09-4.67-.23Z"/><path class="cls-8" d="m281.41,138.15c.34-1.12.67-2.24,1.01-3.36-.24-.19-.48-.38-.72-.57-.4.9-.8,1.81-1.29,2.91-1.46-2.51-.24-4.66,2.37-5.83.73.91,1.44,1.79,2.26,2.81-.1,2.16-2.11,2.88-3.64,4.02,0,0,.02.02.02.02Z"/><path class="cls-7" d="m171.18,232.04c-.05-2-.83-4.08,1.23-5.77.52-.43.54-1.45.82-2.18.35-.93.73-1.85,1.38-2.69.46,1.86.92,3.59-.46,5.28-.61.75-.93,1.71-.74,2.94.12.82-1,1.83-1.56,2.76-.22-.11-.45-.22-.67-.33Z"/><path class="cls-7" d="m79.7,27.69c-.15-.07-.25-.19-.3-.35.99-.84.48-1.74.12-2.65-.79-1.96-1.54-3.93-2.04-6.05,1.11.83,1.53,2.1,2.12,3.25.65,1.26,1.06,2.68,1.91,3.78.82,1.06,2.41,1.49,2.8,3.26-.78.31-1.47.58-2.01.8-.96-.76-1.78-1.4-2.59-2.04Z"/><path class="cls-2" d="m120.56,192.2c.05.71.09,1.42.14,2.13-.22.21-.44.43-.66.64-.48,0-.96,0-1.44,0-2.1.14-3.82,1.48-4.91,2.85-1.42,1.77-3.45,1.64-5.35,3.26.63-2.25,2.49-2.34,3.28-3.5.13,0,.27.02.4.03.16-.07.37-.1.47-.22,2.16-2.56,4.89-4.24,8.08-5.18Z"/><path class="cls-8" d="m55.27,114.01c.2,1.72-.99,2.91-1.62,4.31-.95.15-1.9.32-2.86.43-1.21.14-2.41.21-3.68-1.33,1.71-.1,2.97-.17,4.24-.24,1.17-1.09.66-2.53.59-3.89,1.25.27,2.29.5,3.34.73Z"/><path class="cls-2" d="m221.42,132.75c-1-.27-2.04-.44-2.99-.83-.86-.35-1.62-.94-2.43-1.42-.02-.12-.01-.23.01-.35.33-.7.66-1.39.98-2.09.59-.15,1.18-.3,1.86-.48.22.39.43.75.72,1.25.59-.08,1.24-.17,1.85-.25v4.17Z"/><path class="cls-7" d="m194.2,123.88c-2.56.33-3.02.17-3.27-1.49-.5-3.4-.85-6.82-1.26-10.24.17-.05.35-.1.52-.15.2.72.44,1.44.6,2.17.4,1.81.68,3.66,1.18,5.44.2.72.89,1.28,1.25,1.97.37.7.62,1.47.96,2.3Z"/><path class="cls-7" d="m123.39,194.9c1.91.24,1.5,2.04,2.11,3.15-.43-.04-.87-.08-.94-.08-1.58,1.84-3,3.53-4.49,5.16-.22.24-.75.2-1.32.33-.04-1.28.46-2.15,1.25-2.65,1.17-.75,1.47-1.67.92-3.04,2.07,0,2.21-1.48,2.48-2.86Z"/><path class="cls-4" d="m175.82,46.11c1.17.18,2.35.35,3.46.52.21,1.24.4,2.18.51,3.12.13,1.14-.44,1.61-1.55,1.35-2.16-.53-2.86-1.57-3.05-4.57.21-.14.42-.28.63-.42Z"/><path class="cls-5" d="m152.27,136.53c1.22.24,2.48.9,3.5-.53.2-.28.9-.25,1.38-.26.68-.02,1.36.05,2.05.08.36.56.72,1.11,1.07,1.67-1.03.48-2.04,1.01-3.1,1.42-1.76.67-3.44.55-4.9-.77,0-.53,0-1.07,0-1.6Z"/><path class="cls-4" d="m171,140.47c.18.47.37.94.55,1.41h.01c-.51.45-1.09.86-1.53,1.38-1.24,1.47-2.2,1.7-3.79.77-.65-.38-1.25-.83-2.06-1.37,1.89-1.23,3.64-2.08,5.75-1.86.36-.11.72-.22,1.08-.32Z"/><path class="cls-8" d="m220.3,202.87l1.63-3.12c.77-.1,1.55-.21,2.68-.36.79,1.23,1.67,2.61,2.59,4.06-1.38,1.2-2.25,0-3.33-.32-1.11-.34-2.38-.19-3.57-.25Z"/><path class="cls-7" d="m162.47,88.33c1.61-.9,2.89-2.46,5.01-2.37.4.02.82-.61,1.24-.92,1.22-.89,1.29-.9,3.13-.63,0,2.22-.25,2.34-2.15,2.5-1.35.12-2.66.76-4,1.13-1.08.3-2.17.54-3.25.81,0-.17.01-.35.02-.52Z"/><path class="cls-8" d="m238.59,196.85h-5.67c.54.66.81.98,1.28,1.56-1.42.12-2.53,1.26-3.8.05.63-.98-1.23-2.19.38-3.15,2.22,1.73,5.13-1.18,7.8,1.53Z"/><path class="cls-8" d="m138.98,64.31c-.6-2.94-.42-5.84.45-8.71.42.05.84.1,1.27.16.1,1.07-1.56,1.79-.18,3,1.23-1.04,2.47-2.08,3.72-3.13h0c-.43,1.15-.61,2.52-1.36,3.41-.73.86-2.04,1.21-3.43,1.98.1.48.21,1.22.39,1.94.2.78-.12,1.18-.85,1.35Z"/><path class="cls-4" d="m60.57,83.41c-1.11,1.05-2.28,1.44-3.84.83-.85-.33-1.9-.15-2.87-.2-.86-.04-1.78.02-2.15-1.23,1.31-.69,2.58-.78,4-.43,1.17.29,2.38.26,2.34-1.51.84.84,1.68,1.69,2.52,2.53Z"/><path class="cls-2" d="m193.57,40.03c-.2.02-.41.04-.61.06-1.27-.19-2.54-.39-3.98-.61-.84-2.33-3.42-1.39-5.19-2.23.73-.67,1.47-1.33,2.2-2,2.92.97,5.09,3.13,7.59,4.77Z"/><path class="cls-7" d="m185.08,60.65c-1.76,1.09-1.74,1.07-3.11-.24-.43-.41-.95-.79-1.5-1.01-2.29-.91-2.37-1.15-.83-3.82,1.8,1.68,3.56,3.31,5.43,5.07Z"/><path class="cls-7" d="m156.11,67.33c-1.72-.38-3.44-.76-5.31-1.17v-1.82q-2.76-1.36-2.34-3.24c2.85,1.62,4.75,4.45,7.87,5.57-.07.22-.14.44-.21.66Z"/><path class="cls-2" d="m113.11,30.48c-1.02.09-2.08.95-3.07-.28-.19-.23-1.11.12-1.7.2-.02-1.02-.04-2.04-.06-3.06.44-.39.88-.79,1.44-1.29.45.56.8,1.01,1.16,1.47.58-.27,1.15-.54,2.06-.97-.13.97-.21,1.61-.3,2.25.01.19.03.38.04.57.14.37.28.75.42,1.12Z"/><path class="cls-4" d="m91.43,175.73c1.41.61,2.65,1.14,3.81,1.64-.14,1.92-1.26,2.51-2.57,2.47-.76-.02-1.75-.49-2.21-1.09-.94-1.21.58-1.79.97-3.02Z"/><path class="cls-7" d="m278.42,172.01c.71,1.19,1.61,2.31,2.09,3.59.42,1.12,1.01,1.77,2.27,2.28-.71.31-1.42.62-2.01.89-1.21-1.4-2.26-2.62-3.65-4.24.12-.47.36-1.45.6-2.42.23-.03.47-.06.7-.1Z"/><path class="cls-2" d="m60.57,83.41c-.84-.84-1.68-1.69-2.51-2.53,0-.77.01-1.54.02-2.3,2.21,2.09,4.01,4.4,4.14,7.62-.28.14-.55.27-.83.41.3.21.59.42.89.63.3.57.6,1.13.9,1.7-1.67-.7-3.34-1.41-4.82-2.03.45-.25,1.25-.64,1.99-1.11,1.06-.67,1.1-1.49.23-2.38Z"/><path class="cls-8" d="m249.78,171.9c.32,2.08,1.95,3.37,2.92,5.21-1.41-.6-2.82-1.19-4.42-1.87.17-.52.34-1.05.59-1.83-.44-.34-1.16-.72-1.62-1.31-.3-.38-.24-1.05-.34-1.59.54.08,1.14.04,1.61.27.49.24.84.74,1.26,1.12,0,0,0,0,0,0Z"/><path class="cls-3" d="m33.14.24c.69.73,2.3.95,1.38,2.79-1.42-1.21-4.23.88-4.85-2.55"/><path class="cls-4" d="m186.01,71.88c-.25-1.08-.5-1.69-.48-2.29.02-.59.33-1.17.49-1.76q.56-2.05,2.92-1.68c.54,1.45.37,2.61-1.13,3.52-.61.37-.96,1.15-1.8,2.21Z"/><path class="cls-8" d="m148.45,134.41c-.34-.35-.68-.7-1.02-1.05.17-.74.5-1.49.47-2.23-.04-1.23-.2-2.48-.52-3.66-.13-.5-.78-.87-1.3-1.42.62-.07,1.27-.14,2.03-.23.22.88.42,1.62.63,2.47.57.04,1.14.08,1.71.12.11.14.22.29.32.43-.61.35-1.22.7-1.8,1.04.48,1.73,1.25,3.33-.52,4.53Z"/><path class="cls-4" d="m35.48,113.44c-.19.7-.38,1.4-.72,2.69-1.31-1.13-2.19-1.89-3.06-2.65-.47-.89-1.47-1.61-.8-3.02,1.89.41,3.23,1.7,4.58,2.98Z"/><path class="cls-8" d="m136.76,99.95c-.38.23-.77.46-1.15.69-.64-.28-1.28-.55-2.13-.92-.92.44-2.1,1.56-3.16-.11.09-1.18.19-2.35.31-3.97.85.98,1.36,1.91,2.15,2.39.87.54,2,.67,3.01.98.32.32.64.63.96.95Z"/><path class="cls-4" d="m284.4,186.45c-1.25.74-2.3,1.36-3.33,1.98-.95-1.52-.87-1.76,1.69-5.02q1.9.72,1.64,3.04Z"/><path class="cls-2" d="m294.81,160.15c0,.18-.02.36-.05.53-2.89-1.03-4.86-3.26-6.96-5.32.41-.38.82-.77,1.24-1.15,1.19,1.13,2.4,2.24,3.55,3.41.79.8,1.49,1.69,2.23,2.53Z"/><path class="cls-7" d="m135.14,117.26c.11-.49.21-.98.38-1.77.89.41,1.59.71,2.28,1.05,1.7.83,2.75,2.67,4.84,2.95.45.06.8.96,1.2,1.48-1.14.91-1.65.17-2.29-.28-2.01-1.41-3.94-2.97-6.44-3.46l.02.03Z"/><path class="cls-4" d="m186.36,246.79c-1.67-.51-2.36-1.67-2.33-3.03.02-.68.89-1.34,1.37-2,.58.45,1.37.79,1.69,1.39.72,1.33.08,2.5-.74,3.64Z"/><path class="cls-8" d="m211.16,255.98c-2.12-3.57-2.5-7.37-2.65-11.56,1.48.79.97,1.93,1.12,2.83.16.95.27,1.92.52,2.85.27,1,.79,1.95.97,2.96.17.94.04,1.94.04,2.91Z"/><path class="cls-7" d="m82.98,164.32c.79,0,1.8-.3,2.34.07.81.57.53,1.54-.03,2.38-.33.49-.37,1.16-.62,1.72-.34.75-.75,1.47-1.32,2.56-.97-1.47-.7-2.45-.17-3.37.6-1.05.8-1.99-.67-2.79.16-.19.32-.38.48-.56Z"/><path class="cls-4" d="m49.15,157.08h3.64c.82,1.74-.28,2.55-1.33,3.16-.47.27-1.43.15-1.93-.16-1.17-.74-.55-1.84-.39-2.99Z"/><path class="cls-4" d="m235.88,184.85c-.17-.1-.52-.29-1.23-.69,1.27-.37,2.18-.87,3.05-.81.6.04,1.41.76,1.64,1.37.16.43-.45,1.18-.79,1.75-.11.18-.45.28-.7.32-.65.11-1.31.17-1.97.25v-2.18Z"/><path class="cls-8" d="m58.05,68.18c-1.47-.94-2.67-1.7-3.97-2.53,1.3-.5,2.22-.85,3.14-1.21-.34-.35-.68-.7-1.02-1.05q2.95.67,1.85,4.78Zm-.64-2.78c-.06.04-.16.07-.18.13-.02.04.06.12.1.18.09-.07.19-.14.28-.22-.07-.03-.14-.06-.2-.09Z"/><path class="cls-2" d="m125,129.46c-1.25.28-2.51.57-3.94.89-.55-1.75-.99-3.17-1.44-4.58.6.29,1.31.46,1.79.89,1.02.93,1.92,1.97,3.59.3v2.5Z"/><path class="cls-2" d="m138.87,201.89c1.08.39,2.16.78,3.24,1.18-.79,1.83-1.58,3.66-2.39,5.48-.03.06-.32,0-.49,0-.12-2.23-.24-4.45-.35-6.67Z"/><path class="cls-6" d="m69.77,3.7c.25.56.49,1.13.73,1.69-.45.33-.86.62-1.26.91-.52.31-1.04.62-1.57.94.4,1.37.76,2.64,1.13,3.91-2.45-1.43-2.02-3.77-2.26-5.89,1.08-.52,2.15-1.03,3.23-1.55Z"/><path class="cls-2" d="m189.68,215.45c.75.12,1.5.24,2.25.36-1.32,1.05-1.47,2.45-.76,3.79.75,1.42.76,2.66-.18,4.08-1.12.15-2.17-.45-1.55-1.5,1.35-2.3.04-4.5.24-6.72Z"/><path class="cls-8" d="m108.29,27.34c.02,1.02.04,2.04.06,3.06-.38,0-.76,0-1.14,0-.55-1.84-1.01-3.71-1.67-5.51-.41-1.12-.4-1.99.8-3,.69,1.91,1.32,3.67,1.95,5.44Z"/><path class="cls-7" d="m131.85,17.23c-1.82,1.8-3.64,3.61-5.65,5.59-.13-.19-.65-.73-.58-.83,1.27-1.68,2.55-3.36,3.96-4.92.37-.41,1.2-.42,1.81-.61.15.26.3.51.45.77Z"/><path class="cls-7" d="m171.94,103.8c0,.89.16,1.42-.03,1.71-1.01,1.55-3.13.73-4.4,1.9-.13.12-1.16-.74-1.88-1.2,1.71-2.17,4.34-.48,6.31-2.41Z"/><path class="cls-4" d="m35.25,32.12c-2.7-.51-4.14-1.89-4.31-4.1,3.19.15,4.09,1,4.31,4.1Z"/><path class="cls-4" d="m141.22,78.84c-.45-.12-.86-.23-1.25-.34-.16-.7,2.09-1.45,3.76-1.28q.72,2.22-2.22,3.92c-1.64-.54-.19-1.53-.28-2.3Z"/><path class="cls-7" d="m66.94,38.94c.46,1.68-.26,2.67-1.86,3.34-1.3-1.41-1.52-3-1.56-4.99,1.34.64,2.38,1.14,3.43,1.65Z"/><path class="cls-7" d="m200.36,229.17c.47,1.49.94,2.98.39,4.92-.99-.87-1.86-1.52-2.57-2.31-.55-.62.42-3.22,1.32-3.74.09-.05.31.12.48.18.13.31.26.63.39.95Z"/><path class="cls-8" d="m121.15,9.77c.43.76.95,1.27.84,1.56-.91,2.56-1.92,5.08-2.91,7.6-.05.12-.25.18-.56.4.63-3.19.3-6.45,2.63-9.56Z"/><path class="cls-2" d="m117.01,119.99c-.15-1.15-.09-2.47-1.98-1.93-.3.08-.78-.47-1.17-.73.24-.33.43-.86.74-.96,1.08-.34,2.22-.53,3.33-.77.08.6-.02,1.31.27,1.78.98,1.57.1,2.16-1.19,2.62Z"/><path class="cls-2" d="m80.36,160.59c.21.51.42,1.01.63,1.52-.02.24-.04.47-.06.71-.34.17-.69.34-1.03.52-2.14.96-2.52,3.17-3.55,4.93-.04.06-.12.09-.19.14-.51-1.45.13-3.79,1.53-5.27.84-.89,1.78-1.7,2.67-2.55Z"/><path class="cls-7" d="m38.73,19.76c2.9.89,5.89,3.5,6.08,5.37-2.08-1.44-4.02-2.76-5.91-4.13-.18-.13-.1-.62-.17-1.24Z"/><path class="cls-7" d="m239.69,175.35c1.42,0,1.96.52,2.11,1.7.15,1.18,1,2.36.15,3.51-.18.24-1.02-.01-1.55-.03.37-1.75-.58-3.39-.7-5.18Z"/><path class="cls-7" d="m160.96,126.83c-1.31.94-1.91,3.35-4.19,2.04-.25-.14-.79.3-1.21.38-.62.12-1.25.16-2.4.3.56-.77.7-1.21.94-1.27,2.28-.52,4.57-.98,6.85-1.45Z"/><path class="cls-4" d="m163.84,211.12c.35-.88.69-1.77,1.07-2.72,1.33.47,2.53.9,3.91,1.4-1,.73-1.81,1.35-2.65,1.94-.97.69-1.64.15-2.33-.61Z"/><path class="cls-4" d="m177.72,104.67c.41.28.97.68,1.55,1.08v3.28c-2.15.27-1.97-2.17-3.77-3.06.92-.54,1.52-.88,2.22-1.3Z"/><path class="cls-3" d="m40.23,18.23c.78-1.59,1.4-3.18,2.33-4.57.28-.42,1.41-.28,2.41.05-.74.86-1.56,1.66-2.18,2.6-.59.88-.57,2.33-2.56,1.92Z"/><path class="cls-7" d="m157.11,207.79c-.51-.58-1.03-1.15-1.73-1.94.7-.87,1.43-1.77,2.2-2.73.69,1.3,1.29,2.44,1.98,3.76-.75.27-1.61.58-2.47.89l.02.02Z"/><path class="cls-7" d="m142.38,68.56c.54.05,1.44-.09,1.63.2.73,1.17,1.3,2.45,1.77,3.74.1.28-.46.8-.71,1.21-.4-.29-.99-.5-1.17-.89-.54-1.24-.93-2.55-1.52-4.26Z"/><path class="cls-8" d="m153.25,222.81c-.31-.23-.76-.4-.78-.6-.15-2.17-.52-4.35.23-6.61,1.32,1.59,1.47,3.74.55,7.21Z"/><path class="cls-2" d="m142.89,127.96c-.46-.01-.91-.03-1.37-.04.68-1.26,1.29-2.57,2.07-3.77.71-1.1,1.79-1.28,3.39-.62-1.66.6-2.27,1.68-2.57,3.09-.11.53-.99.89-1.52,1.33Z"/><path class="cls-7" d="m236.41,126.37c1.28-1.72,2.76-3.08,5.16-3.06-.43,2.25-.58,2.35-5.18,3.52.01-.15.02-.31.02-.46Z"/><path class="cls-8" d="m214.26,219.18q-1.71-.43-2.51-2.2c.44-.31.91-.65,1.38-.98-.06-.82-.13-1.64-.22-2.79,1.46,1.75,1.58,2.34,1.35,5.97Z"/><path class="cls-8" d="m230.14,121.68c-.29-3.18,1.88-4.73,2.68-6.89,1.09-.04,1.56.53,1.12,1.26-1.07,1.8-2.34,3.48-3.8,5.62Z"/><path class="cls-7" d="m135.11,117.23c.04.83,0,1.94-1.13,1.4-1.51-.71-2.81-1.86-4.49-3.02,1.22-.49,1.98-.79,2.91-1.15-.41,2.21,1.48,2.17,2.74,2.8,0,0-.02-.03-.02-.03Z"/><path class="cls-4" d="m185.37,225.05c-.98-.87-1.68-1.24-1.96-1.81-.32-.64-.41-1.48-.31-2.19.05-.34.77-.83,1.16-.81.38.01,1.01.56,1.06.93.14,1.1.05,2.23.05,3.88Z"/><path class="cls-8" d="m18.24,132.72c.18.4.37.8.55,1.2-.71,0-1.41,0-2.26,0-.19.55-.3,1.17-.6,1.66-.24.4-.72.65-1.1.97-1.88-2.23-1.75-2.67.81-3.3.86-.21,1.73-.35,2.6-.53Z"/><path class="cls-7" d="m95.62,174.18c-.25-.64-.47-1.19-.7-1.77.96-.52,1.79-.97,2.74-1.48,1.12.53,1.74,1.32,1.39,2.52-1.02,1.59-2.52-1.3-3.43.73Z"/><path class="cls-7" d="m243.27,197.92c2.86-.58,4.29.99,5.74,2.52-2.1.01-4.14-.12-5.74-2.52Z"/><path class="cls-8" d="m46.71,107.05c-2.2-.08-4.14-.87-5.91-2.14,0,0,0,.02,0,.02.51-.77,1.02-1.54,1.68-2.56.38.91.52,1.68.97,2.19.49.57,1.28.87,1.9,1.34.47.35.89.78,1.34,1.17l.02-.02Z"/><path class="cls-4" d="m71.95,189.3c1.96-2.27,2.81-2.36,5.55-.75-1.73,1.16-3.49,1.27-5.55.75Z"/><path class="cls-2" d="m135.7,85.66c-.18-1.09-.36-2.18-.54-3.27,1.63.16,2.71,1.16,3.42,2.51.21.4-.09,1.06-.18,1.78-1.12-.42-1.91-.72-2.71-1.02Z"/><path class="cls-8" d="m52,103.26c-.66-.23-1.37-.29-1.43-.52-.48-1.85-3.3-2.58-2.53-5.12q1.42.76,3.96,5.64Z"/><path class="cls-8" d="m175.82,46.11c-.21.14-.42.28-.63.42-.71-.19-1.42-.45-2.14-.55-.7-.1-1.37-.11-1.51-1,1.05-1.12,2.21-1.99,3.89-1.59-.78,1.04-.05,1.85.39,2.71Z"/><path class="cls-7" d="m41.87,173.16c-1.81,2.58-2.61,3.02-4.42,2.41,1.31-2.59,1.47-2.67,4.42-2.41Z"/><path class="cls-7" d="m160.27,137.49c-.36-.56-.71-1.11-1.07-1.67.32-.12.73-.43.96-.33,1.38.57,2.73.34,4.11.08.2-.04.46.2.69.31-.62,1.23-1.46,1.51-4.69,1.6Z"/><path class="cls-2" d="m229.47,190.14c.19-.91.37-1.83.56-2.74,2.47-.09,1.94,1.97,2.44,3.29-1.33,1.36-1.95-.66-2.99-.55Z"/><path class="cls-7" d="m70.66,180c1.96-2.1,4.23-1.63,6.75-2.45-1.63,1.77-4.57,2.78-6.75,2.45Z"/><path class="cls-7" d="m54.51,152.87c-1.07.17-2.16.35-3.71.6.71-1.21,1.2-2.05,1.69-2.88q1.95.28,2.02,2.28Z"/><path class="cls-7" d="m150.14,205.12c.45-1.66,1.51-2.7,3.14-3.24.86,2.58.8,2.66-1.62,2.84-.52.04-1.03.24-1.54.37l.03.03Z"/><path class="cls-8" d="m168.89,244.23c.02-.53-.1-1.12.09-1.59.53-1.3.6-2.37-.73-3.27-.27-.19-.21-.87-.33-1.46,1.06.4,1.88.71,2.95,1.11-.52,1.55-.71,3.55-2,5.18l.02.02Z"/><path class="cls-7" d="m37.95,165.04c-1.5,1.23-2.99,2.46-4.85,3.98.52-2.5,2.48-4.12,4.85-3.98Z"/><path class="cls-7" d="m227.54,93.24c.26-2.68.69-3.28,3.34-4.85-.37,2.13-1.36,3.56-3.34,4.85Z"/><path class="cls-2" d="m137.76,111.93c1.6,1.1,2.82-.38,4.22-.63.56.91.92,1.84.42,2.83-1.38-.37-2.71-.74-4.39-1.19-.01-.04-.13-.52-.25-1Z"/><path class="cls-7" d="m230.84,105.29c-.89-1.91,1.31-2.89,1.06-4.65,1.76,1.29,1.23,3.2-1.06,4.65Z"/><path class="cls-4" d="m172.64,131.7c-.11-.71-.21-1.41-.32-2.12.47-.19.95-.39,1.42-.58,1.53.37,1.99,1.17,1.11,2.09-.37.38-1.06.45-1.61.65-.2-.02-.4-.03-.6-.04Z"/><path class="cls-7" d="m193.65,247.39c-2.13-1.71-2.13-1.93-.18-3.52,1.47,1.36,1.48,1.51.18,3.52Z"/><path class="cls-7" d="m137.62,25.03c-.5,2.7-1.07,3.16-3.42,2.91.68-1.44,1.54-2.5,3.42-2.91Z"/><path class="cls-7" d="m55.49,94.75c1.62.14,2.25.86,2.33,2.47-1.07.25-2.1.49-3.13.74.9-.98,1.15-1.97.81-3.21Z"/><path class="cls-2" d="m169.83,205.64c.57.17,1.15.34,1.72.51,0,.18.05.36,0,.52-.22.69-.42,1.4-.73,2.05-.05.11-.9.03-.93-.08-.24-.93-.39-1.89-.53-2.84,0-.03.31-.1.47-.16Z"/><path class="cls-1" d="m0,135.06c.01-.33.02-.66.03-.98,1.13-.9,2.34-.98,3.64-.41-.48,2.01-.69,2.09-3.67,1.39Z"/><path class="cls-4" d="m279.8,159.27c.23-.36.37-.88.7-1.06,1.53-.85,3.1-1.61,4.66-2.4.18,1.21-.68,1.81-1.52,2.19-1.22.55-2.55.86-3.84,1.27Z"/><path class="cls-2" d="m195.62,94.18c.88,1.97,2.27,3.79,1.69,6.2-1.27-1.86-1.73-4.02-2.17-6.18.16,0,.32,0,.48-.02Z"/><path class="cls-2" d="m162.47,88.33c0,.17-.01.35-.02.52-1.12,1.76-3.1,1.97-4.82,2.67,0-.37,0-.74,0-1.1.24-.32.42-.82.73-.93,1.35-.45,2.74-.79,4.11-1.16Z"/><path class="cls-2" d="m101.85,164.98c.36.54.95,1.05,1.04,1.63.17,1.03.04,2.11.03,3.17-2.3-1.2-2.28-1.2-1.35-3.27.21-.46.19-1.02.28-1.54Z"/><path class="cls-7" d="m230.32,213.29c2.41.02,3.59,1,4.55,2.95-2.19-.1-3.17-1.39-4.55-2.95Z"/><path class="cls-7" d="m241.84,134.96c.85-1.21,1.86-1.95,3.32-2.12.03,2.34-.75,2.85-3.32,2.12Z"/><path class="cls-7" d="m96.89,14.81c.45,1.09.82,1.99,1.18,2.88-1.11.71-1.85.42-2.28-.34-.49-.85-.37-1.7,1.1-2.55Z"/><path class="cls-2" d="m198.86,216.93c.52-.56,1.05-1.12,1.57-1.67.43,1.72.09,4.15-.9,5.5-.25-1.4-.46-2.61-.67-3.82Z"/><path class="cls-2" d="m41.45,162.68c2.13,1.16,2.08,2.91,2.6,4.69-.59-.05-1.25.02-1.3-.12-.46-1.37-.81-2.77-1.31-4.56Z"/><path class="cls-8" d="m118.83,25.38c-1.02,0-1.76-.24-1.89-1.18-.15-1.01-.22-2.09,1.26-2.86.23,1.49.42,2.71.63,4.04Z"/><path class="cls-7" d="m214.69,220.72c2.29.84,1.95,2.7,2.11,4.31-1.01-1.2-2.38-2.24-2.11-4.31Z"/><path class="cls-7" d="m208.98,237.73c-.46.86-.86,1.61-1.35,2.52-.7-.97-1.74-1.81-.76-3.01.62-.76,1.42-.5,2.11.49Z"/><path class="cls-7" d="m177.99,230.32c1.82,1.25.47,2.37.28,3.57-1.78-1.25-1.81-1.57-.28-3.57Z"/><path class="cls-7" d="m128.93,119.43c1.89.77,2.56,2.08,3,3.7-2.08-.77-2.75-1.57-3-3.7Z"/><path class="cls-7" d="m291.36,148.2c-.57-.08-1.11,0-1.35-.23-.43-.43-.74-1.03-.96-1.6-.04-.1.7-.72.88-.64.57.26,1.13.65,1.51,1.14.18.23-.03.78-.08,1.33Z"/><path class="cls-5" d="m217,128.05c-.33.7-.66,1.39-.98,2.09.15-1.91-.97-3.82.39-5.8.2,1.24.4,2.48.59,3.71Z"/><path class="cls-7" d="m34.37,105.44c-.11.48-.22.96-.42,1.84-1.39-.78-2.55-1.43-3.71-2.07l.16-.56c1.33.27,2.66.54,4,.82,0,0-.02-.02-.02-.02Z"/><path class="cls-8" d="m20.22,106.38c1.39.41,2.76.86,3.45,2.55-2.19.36-2.66-1.33-3.45-2.55Z"/><path class="cls-7" d="m177.97,220.1q.56,1.64-.07,3.08c-1.93-1.4-1.91-2.05.1-3.06,0,0-.03-.02-.03-.02Z"/><path class="cls-2" d="m154.32,35.93c1.36-.34,2.15.4,2.79,1.45-.69.46-1.39.93-2.39,1.6-.15-1.11-.27-2.08-.4-3.05Z"/><path class="cls-2" d="m154.89,200.93c.55-.57,1.11-1.15,1.66-1.72.45.79.9,1.57,1.35,2.36-1.41.86-1.63.81-3.02-.64Z"/><path class="cls-4" d="m209.44,113.55c.08,1.5.12,2.4.18,3.41-2.38-.88-2.44-1.23-.18-3.41Z"/><path class="cls-8" d="m62.74,49.66c1.04-.45,1.94-.83,2.93-1.26.57,1.12-.22,1.66-.92,2.08-.7.43-1.5.56-2.01-.83Z"/><path class="cls-7" d="m29.11,50.85c1.06.79,2.12,1.58,3.17,2.37-2.06.61-2.83-.62-3.62-1.83.15-.18.3-.36.45-.54Z"/><path class="cls-8" d="m51.07,72.85c-1.78-.58-3.15-1.02-4.57-1.48,1.33-.92,3.2-.46,4.57,1.48Z"/><path class="cls-8" d="m195.62,94.18c-.16,0-.32.02-.48.02-1.04-1.15-1.45-2.48-1.33-4.34,1.74,1.22,1.5,2.89,1.81,4.32Z"/><path class="cls-6" d="m46.22,6.83c.34.2.69.4,1.03.59.16.51.31,1.02.47,1.53-.33.55-.66,1.11-.98,1.66-.98-.04-1.18-.64-1.03-1.46.15-.78.34-1.55.51-2.33Z"/><path class="cls-7" d="m202.57,252.46c-.62-1.53-1.03-2.54-1.47-3.63,1.96.12,2.26.77,1.47,3.63Z"/><path class="cls-8" d="m200.36,229.17c-.13-.32-.26-.63-.39-.95.05-.81.09-1.63.14-2.44.17-.01.34-.02.5-.03.41.81.81,1.62,1.29,2.58-.51.28-1.03.56-1.55.84Z"/><path class="cls-7" d="m227.73,128.84c-1.99-1.8-1.97-2.19,0-3.73v3.73Z"/><path class="cls-4" d="m186.47,28.42c-.27.17-.41.32-.56.34-.99.18-1.8-.06-1.92-1.19-.03-.25.48-.79.77-.81,1.16-.08,1.74.53,1.71,1.65Z"/><path class="cls-8" d="m260.59,187.55c.87-.38,1.74-.77,2.72-1.2q-.28,2.23-2.51,1.78c-.07-.19-.14-.39-.21-.58Z"/><path class="cls-7" d="m112.02,8.95c1.64.95.88,2.04,1.16,3.42-1.9-.97-1.8-1.97-1.16-3.42Z"/><path class="cls-8" d="m229.55,219.27c1.61,1.26,2.17,2.29,1.88,3.88-1.38-.81-1.87-1.87-1.88-3.88Z"/><path class="cls-7" d="m192.74,46.59c-.5.41-1.04.9-1.08.87-.46-.43-.85-.93-1.25-1.42.38-.29.94-.91,1.1-.82.46.26.76.81,1.23,1.37Z"/><path class="cls-8" d="m165.86,75.33c.83-.61,1.67-1.23,2.66-1.96q-.32,2.47-2.66,1.96Z"/><path class="cls-2" d="m250.31,167.59c.39,1.04.78,2.08,1.17,3.12-.56.4-1.13.8-1.69,1.2,0,0,0,0,0,0,.6-.9.63-1.73-.11-2.63-.64-.78-.51-1.47.63-1.68Z"/><path class="cls-7" d="m164.31,204.38c1.1-.36,2.2-.72,3.76-1.23q-1.87,2.4-3.76,1.23Z"/><path class="cls-8" d="m49.71,108.78h2.4v2.36c-.89-.65-1.73-1.25-2.57-1.86l.16-.5Z"/><path class="cls-8" d="m171,140.47c-.36.11-.72.22-1.08.32-.38-.72-.75-1.44-1.44-2.74,1.38.33,2.09.5,2.8.67-.11.68-.2,1.22-.28,1.75Z"/><path class="cls-3" d="m55.63,13.61c.55.63,1.13,1.01,1.1,1.32-.06.49-.52.93-.82,1.39-.36-.3-.98-.59-1.01-.91-.03-.48.37-.99.72-1.79Z"/><path class="cls-2" d="m278.19,137.6c-.67.03-1.34.07-2.01.1.04-.81.08-1.61.12-2.55,1.68.38,1.89,1.35,1.89,2.45Z"/><path class="cls-8" d="m141.33,124.34c-.87.92-1.32,1.41-1.8,1.91-.32-.16-.71-.25-.74-.4-.1-.54-.07-1.1-.09-1.65.7.04,1.41.07,2.63.14Z"/><path class="cls-7" d="m102.05,29.91c-1.03.78-1.43,1.27-1.91,1.35-.23.04-.91-.77-.83-1.04.13-.46.64-1,1.09-1.12.35-.09.86.4,1.65.81Z"/><path class="cls-2" d="m187.78,40.28c-1.17.29-2.35.58-4.05,1,1.23-2.01,2.6-1.72,3.89-1.68.05.22.11.45.16.67Z"/><path class="cls-7" d="m208.9,130.43c-.42-.67-.87-1.08-.83-1.41.05-.37.53-.9.88-.95.32-.04,1.06.57,1.01.72-.15.5-.56.91-1.06,1.64Z"/><path class="cls-7" d="m291.95,167.33c-.8-.46-1.7-.84-.94-1.95.17-.25.92-.42,1.13-.26.94.71.65,1.46-.18,2.21Z"/><path class="cls-7" d="m225.45,111.74v3.33q-1.46-1.7,0-3.33Z"/><path class="cls-8" d="m286.22,161.19c1.82.61.96,1.81.81,3.02q-1.29-.99-.79-3.04l-.02.02Z"/><path class="cls-7" d="m121.14,29.1c-.03-.51-.2-1.09-.03-1.52.15-.36.7-.56,1.07-.84.12.5.35,1,.31,1.48-.03.35-.43.66-.67.99-.23-.04-.46-.07-.69-.11Z"/><path class="cls-2" d="m258.98,147.73c.89.28,1.89.43,2.1,1.6-.57.34-1.14.67-2.1,1.24v-2.84Z"/><path class="cls-7" d="m173.74,129c-.47.19-.95.39-1.42.58-.06-.17-.11-.33-.17-.5-.27-.71-.89-1.63.3-1.91,1.1-.27,1.1.82,1.25,1.57.02.09.03.17.05.26Z"/><path class="cls-7" d="m181.75,213.14c1.36.05,2.64.22,2.7,2.01-1.86.62-2.15-.88-2.7-2.01Z"/><path class="cls-8" d="m152.27,136.53c0,.53,0,1.07,0,1.6-.31.02-.63.03-.94.05-.6-1.01-1.2-2.02-1.81-3.03.52.19,1.05.34,1.55.59.43.21.8.53,1.2.8Z"/><path class="cls-8" d="m157.81,214.71c-1.13.63-1.85.78-2.2-.19-.12-.32.31-.84.5-1.27.51.43,1.01.87,1.7,1.46Z"/><path class="cls-7" d="m227.68,209.58l-.98-2.93c1.73.45,1.78,1.55,1.61,2.74-.21.06-.42.13-.62.19Z"/><path class="cls-8" d="m144.23,55.63c.14-1.68,1.76-1.71,2.88-2.86-.56,1.88-.58,1.89-2.88,2.86h0Z"/><path class="cls-8" d="m48.35,112.05c1.36.74,1.77,1.53,1.36,2.87-1.78-.42-1.31-1.58-1.36-2.87Z"/><path class="cls-7" d="m84.71,23.6c-.61-1.27-.58-2.07.68-2.76.58,1.08.8,1.91-.68,2.76Z"/><path class="cls-2" d="m144.63,110.29c-1.35.26-.82,1.33-.94,2.13-.55-.39-1.09-.78-1.64-1.16,1.51-2.2,1.74-2.27,3.31-1.07-.25.03-.49.07-.74.1Z"/><path class="cls-8" d="m171.03,145.1c.18-1.08.35-2.15.53-3.23,0,0-.01.01-.01.01.48.1.95.21,1.89.41-.95,1.11-1.68,1.96-2.41,2.81h0Z"/><path class="cls-8" d="m184.95,43.31c1.71.13,1.68,1.14,1.31,2.47-1.64-.33-1.28-1.5-1.29-2.5l-.02.02Z"/><path class="cls-2" d="m169.31,49.24c-.52-.7-1.03-1.4-1.55-2.11.85.12,1.7.23,3.02.42-.74.85-1.11,1.27-1.47,1.69Z"/><path class="cls-8" d="m163.07,210.65c-.34.42-.64.9-1.05,1.22-.17.13-.72.01-.89-.18-.15-.17-.14-.76.02-.88.43-.32.97-.49,1.47-.72.15.19.3.38.45.57Z"/><path class="cls-7" d="m229.41,132.83c-.2-.38-.28-.45-.27-.52.1-.79.26-1.56,1.28-1.56.18,0,.49.27.52.45.16,1.13-.56,1.44-1.53,1.63Z"/><path class="cls-8" d="m163.55,76.43c-1.41.24-2.83.49-4.24.73l-.1-.62c1.42-.23,2.84-.45,4.26-.68.03.19.06.38.09.57Z"/><path class="cls-8" d="m89.89,200.86c-.74,1.7-1.86,1.7-3.16,1.42q1.02-.96,3.16-1.42Z"/><path class="cls-8" d="m48.97,51.14c1.13-.45,1.91-.36,2.53.86-1.24.58-2.04.54-2.53-.86Z"/><path class="cls-8" d="m53.14,123.7c.02.14.02.28,0,.43-.39.29-.78.59-1.44,1.08v-2.72c.66.56,1.05.89,1.43,1.21Z"/><path class="cls-8" d="m54.38,181.76c1.03-1.08,1.68-1.76,2.67-2.8q-.24,2.04-2.67,2.8Z"/><path class="cls-3" d="m34.35,5.86c-.96,1.36-1.69.75-2.72-.13,1.11-.56,1.89-.77,2.72.13Z"/><path class="cls-7" d="m150.11,205.09c0,.26.09.55,0,.77-.18.43-.46.81-.7,1.22-.26-.17-.78-.43-.75-.51.17-.49.41-.97.72-1.38.11-.14.5-.06.76-.08,0,0-.03-.03-.03-.03Z"/><path class="cls-8" d="m41.92,92.53c.49-.49.97-.97,1.6-1.6q.25,1.65-1.6,1.6Z"/><path class="cls-7" d="m165.6,91.89c.41.37.71.62,1,.88-.33.29-.63.73-1,.82-.23.05-.58-.45-.88-.7.26-.29.51-.58.88-1Z"/><path class="cls-7" d="m112.09,22.25c-.19.54-.35,1.1-.59,1.61-.02.05-.57-.15-.87-.23.16-.56.33-1.12.49-1.69.33.1.65.2.98.3Z"/><path class="cls-8" d="m159.47,95.35c.89.06,1.77.12,2.96.2-.65.66-1.76.59-2.96-.2Z"/><path class="cls-7" d="m111.31,16.18c.96.1,1.37.56,1.14,1.41-.05.19-.62.45-.81.37-.89-.41-.61-1.08-.33-1.77Z"/><path class="cls-8" d="m267.65,175.68c.23-.84.72-1.25,1.54-.92.18.07.36.72.25.87-.51.66-1.14.66-1.78.04Z"/><path class="cls-7" d="m221.51,123.75c.52.83.66,1.47-.27,1.92-.16.08-.59-.04-.66-.18-.46-.92.08-1.34.93-1.75Z"/><path class="cls-7" d="m196.86,116.74c.53.85.63,1.51-.27,1.98-.15.08-.59-.05-.66-.2-.41-.9.01-1.41.93-1.78Z"/><path class="cls-8" d="m166.76,43.3c.53.16,1.05.33,1.58.49-.39.77-.92,1.35-1.81.78-.14-.09.14-.83.23-1.27Z"/><path class="cls-8" d="m236.41,126.37c0,.15,0,.31-.02.46-.01.26.07.61-.06.75-.3.31-.7.51-1.06.76-.07-.45-.35-1.03-.16-1.3.24-.35.85-.46,1.3-.67Z"/><path class="cls-8" d="m147.31,68.98c-.55-.62-1.1-1.24-1.64-1.85.18-.18.36-.35.54-.53.58.57,1.17,1.14,1.75,1.7-.22.23-.43.45-.65.68Z"/><path class="cls-8" d="m137.28,66.36c-.13-1.18.38-1.73,1.57-1.64q.5,1.56-1.57,1.64Z"/><path class="cls-7" d="m55.65,107.28c-.87.42-1.5.46-1.83-.41-.06-.17.1-.59.26-.65.83-.34,1.28.08,1.57,1.06Z"/><path class="cls-7" d="m118.59,194.97c.48,0,.96,0,1.44,0,.02.25.13.54.05.75-.15.36-.42.66-.64.99-.3-.33-.65-.63-.88-1-.11-.18.01-.49.03-.74Z"/><path class="cls-8" d="m170.49,147.24c-.37.17-.74.34-1.11.52-.05-1.25.51-2.13,1.64-2.65,0,0,0,0,0,0-.18.71-.35,1.43-.53,2.14Z"/><path class="cls-7" d="m41.63,111.1h-2.63c.68-.99,1.36-.97,2.63,0Z"/><path class="cls-7" d="m222.57,118.55c1.51.55,1.57,1.14.18,1.96-.08-.82-.13-1.39-.18-1.96Z"/><path class="cls-7" d="m79.9,163.34c.34-.17.69-.34,1.03-.52.19.58.38,1.15.61,1.84-1.37.08-1.55-.58-1.64-1.32Z"/><path class="cls-8" d="m186.2,227.38c-.48.3-.78.6-1.11.64-.17.02-.6-.56-.54-.66.16-.31.49-.61.81-.71.15-.05.45.38.85.74Z"/><path class="cls-8" d="m112.01,197.61c-.13-.01-.27-.02-.4-.03-.42-.67-.84-1.34-1.26-2,1.45.14,1.87.9,1.66,2.03Z"/><path class="cls-7" d="m170.01,61.26c.39-.21.78-.42,1.18-.59.02,0,.34.57.31.59-.37.28-.78.51-1.19.76l-.31-.76Z"/><path class="cls-7" d="m98.47,20.58c.03.52.05,1.04.08,1.56-.19.03-.38.06-.57.08-.09-.53-.19-1.06-.28-1.59.26-.02.51-.04.77-.06Z"/><path class="cls-8" d="m157.09,207.77c-.07.63-.13,1.26-.24,2.23q-.77-1.45.26-2.22s-.02-.02-.02-.02Z"/><path class="cls-7" d="m185.51,215.23c.39-.54.69-1.3,1.55-.6-.35.64-.58,1.59-1.55.6Z"/><path class="cls-7" d="m191.41,250.71c.32-.36.64-.72.96-1.08l.45.32-.81,1.26c-.2-.17-.4-.33-.6-.5Z"/><path class="cls-2" d="m152.35,34.79c.16.31.31.62.47.94-.52.77-.99.5-1.29-.14-.05-.12.53-.52.82-.79Z"/><path class="cls-7" d="m229.89,212.49c-.33-.4-.67-.79-1-1.19.1-.1.2-.2.3-.3l1.18,1.05c-.16.14-.31.29-.47.43Z"/><path class="cls-2" d="m225.22,133.19c-.56-.16-1.12-.31-1.68-.47.81-.73,1.35-.52,1.68.47Z"/><path class="cls-7" d="m208.91,119.36c.32.34.61.52.59.66-.03.28-.23.53-.36.8-.18-.13-.48-.26-.5-.4-.02-.27.13-.55.26-1.05Z"/><path class="cls-2" d="m196.2,216.93c.45-.67.8-.47,1.1.13-.2.23-.41.47-.61.7l-.49-.83Z"/><path class="cls-8" d="m18.33,129.57c.15.56.29,1.12.44,1.68-.5-.47-1.42-.83-.44-1.68Z"/><path class="cls-4" d="m47.73,151c-.27-.15-.53-.3-.8-.44.28-.21.57-.42.85-.63-.02.36-.04.72-.06,1.07Z"/><path class="cls-8" d="m155.99,92.51c.39-.31.79-.62,1.18-.93-.39.31-.79.62-1.18.93Z"/><path class="cls-8" d="m286.24,161.16c-.26-.17-.53-.35-.79-.52.11-.1.23-.2.34-.3.14.28.29.56.43.84,0,0,.02-.02.02-.02Z"/><path class="cls-2" d="m185.93,34.27c-.35-.36-.69-.71-1.04-1.06.77-.06,1.12.29,1.04,1.06Z"/><path class="cls-2" d="m131.92,127.41l-.24.03s-.24,0-.24,0c-.05-.3-.1-.6-.15-.9.21.29.42.58.63.87Z"/><path class="cls-8" d="m46.7,107.07c.31.1.61.21.92.31-.07.12-.13.23-.2.35-.23-.23-.47-.45-.7-.68,0,0-.02.02-.02.02Z"/><path class="cls-7" d="m231.51,207.87c-.25-.27-.5-.54-.74-.81.11-.09.22-.18.34-.27.2.28.39.57.59.85-.06.07-.12.15-.18.22Z"/><path class="cls-7" d="m221.9,222.09c-.06-.05-.12-.09-.18-.14.07-.03.14-.1.2-.09.06,0,.12.08.18.13-.07.03-.14.06-.21.1Z"/><path class="cls-8" d="m17.76,118.99c.06.03.12.05.18.08-.08.06-.17.13-.25.19-.03-.05-.1-.13-.09-.16.02-.05.1-.08.16-.11Z"/><path class="cls-7" d="m231.69,207.65c.19.16.39.33.58.49-.25-.09-.51-.18-.76-.28.06-.07.12-.15.18-.22Z"/><path class="cls-8" d="m146.27,131.76c-.13-.01-.26-.02-.4-.03.11-.21.22-.42.33-.63.02.22.04.44.07.66Z"/><path class="cls-5" d="m231.05,134.93c.05-.25.11-.49.16-.74-.06.24-.12.48-.18.72,0,0,.02.02.02.02Z"/><path class="cls-2" d="m258.39,147.23c.18.16.37.32.55.49-.18-.16-.37-.32-.55-.49Z"/><path class="cls-8" d="m184.97,43.29c-.07-.04-.14-.08-.22-.12.06.05.13.09.19.14,0,0,.02-.02.02-.02Z"/><path class="cls-8" d="m114.76,30.45c-.19.03-.37.06-.56.09.19-.03.37-.06.56-.09Z"/><path class="cls-8" d="m112.69,29.36c-.01-.19-.03-.38-.04-.57.01.19.03.38.04.57Z"/><path class="cls-7" d="m172.64,131.7c.2.01.4.03.6.04-.2-.01-.4-.03-.6-.04Z"/><path class="cls-8" d="m102.96,169.76c.19.13.38.26.57.39-.19-.13-.38-.26-.57-.39Z"/><path class="cls-6" d="m45.1,11.69c-.04.08-.08.15-.12.23.04-.07.09-.15.13-.22,0,0,0,0,0,0Z"/><path class="cls-6" d="m45.1,11.69c.07-.08.14-.15.21-.23-.01.05,0,.11-.04.13-.05.04-.12.06-.18.09,0,0,0,0,0,0Z"/><path class="cls-8" d="m168.87,244.21c-.04.07-.07.15-.11.22.04-.07.09-.13.13-.2,0,0-.02-.02-.02-.02Z"/><path class="cls-9" d="m51.37,134.49c-.21-.29-.52-.55-.59-.87-.09-.41.02-.86.04-1.3.54.3,1.08.59,1.62.89l-1.06,1.28Z"/><path class="cls-9" d="m46.09,143c-.69-.55-1.38-1.1-2.08-1.65.59.01,1.21-.08,1.78.06,1.15.28,1.11.89.3,1.59Z"/><path class="cls-9" d="m49.3,139.03c.72-.36,1.44-.72,2.16-1.08-.42,1.91-.71,2.06-2.16,1.08Z"/><path class="cls-8" d="m139.91,93.11c.08.08.17.15.25.23-.05-.01-.12,0-.14-.04-.04-.05-.06-.13-.09-.19,0,0-.01.01-.01.01Z"/></svg>