<?xml version="1.0" encoding="utf-8"?>
<!-- Generator: Adobe Illustrator 27.1.1, SVG Export Plug-In . SVG Version: 6.00 Build 0)  -->
<svg version="1.1" id="Layer_1" xmlns="http://www.w3.org/2000/svg" xmlns:xlink="http://www.w3.org/1999/xlink" x="0px" y="0px"
	 viewBox="0 0 77.73 245.64" style="enable-background:new 0 0 77.73 245.64;" xml:space="preserve">
<style type="text/css">
	.st0{fill:#B063A7;}
	.st1{fill:#DBB2D4;}
	.st2{fill:#CB95C3;}
</style>
<path class="st0" d="M57.46,60.46c-1.01,0.41-2.02,0.82-3.06,1.25c0.35,0.96,0.64,1.74,0.93,2.53c-0.66,0.25-1.31,0.63-1.99,0.71
	c-0.75,0.09-1.54-0.09-2.31-0.15c-1.46,0.14-2.92,0.29-4.37,0.43c-0.58,0.52-1.3,0.95-1.72,1.57c-0.53,0.77,0.1,1.08,0.81,1.19
	c0.13,0.89,0.26,1.79,0.4,2.68c-0.69,1.3-1.69,2.1-3.22,2.29c-0.74,0.09-1.44,0.49-2.16,0.75c-0.37,0.38-0.75,0.77-1.12,1.15
	c-0.56,0.46-1.08,0.93-0.48,1.71c-1.21,3.65-1.67,7.44-1.99,11.25c-0.63,1.08-0.3,1.94,0.62,2.66c-0.16,1.41-0.33,2.82-0.49,4.23
	c0.07,0.23,0.15,0.47,0.22,0.7c-0.13,5.15-0.27,10.3-0.4,15.44c-0.03,0.36-0.06,0.72-0.09,1.07c-0.03,0.32-0.06,0.64-0.09,0.96
	c0.03,0.24,0.06,0.48,0.08,0.71c-0.12,1.85-0.22,3.7-0.37,5.55c-0.14,1.66-0.33,3.32-0.49,4.98c0.08,0.23,0.16,0.46,0.24,0.69
	c-0.05,1.05-0.09,2.1-0.14,3.15c-0.03,0.07-0.1,0.17-0.08,0.22c0.06,0.14,0.16,0.26,0.24,0.39c-0.08,1.56-0.17,3.12-0.25,4.68
	c0.06,0.79,0.13,1.57,0.19,2.36c-0.09,0.85-0.19,1.7-0.28,2.56c-0.02,0.36-0.03,0.71-0.05,1.07c0.01,0.54,0.02,1.07,0.03,1.61
	c-0.07,0.76-0.13,1.52-0.2,2.28c-0.09,0.3-0.18,0.6-0.27,0.89c0,0.21,0,0.41,0.01,0.62c0.07,0.34,0.15,0.67,0.22,1.01
	c-0.87,1.57-1.09,3.18-0.3,4.84c0.02,0.69,0.03,1.38,0.05,2.07c0.13,0.21,0.26,0.42,0.4,0.64c-0.07,0.52-0.14,1.04-0.21,1.57
	c0.06,0.55,0.11,1.1,0.17,1.65c0.01,0.35,0.02,0.7,0.03,1.05c0.02,0.35,0.05,0.71,0.07,1.06c0.01,0.18,0.05,0.36,0.03,0.53
	c-0.52,3.39-0.41,6.77-0.09,10.19c0.15,1.6-0.45,3.26-0.67,4.9c-0.14,1.04-0.2,2.09-0.29,3.14c-0.59,0.49-0.65,1.03-0.13,1.61
	c0.01,0.53,0.03,1.07,0.04,1.6c-0.55,0.57-0.51,1.1,0.09,1.61c0.04,1.05,0.08,2.1,0.12,3.15c0.06,0.24,0.12,0.48,0.17,0.72
	c0,1.15,0.03,2.29,0,3.44c-0.05,1.75-0.26,3.5-0.19,5.24c0.1,2.6,0.51,5.18,0.57,7.78c0.09,3.89,0,7.78-0.02,11.67
	c-0.03,1.65-0.12,3.3-0.06,4.95c0.02,0.4,0.52,0.78,0.81,1.17c0.36,4.76,0.74,9.52,1.07,14.28c0.05,0.69-0.06,1.41-0.18,2.1
	c-0.47,2.63-1.38,3.15-4.04,2.37c-0.73-2.09-1.17-4.21-1.06-6.44c0.02-0.37-0.36-0.75-0.55-1.12c-0.01-1.08-0.03-2.16-0.04-3.24
	c1.19-0.65-0.09-1.69,0.3-2.31c1.35-2.12,0.55-4.23,0.19-6.35c-0.09-0.68-0.18-1.35-0.27-2.03c0.6-1.43,0.65-2.87-0.03-4.29
	c-0.02-0.36-0.04-0.71-0.05-1.07c-0.01-0.36-0.02-0.71-0.03-1.07c-0.31-2.45-0.77-4.9-0.88-7.36c-0.1-2.2,0.25-4.41,0.26-6.62
	c0.01-1.59-0.22-3.19-0.35-4.78c0.59-1.1,0.67-2.17-0.14-3.21c-0.07-1.39-0.14-2.78-0.2-4.16c-0.05-0.4-0.1-0.8-0.16-1.2
	c0-0.51,0-1.03-0.01-1.54c0.02-0.23,0.03-0.46,0.05-0.69c0.03-0.63,0.06-1.26,0.09-1.89c0.53-0.31,0.96-0.65,0.27-1.23
	c-0.1-1.21-0.2-2.41-0.31-3.62c-0.04-0.4-0.08-0.81-0.12-1.21c-0.14-3.55-0.22-7.06,0.34-10.64c0.53-3.4,0.19-6.94,0.21-10.42
	c0.02-4.28,0.06-8.56-0.02-12.83c-0.03-1.74-0.35-3.47-0.54-5.2c0.16-0.19,0.32-0.38,0.49-0.56c0.07-0.84,0.22-1.68,0.19-2.51
	c-0.06-1.46-0.24-2.92-0.37-4.39c0.03-0.21,0.06-0.43,0.09-0.64c0.15-3.97,0.41-7.94,0.41-11.91c0.01-4.23-0.23-8.46-0.35-12.69
	c0.11-0.4,0.23-0.79,0.34-1.19c0.07-1.57,0.15-3.14,0.22-4.7c0-0.54,0.01-1.07,0.01-1.61c-0.17-2.19-0.43-4.37-0.48-6.56
	c-0.04-1.57,0.27-3.14,0.27-4.71c0-1.05-0.26-2.09-0.41-3.14c-0.02-0.23-0.04-0.45-0.06-0.68c-0.06-0.31-0.12-0.62-0.17-0.93
	c0.05-0.07,0.15-0.16,0.14-0.22c-0.04-0.16-0.13-0.31-0.2-0.47c-0.14-0.49-0.44-1-0.39-1.47c0.2-1.8-0.66-2.77-2.27-3.3
	c-0.38-0.13-0.88-0.28-1.05-0.58c-0.75-1.3-2.02-1.56-3.32-1.78c-0.5-0.3-1-0.59-1.51-0.89c-0.56-0.64-1.12-1.28-1.68-1.91
	c-0.52-0.77-0.89-1.78-1.61-2.27c-1.08-0.74-1.69-1.65-2.14-2.83c-0.36-0.94-0.69-2.06-2.04-2.11c-0.73-0.97-1.47-1.95-2.2-2.92
	c0.11-0.03,0.23-0.05,0.34-0.08c-0.21-1.21-0.25-2.49-0.67-3.63c-0.64-1.72-0.55-3.21,0.63-4.62c0.12-0.17,0.24-0.34,0.36-0.51
	c-0.06-0.79-0.14-1.57-0.17-2.36c-0.05-0.96-0.06-1.93-0.09-2.89c1.25-1.14,1.57-2.29,1.19-4.28c0.07-0.33,0.13-0.66,0.2-0.99
	c0.22-0.41,0.45-0.82,0.68-1.23c0.53-1.34,0.81-2.78,2.15-3.7c0.38-0.26,0.4-1.07,0.58-1.62c0.15-0.73,0.3-1.46,0.45-2.19
	c-0.02-0.78-0.04-1.55-0.07-2.33c-0.03-0.77-0.08-1.54-0.11-2.31c0.33-1.4-0.23-2.49-1.18-3.45c-0.07-0.13-0.15-0.26-0.22-0.39
	c0.37-0.9,0.75-1.8,1.12-2.71c0.69,0.03,1.38,0.05,2.07,0.08c0.22,0.13,0.44,0.26,0.65,0.38c0.22,0.17,0.44,0.34,0.66,0.52
	c0.15,0.15,0.31,0.31,0.46,0.46c0.37,0.57,0.75,1.13,1.12,1.7c0.15,0.16,0.31,0.32,0.46,0.48c0,0,0.05,0.04,0.05,0.04
	c1,1.37,2.04,1.09,3.1,0.08c0.33-0.22,0.67-0.44,1-0.66c0.17-0.16,0.33-0.31,0.5-0.47c0,0,0.05-0.05,0.05-0.05
	c0.17-0.16,0.34-0.32,0.51-0.48c0,0,0.05-0.04,0.05-0.04c0.35-0.16,0.71-0.33,1.06-0.5c0.35-0.05,0.69-0.1,1.04-0.15
	c0.2-0.12,0.39-0.24,0.59-0.36c0.15-0.06,0.3-0.11,0.45-0.18c1.46-0.32,2.93-0.59,4.37-1c0.42-0.12,0.73-0.63,1.09-0.96
	c1.24-0.33,2.48-0.66,3.72-0.99c0.22,0.11,0.44,0.22,0.66,0.33c0.33,0.03,0.67,0.07,1,0.1c0.36,0.01,0.72,0.02,1.08,0.03
	c0.53-0.03,1.07-0.06,1.6-0.08c1.45,0.36,2.9,0.72,4.35,1.08c1.84,0.59,3.85,0.89,5.45,1.86c1.13,0.69,2.01,0.68,3.34,0.31
	c-0.03,1.11-0.01,2.12,1.24,2.44c1.2,0.31,1.59,1.28,1.7,2.44c0.06,0.6,0.09,1.4,0.46,1.73c2.73,2.38,2.34,5.7,2.87,8.77
	c0.37,2.14-0.06,4.2-0.13,6.29c-0.03,1,0.35,2.02,0.54,3.03c0.02,0.55,0.05,1.11,0.07,1.66c-0.17,0.5-0.33,1.01-0.5,1.51
	c-0.02,0.74-0.04,1.48-0.05,2.23c-0.11,0.29-0.21,0.59-0.32,0.88c-0.15,0.45-0.5,0.95-0.4,1.34c0.26,1.06-0.26,1.69-0.93,2.32
	c-0.76,0.16-1.51,0.33-1.57,1.32c-0.27,0.41-0.54,0.82-0.81,1.23c-0.3,0.11-0.6,0.23-0.89,0.34C58.5,58.32,57.98,59.39,57.46,60.46z
	"/>
<path class="st1" d="M17.28,18.17c-0.37,0.9-0.75,1.8-1.12,2.71c-0.56-0.19-1.27-0.24-1.66-0.61c-0.88-0.84-1.63-1.84-2.39-2.79
	c-0.86-1.07-0.93-2.42-0.22-3.12c0.78-0.77,1.9-0.57,2.94,0.67c0.55,0.66,0.83,1.54,1.33,2.25C16.42,17.65,16.9,17.87,17.28,18.17z"
	/>
<path class="st2" d="M14.29,60.39c1.35,0.05,1.68,1.16,2.04,2.11c0.45,1.18,1.06,2.09,2.14,2.83c0.72,0.49,1.08,1.5,1.61,2.27
	c-0.21,0.7-0.08,1.74-1.27,1.56c-0.8-0.12-1.17-0.65-0.92-1.55c0.07-0.26-0.21-0.68-0.41-0.95c-0.88-1.18-1.93-2.25-2.65-3.52
	C14.4,62.37,14.45,61.32,14.29,60.39z"/>
<path class="st1" d="M40.75,73.71c0.72-0.26,1.42-0.66,2.16-0.75c1.53-0.19,2.53-0.99,3.22-2.29c0.12,0.13,0.33,0.24,0.34,0.38
	c0.23,2.57,0.43,5.15,0.64,7.72c0,0-0.15-0.05-0.15-0.05c-0.36-0.67-0.83-1.3-1.07-2.01c-0.78-2.34-1.23-2.74-3.58-2.89
	C41.79,73.79,41.27,73.75,40.75,73.71z"/>
<path class="st1" d="M57.46,60.46c0.52-1.07,1.05-2.14,1.57-3.22c-0.05,2.07,1.52,3.36,2.68,5.18
	C59.75,62.44,58.71,61.22,57.46,60.46z"/>
<path class="st0" d="M26.26,13.59c1.07-0.69,1.98-1.27,2.65-1.7c0.21,1.34,0.51,3.06-1.69,3.7C27,15.14,26.69,14.49,26.26,13.59z"/>
<path class="st1" d="M32.07,219.51c0.36,2.13,1.15,4.23-0.19,6.35c-0.39,0.62,0.88,1.66-0.3,2.31c-0.82-1.15-0.99-2.28-0.43-3.68
	c0.39-0.98,0.4-2.18,0.31-3.26C31.39,220.47,31.22,219.86,32.07,219.51z"/>
<path class="st2" d="M46.96,78.72c0,0,0.15,0.05,0.15,0.05c1.1,1.65,1.55,3.47,1.69,5.52C46.67,83.41,46.46,82.7,46.96,78.72z"/>
<path class="st1" d="M31.62,231.42c0.19,0.38,0.56,0.76,0.55,1.12c-0.1,2.23,0.33,4.36,1.06,6.44c-1.36-0.11-1.75-1.29-1.82-2.21
	C31.28,235,31.53,233.2,31.62,231.42z"/>
<path class="st1" d="M51.03,64.79c0.77,0.06,1.56,0.25,2.31,0.15c0.68-0.08,1.33-0.46,1.99-0.71c0.9,0.18,1.23,0.79,0.83,1.54
	c-0.18,0.33-0.84,0.52-1.3,0.55c-0.84,0.05-1.75,0.09-2.53-0.18C51.8,65.97,51.45,65.26,51.03,64.79z"/>
<path class="st0" d="M37.75,7.46c1.11,0.58,1.89,1.25,1.24,2.47c-0.17,0.32-1.29,0.57-1.53,0.35C36.47,9.37,36.98,8.45,37.75,7.46z"
	/>
<path class="st1" d="M62.3,54.36c0.67-0.63,1.19-1.27,0.93-2.32c-0.1-0.39,0.25-0.89,0.4-1.34c1.13,1.53,0.31,3.17,0.3,4.76
	C62.85,55.82,62.38,55.36,62.3,54.36z"/>
<path class="st1" d="M36.54,17.07c-0.36,0.33-0.67,0.85-1.09,0.96c-1.43,0.41-2.91,0.68-4.37,1c0.35-0.44,0.64-1.15,1.07-1.26
	C33.59,17.43,35.08,17.29,36.54,17.07z"/>
<path class="st2" d="M36.39,220.23c-0.28-0.39-0.79-0.77-0.81-1.17c-0.06-1.65,0.02-3.3,0.06-4.95c0.23,0.24,0.66,0.47,0.67,0.72
	C36.38,216.63,36.37,218.43,36.39,220.23z"/>
<path class="st1" d="M35.51,150.5c-0.79-1.67-0.57-3.28,0.3-4.84C36.24,146.8,36.13,148.6,35.51,150.5z"/>
<path class="st2" d="M13.68,39.09c0.38,1.99,0.06,3.15-1.19,4.28c0.04-0.88-0.03-1.78,0.17-2.62
	C12.81,40.15,13.33,39.64,13.68,39.09z"/>
<path class="st2" d="M7.21,59.5c0.71-2.19,1.26-2.38,2.87-1.13C9,58.8,8.11,59.15,7.21,59.5z"/>
<path class="st0" d="M14.29,10.28c1.44-0.15,1.75,0.77,1.89,1.72c0.03,0.21-0.52,0.51-0.81,0.77c-0.39-0.61-0.79-1.2-1.15-1.82
	C14.15,10.83,14.25,10.63,14.29,10.28z"/>
<path class="st1" d="M48.95,17.54c-1.45-0.36-2.9-0.72-4.35-1.08C47.37,15.74,47.76,15.84,48.95,17.54z"/>
<path class="st1" d="M31.78,213.19c0.68,1.43,0.63,2.86,0.03,4.29C30.86,216.05,31,214.62,31.78,213.19z"/>
<path class="st1" d="M57.29,10.49c-0.52,1.14-1.05,2.29-1.76,3.84c-0.29-1.98-0.06-3.27,1.18-4.18
	C56.9,10.27,57.09,10.38,57.29,10.49z"/>
<path class="st1" d="M9.56,46.83c-0.93,0.41-1.89,1.54-3.12-0.58c1.24-0.06,2.15-0.1,3.05-0.14C9.52,46.35,9.54,46.59,9.56,46.83z"
	/>
<path class="st1" d="M61.18,66.37c-1.07-0.35-1.77-0.57-2.56-0.82C60.43,63.99,60.43,63.99,61.18,66.37z"/>
<path class="st1" d="M45.74,67.98c-0.7-0.11-1.33-0.41-0.81-1.19c0.42-0.63,1.14-1.06,1.72-1.57
	C46.35,66.14,46.04,67.06,45.74,67.98z"/>
<path class="st1" d="M27.28,84.51C29,83.44,29,83.44,29.3,81.44C29.76,84.11,29.76,84.11,27.28,84.51z"/>
<path class="st1" d="M30.58,189.09c0.81,1.04,0.72,2.11,0.14,3.21C29.89,191.26,30.03,190.18,30.58,189.09z"/>
<path class="st1" d="M16.38,21.27c0.95,0.96,1.51,2.05,1.18,3.45C16.55,23.78,15.79,22.75,16.38,21.27z"/>
<path class="st1" d="M64.5,46.08c-0.02-0.55-0.05-1.11-0.07-1.66c0.59-0.1,1.17-0.2,1.96-0.33C66.17,45.32,65.48,45.83,64.5,46.08z"
	/>
<path class="st2" d="M69.05,57c1,0.09,1.38,0.54,1.16,1.53C69.11,58.21,69.11,58.21,69.05,57z"/>
<path class="st2" d="M63.33,62.07c0.17,0.35,0.47,0.69,0.48,1.04c0.01,0.23-0.4,0.48-0.62,0.72c-0.27-0.37-0.65-0.71-0.78-1.13
	c-0.09-0.28,0.18-0.66,0.29-1C62.91,61.83,63.12,61.95,63.33,62.07z"/>
<path class="st2" d="M67.47,47.6c-0.18-0.45-0.4-0.9-0.49-1.37c-0.02-0.08,0.51-0.27,0.79-0.41c0.17,0.48,0.34,0.97,0.51,1.45
	C68.01,47.38,67.74,47.49,67.47,47.6z"/>
<path class="st1" d="M17.74,29.35c-0.15,0.73-0.3,1.46-0.45,2.19c-0.34-0.39-0.91-0.75-0.96-1.17
	C16.22,29.43,17.08,29.45,17.74,29.35z"/>
<path class="st1" d="M37.78,90.48c-0.92-0.72-1.25-1.58-0.62-2.66C37.37,88.71,37.57,89.6,37.78,90.48z"/>
<path class="st1" d="M25.85,21.91c-1.06,1.01-2.1,1.28-3.1-0.08C23.78,21.85,24.81,21.88,25.85,21.91z"/>
<path class="st1" d="M35.85,143.14c0.07-0.76,0.13-1.52,0.2-2.28C36.74,141.69,36.69,142.45,35.85,143.14z"/>
<path class="st1" d="M36.36,135.63c-0.06-0.79-0.13-1.57-0.19-2.36C37.69,133.93,37.17,134.77,36.36,135.63z"/>
<path class="st2" d="M21.76,69.5c0.5,0.3,1,0.6,1.51,0.89C22.38,70.74,21.62,70.88,21.76,69.5z"/>
<path class="st1" d="M63.95,49.82c0.02-0.74,0.04-1.48,0.05-2.23C64.42,48.34,65.6,49.11,63.95,49.82z"/>
<path class="st1" d="M59.92,56.9c0.27-0.41,0.54-0.82,0.81-1.23c0.1,0.38,0.2,0.75,0.3,1.13C60.66,56.84,60.29,56.87,59.92,56.9z"/>
<path class="st1" d="M34.99,182.12c-0.6-0.51-0.64-1.04-0.09-1.61C35.56,181.01,35.56,181.55,34.99,182.12z"/>
<path class="st1" d="M31.21,94.25c0,0.54-0.01,1.07-0.01,1.61C30.62,95.31,30.63,94.78,31.21,94.25z"/>
<path class="st1" d="M34.86,178.9c-0.53-0.58-0.47-1.12,0.13-1.61C35.54,177.88,35.59,178.42,34.86,178.9z"/>
<path class="st1" d="M39.15,76.57c-0.6-0.78-0.08-1.25,0.48-1.71C39.47,75.43,39.31,76,39.15,76.57z"/>
<path class="st1" d="M43,16.55c-0.36-0.01-0.72-0.02-1.08-0.03C42.28,16.52,42.64,16.54,43,16.55z"/>
<path class="st1" d="M30.62,178.37c0.69,0.58,0.26,0.92-0.27,1.23C30.44,179.19,30.53,178.78,30.62,178.37z"/>
<path class="st1" d="M37.01,111.93c0.03-0.36,0.06-0.72,0.09-1.07C37.08,111.21,37.04,111.57,37.01,111.93z"/>
<path class="st2" d="M14.56,36.87c-0.23,0.41-0.45,0.82-0.68,1.23C13.47,37.34,13.86,37.02,14.56,36.87z"/>
<path class="st1" d="M36.02,139.25c0.02-0.36,0.03-0.71,0.05-1.07C36.06,138.54,36.04,138.9,36.02,139.25z"/>
<path class="st1" d="M31.7,211.05c0.01,0.36,0.02,0.71,0.03,1.07C31.71,211.76,31.7,211.41,31.7,211.05z"/>
<path class="st1" d="M30.22,183.72c0.05,0.4,0.1,0.8,0.16,1.2C29.82,184.59,29.47,184.22,30.22,183.72z"/>
<path class="st1" d="M30.98,100.56c-0.11,0.4-0.23,0.79-0.34,1.19C30,101.14,30.4,100.82,30.98,100.56z"/>
<path class="st2" d="M36,158.54c-0.02-0.35-0.05-0.71-0.07-1.06C35.96,157.83,35.98,158.19,36,158.54z"/>
<path class="st1" d="M30.2,173.54c0.04,0.4,0.08,0.81,0.12,1.21C29.82,174.39,29.49,174.02,30.2,173.54z"/>
<path class="st2" d="M35.9,156.43c-0.06-0.55-0.11-1.1-0.17-1.65C35.79,155.33,35.85,155.88,35.9,156.43z"/>
<path class="st1" d="M29.02,19.72c-0.35,0.17-0.71,0.33-1.06,0.5C28.31,20.05,28.66,19.89,29.02,19.72z"/>
<path class="st1" d="M30.52,79.16c0.02,0.23,0.04,0.45,0.06,0.68c-0.22-0.1-0.44-0.2-0.67-0.3C30.12,79.41,30.32,79.28,30.52,79.16z
	"/>
<path class="st2" d="M30.67,133.89c-0.16,0.19-0.32,0.38-0.49,0.56C30.34,134.26,30.5,134.07,30.67,133.89z"/>
<path class="st1" d="M37,113.61c-0.03-0.24-0.06-0.48-0.08-0.71C36.95,113.13,36.97,113.37,37,113.61z"/>
<path class="st1" d="M35.28,185.99c-0.06-0.24-0.12-0.48-0.17-0.72C35.17,185.51,35.23,185.75,35.28,185.99z"/>
<path class="st1" d="M37.51,95.41c-0.07-0.23-0.15-0.47-0.22-0.7C37.36,94.95,37.43,95.18,37.51,95.41z"/>
<path class="st1" d="M30.58,126.35c-0.03,0.21-0.06,0.43-0.09,0.64c-0.03-0.16-0.09-0.31-0.09-0.47
	C30.39,126.46,30.51,126.4,30.58,126.35z"/>
<path class="st1" d="M30.29,77.54c0.07,0.15,0.16,0.3,0.2,0.47c0.01,0.06-0.09,0.14-0.14,0.22C30.33,78,30.31,77.77,30.29,77.54z"/>
<path class="st1" d="M35.59,144.65c0-0.21,0-0.41-0.01-0.62C35.58,144.24,35.58,144.45,35.59,144.65z"/>
<path class="st1" d="M30.27,181.49c-0.02,0.23-0.03,0.46-0.05,0.69C30.23,181.95,30.25,181.72,30.27,181.49z"/>
<path class="st1" d="M12.75,48.62c-0.12,0.17-0.24,0.34-0.36,0.51C12.51,48.96,12.63,48.79,12.75,48.62z"/>
<path class="st1" d="M22.7,21.79c-0.15-0.16-0.31-0.32-0.46-0.48C22.39,21.46,22.54,21.63,22.7,21.79z"/>
<path class="st1" d="M27.35,20.78c-0.17,0.16-0.33,0.31-0.5,0.47C27.01,21.1,27.18,20.94,27.35,20.78z"/>
<path class="st1" d="M27.9,20.25c-0.17,0.16-0.34,0.32-0.51,0.48C27.56,20.57,27.73,20.41,27.9,20.25z"/>
<path class="st2" d="M36.38,124.83c-0.08-0.23-0.16-0.46-0.24-0.69C36.22,124.37,36.3,124.6,36.38,124.83z"/>
<path class="st1" d="M30.64,19.21c-0.2,0.12-0.39,0.24-0.59,0.36C30.25,19.45,30.44,19.33,30.64,19.21z"/>
<path class="st1" d="M21.12,19.6c-0.15-0.15-0.31-0.31-0.46-0.46C20.81,19.3,20.96,19.45,21.12,19.6z"/>
<path class="st1" d="M20,18.63c-0.22-0.13-0.43-0.26-0.65-0.38C19.56,18.37,19.78,18.5,20,18.63z"/>
<path class="st2" d="M35.95,153.21c-0.13-0.21-0.26-0.42-0.4-0.64C35.69,152.79,35.82,153,35.95,153.21z"/>
<path class="st1" d="M40.92,16.41c-0.22-0.11-0.44-0.22-0.66-0.33C40.48,16.19,40.7,16.3,40.92,16.41z"/>
<path class="st2" d="M36.41,128.59c-0.08-0.13-0.19-0.25-0.24-0.39c-0.02-0.05,0.05-0.15,0.08-0.22
	C36.3,128.18,36.35,128.38,36.41,128.59z"/>
</svg>
